Playwrite-Th00LongFast.ufo
<glyph name="exclam" format="2">
  <advance width="578"/>
  <unicode hex="0021"/>
  <outline>
    <contour>
      <point x="289" y="216" type="curve" smooth="yes"/>
      <point x="303" y="216"/>
      <point x="308" y="220"/>
      <point x="308" y="231" type="curve" smooth="yes"/>
      <point x="308" y="1500" type="line" smooth="yes"/>
      <point x="308" y="1511"/>
      <point x="301" y="1515"/>
      <point x="289" y="1515" type="curve" smooth="yes"/>
      <point x="275" y="1515"/>
      <point x="270" y="1511"/>
      <point x="270" y="1500" type="curve" smooth="yes"/>
      <point x="270" y="231" type="line" smooth="yes"/>
      <point x="270" y="220"/>
      <point x="275" y="216"/>
    </contour>
    <contour>
      <point x="289" y="-14" type="curve" smooth="yes"/>
      <point x="315" y="-14"/>
      <point x="329" y="1"/>
      <point x="329" y="31" type="curve" smooth="yes"/>
      <point x="329" y="61"/>
      <point x="315" y="76"/>
      <point x="289" y="76" type="curve" smooth="yes"/>
      <point x="263" y="76"/>
      <point x="249" y="61"/>
      <point x="249" y="31" type="curve" smooth="yes"/>
      <point x="249" y="1"/>
      <point x="263" y="-14"/>
    </contour>
  </outline>
</glyph>
<glyph name="quotesingle" format="2">
  <advance width="169"/>
  <unicode hex="0027"/>
  <outline>
    <contour>
      <point x="84" y="975" type="curve" smooth="yes"/>
      <point x="95" y="975"/>
      <point x="103" y="984"/>
      <point x="103" y="998" type="curve" smooth="yes"/>
      <point x="113" y="1304" type="line" smooth="yes"/>
      <point x="113" y="1318"/>
      <point x="104" y="1329"/>
      <point x="84" y="1329" type="curve" smooth="yes"/>
      <point x="65" y="1329"/>
      <point x="56" y="1318"/>
      <point x="56" y="1304" type="curve" smooth="yes"/>
      <point x="66" y="995" type="line" smooth="yes"/>
      <point x="66" y="983"/>
      <point x="74" y="975"/>
    </contour>
  </outline>
</glyph>
<glyph name="parenright" format="2">
  <advance width="486"/>
  <unicode hex="0029"/>
  <outline>
    <contour>
      <point x="134" y="-54" type="curve" smooth="yes"/>
      <point x="128" y="-66"/>
      <point x="131" y="-70"/>
      <point x="143" y="-75" type="curve" smooth="yes"/>
      <point x="155" y="-80"/>
      <point x="159" y="-79"/>
      <point x="164" y="-69" type="curve" smooth="yes"/>
      <point x="299" y="203"/>
      <point x="330" y="481"/>
      <point x="330" y="750" type="curve" smooth="yes"/>
      <point x="330" y="1019"/>
      <point x="299" y="1298"/>
      <point x="164" y="1569" type="curve" smooth="yes"/>
      <point x="159" y="1579"/>
      <point x="155" y="1580"/>
      <point x="143" y="1575" type="curve" smooth="yes"/>
      <point x="131" y="1570"/>
      <point x="128" y="1566"/>
      <point x="134" y="1554" type="curve" smooth="yes"/>
      <point x="259" y="1303"/>
      <point x="293" y="1023"/>
      <point x="293" y="750" type="curve" smooth="yes"/>
      <point x="293" y="478"/>
      <point x="259" y="198"/>
    </contour>
  </outline>
</glyph>
<glyph name="comma" format="2">
  <advance width="313"/>
  <unicode hex="002C"/>
  <outline>
    <contour>
      <point x="109" y="-177" type="curve" smooth="yes"/>
      <point x="117" y="-177"/>
      <point x="123" y="-171"/>
      <point x="127" y="-164" type="curve" smooth="yes"/>
      <point x="167" y="-96"/>
      <point x="183" y="-35"/>
      <point x="183" y="44" type="curve" smooth="yes"/>
      <point x="183" y="58"/>
      <point x="176" y="71"/>
      <point x="155" y="71" type="curve" smooth="yes"/>
      <point x="136" y="71"/>
      <point x="128" y="60"/>
      <point x="128" y="46" type="curve" smooth="yes"/>
      <point x="128" y="-54"/>
      <point x="121" y="-77"/>
      <point x="92" y="-144" type="curve" smooth="yes"/>
      <point x="89" y="-151"/>
      <point x="85" y="-156"/>
      <point x="85" y="-161" type="curve" smooth="yes"/>
      <point x="85" y="-170"/>
      <point x="99" y="-177"/>
    </contour>
  </outline>
</glyph>
<glyph name="zero" format="2">
  <advance width="1181"/>
  <unicode hex="0030"/>
  <outline>
    <contour>
      <point x="591" y="-19" type="curve" smooth="yes"/>
      <point x="874" y="-19"/>
      <point x="1046" y="271"/>
      <point x="1046" y="748" type="curve" smooth="yes"/>
      <point x="1046" y="1225"/>
      <point x="874" y="1515"/>
      <point x="591" y="1515" type="curve" smooth="yes"/>
      <point x="308" y="1515"/>
      <point x="135" y="1225"/>
      <point x="135" y="748" type="curve" smooth="yes"/>
      <point x="135" y="271"/>
      <point x="308" y="-19"/>
    </contour>
    <contour>
      <point x="593" y="19" type="curve" smooth="yes"/>
      <point x="334" y="19"/>
      <point x="176" y="295"/>
      <point x="176" y="748" type="curve" smooth="yes"/>
      <point x="176" y="1201"/>
      <point x="334" y="1478"/>
      <point x="593" y="1478" type="curve" smooth="yes"/>
      <point x="849" y="1478"/>
      <point x="1005" y="1201"/>
      <point x="1005" y="748" type="curve" smooth="yes"/>
      <point x="1005" y="295"/>
      <point x="849" y="19"/>
    </contour>
  </outline>
</glyph>
<glyph name="one" format="2">
  <advance width="696"/>
  <unicode hex="0031"/>
  <outline>
    <contour>
      <point x="375" y="-14" type="curve" smooth="yes"/>
      <point x="389" y="-14"/>
      <point x="394" y="-10"/>
      <point x="394" y="1" type="curve" smooth="yes"/>
      <point x="394" y="1500" type="line" smooth="yes"/>
      <point x="394" y="1511"/>
      <point x="389" y="1515"/>
      <point x="378" y="1515" type="curve" smooth="yes"/>
      <point x="366" y="1515"/>
      <point x="361" y="1513"/>
      <point x="356" y="1508" type="curve" smooth="yes"/>
      <point x="266" y="1403"/>
      <point x="153" y="1306"/>
      <point x="64" y="1250" type="curve" smooth="yes"/>
      <point x="53" y="1243"/>
      <point x="48" y="1236"/>
      <point x="56" y="1223" type="curve" smooth="yes"/>
      <point x="64" y="1210"/>
      <point x="76" y="1215"/>
      <point x="93" y="1226" type="curve" smooth="yes"/>
      <point x="180" y="1289"/>
      <point x="276" y="1365"/>
      <point x="356" y="1453" type="curve"/>
      <point x="356" y="1" type="line" smooth="yes"/>
      <point x="356" y="-10"/>
      <point x="361" y="-14"/>
    </contour>
  </outline>
</glyph>
<glyph name="six" format="2">
  <advance width="1210"/>
  <unicode hex="0036"/>
  <outline>
    <contour>
      <point x="645" y="-19" type="curve" smooth="yes"/>
      <point x="904" y="-19"/>
      <point x="1069" y="154"/>
      <point x="1069" y="461" type="curve" smooth="yes"/>
      <point x="1069" y="701"/>
      <point x="918" y="881"/>
      <point x="680" y="881" type="curve" smooth="yes"/>
      <point x="493" y="881"/>
      <point x="286" y="766"/>
      <point x="219" y="399" type="curve"/>
      <point x="241" y="336" type="line"/>
      <point x="293" y="696"/>
      <point x="471" y="844"/>
      <point x="680" y="844" type="curve" smooth="yes"/>
      <point x="889" y="844"/>
      <point x="1028" y="685"/>
      <point x="1028" y="461" type="curve" smooth="yes"/>
      <point x="1028" y="180"/>
      <point x="890" y="19"/>
      <point x="645" y="19" type="curve" smooth="yes"/>
      <point x="416" y="19"/>
      <point x="225" y="200"/>
      <point x="225" y="611" type="curve" smooth="yes"/>
      <point x="225" y="1101"/>
      <point x="434" y="1385"/>
      <point x="899" y="1481" type="curve" smooth="yes"/>
      <point x="913" y="1484"/>
      <point x="913" y="1493"/>
      <point x="911" y="1500" type="curve" smooth="yes"/>
      <point x="909" y="1515"/>
      <point x="906" y="1519"/>
      <point x="884" y="1514" type="curve" smooth="yes"/>
      <point x="411" y="1420"/>
      <point x="184" y="1121"/>
      <point x="184" y="611" type="curve" smooth="yes"/>
      <point x="184" y="211"/>
      <point x="346" y="-19"/>
    </contour>
  </outline>
</glyph>
<glyph name="eight" format="2">
  <advance width="1126"/>
  <unicode hex="0038"/>
  <outline>
    <contour>
      <point x="563" y="-19" type="curve" smooth="yes"/>
      <point x="819" y="-19"/>
      <point x="1004" y="141"/>
      <point x="1004" y="363" type="curve" smooth="yes"/>
      <point x="1004" y="533"/>
      <point x="855" y="696"/>
      <point x="611" y="800" type="curve"/>
      <point x="815" y="898"/>
      <point x="940" y="1051"/>
      <point x="940" y="1205" type="curve" smooth="yes"/>
      <point x="940" y="1385"/>
      <point x="785" y="1515"/>
      <point x="570" y="1515" type="curve" smooth="yes"/>
      <point x="349" y="1515"/>
      <point x="188" y="1378"/>
      <point x="188" y="1189" type="curve" smooth="yes"/>
      <point x="188" y="1038"/>
      <point x="313" y="890"/>
      <point x="519" y="800" type="curve"/>
      <point x="274" y="688"/>
      <point x="124" y="513"/>
      <point x="124" y="333" type="curve" smooth="yes"/>
      <point x="124" y="129"/>
      <point x="308" y="-19"/>
    </contour>
    <contour>
      <point x="563" y="19" type="curve" smooth="yes"/>
      <point x="333" y="19"/>
      <point x="165" y="150"/>
      <point x="165" y="333" type="curve" smooth="yes"/>
      <point x="165" y="501"/>
      <point x="318" y="669"/>
      <point x="566" y="780" type="curve"/>
      <point x="813" y="680"/>
      <point x="963" y="524"/>
      <point x="963" y="363" type="curve" smooth="yes"/>
      <point x="963" y="164"/>
      <point x="795" y="19"/>
    </contour>
    <contour>
      <point x="561" y="823" type="curve"/>
      <point x="355" y="904"/>
      <point x="229" y="1043"/>
      <point x="229" y="1189" type="curve" smooth="yes"/>
      <point x="229" y="1356"/>
      <point x="373" y="1478"/>
      <point x="570" y="1478" type="curve" smooth="yes"/>
      <point x="761" y="1478"/>
      <point x="899" y="1363"/>
      <point x="899" y="1205" type="curve" smooth="yes"/>
      <point x="899" y="1053"/>
      <point x="771" y="908"/>
    </contour>
  </outline>
</glyph>
<glyph name="question" format="2">
  <advance width="846"/>
  <unicode hex="003F"/>
  <guideline x="15"/>
  <outline>
    <contour>
      <point x="330" y="216" type="curve" smooth="yes"/>
      <point x="344" y="216"/>
      <point x="349" y="219"/>
      <point x="349" y="233" type="curve" smooth="yes"/>
      <point x="349" y="645" type="line"/>
      <point x="625" y="715"/>
      <point x="793" y="916"/>
      <point x="793" y="1176" type="curve" smooth="yes"/>
      <point x="793" y="1404"/>
      <point x="636" y="1515"/>
      <point x="444" y="1515" type="curve" smooth="yes"/>
      <point x="300" y="1515"/>
      <point x="143" y="1451"/>
      <point x="29" y="1348" type="curve" smooth="yes"/>
      <point x="21" y="1341"/>
      <point x="23" y="1333"/>
      <point x="30" y="1324" type="curve" smooth="yes"/>
      <point x="38" y="1315"/>
      <point x="45" y="1315"/>
      <point x="51" y="1320" type="curve" smooth="yes"/>
      <point x="159" y="1418"/>
      <point x="308" y="1478"/>
      <point x="444" y="1478" type="curve" smooth="yes"/>
      <point x="615" y="1478"/>
      <point x="751" y="1383"/>
      <point x="751" y="1176" type="curve" smooth="yes"/>
      <point x="751" y="928"/>
      <point x="590" y="740"/>
      <point x="324" y="680" type="curve" smooth="yes"/>
      <point x="316" y="679"/>
      <point x="311" y="675"/>
      <point x="311" y="663" type="curve" smooth="yes"/>
      <point x="311" y="233" type="line" smooth="yes"/>
      <point x="311" y="219"/>
      <point x="316" y="216"/>
    </contour>
    <contour>
      <point x="330" y="-14" type="curve" smooth="yes"/>
      <point x="356" y="-14"/>
      <point x="370" y="1"/>
      <point x="370" y="31" type="curve" smooth="yes"/>
      <point x="370" y="61"/>
      <point x="356" y="76"/>
      <point x="330" y="76" type="curve" smooth="yes"/>
      <point x="304" y="76"/>
      <point x="290" y="61"/>
      <point x="290" y="31" type="curve" smooth="yes"/>
      <point x="290" y="1"/>
      <point x="304" y="-14"/>
    </contour>
  </outline>
</glyph>
<glyph name="at" format="2">
  <advance width="958"/>
  <unicode hex="0040"/>
  <outline>
    <contour>
      <point x="314" y="238" type="curve" smooth="yes"/>
      <point x="314" y="121"/>
      <point x="359" y="53"/>
      <point x="434" y="53" type="curve" smooth="yes"/>
      <point x="508" y="53"/>
      <point x="561" y="110"/>
      <point x="594" y="241" type="curve"/>
      <point x="594" y="218"/>
      <point x="594" y="194"/>
      <point x="594" y="171" type="curve" smooth="yes"/>
      <point x="594" y="92"/>
      <point x="625" y="53"/>
      <point x="689" y="53" type="curve" smooth="yes"/>
      <point x="794" y="53"/>
      <point x="900" y="151"/>
      <point x="900" y="309" type="curve" smooth="yes"/>
      <point x="900" y="540"/>
      <point x="745" y="684"/>
      <point x="494" y="684" type="curve" smooth="yes"/>
      <point x="227" y="684"/>
      <point x="73" y="493"/>
      <point x="73" y="255" type="curve" smooth="yes"/>
      <point x="73" y="17"/>
      <point x="215" y="-174"/>
      <point x="484" y="-174" type="curve" smooth="yes"/>
      <point x="556" y="-174"/>
      <point x="630" y="-160"/>
      <point x="694" y="-130" type="curve" smooth="yes"/>
      <point x="703" y="-126"/>
      <point x="706" y="-119"/>
      <point x="701" y="-107" type="curve" smooth="yes"/>
      <point x="696" y="-97"/>
      <point x="690" y="-94"/>
      <point x="681" y="-97" type="curve" smooth="yes"/>
      <point x="621" y="-125"/>
      <point x="549" y="-141"/>
      <point x="484" y="-141" type="curve" smooth="yes"/>
      <point x="234" y="-141"/>
      <point x="105" y="37"/>
      <point x="105" y="255" type="curve" smooth="yes"/>
      <point x="105" y="473"/>
      <point x="247" y="651"/>
      <point x="494" y="651" type="curve" smooth="yes"/>
      <point x="724" y="651"/>
      <point x="868" y="519"/>
      <point x="868" y="309" type="curve" smooth="yes"/>
      <point x="868" y="165"/>
      <point x="773" y="85"/>
      <point x="693" y="85" type="curve" smooth="yes"/>
      <point x="648" y="85"/>
      <point x="629" y="105"/>
      <point x="629" y="172" type="curve" smooth="yes"/>
      <point x="629" y="450" type="line" smooth="yes"/>
      <point x="629" y="459"/>
      <point x="624" y="463"/>
      <point x="611" y="463" type="curve" smooth="yes"/>
      <point x="600" y="463"/>
      <point x="594" y="459"/>
      <point x="594" y="450" type="curve" smooth="yes"/>
      <point x="594" y="435" type="line"/>
      <point x="559" y="456"/>
      <point x="529" y="466"/>
      <point x="493" y="466" type="curve" smooth="yes"/>
      <point x="373" y="466"/>
      <point x="314" y="373"/>
    </contour>
    <contour>
      <point x="351" y="239" type="curve" smooth="yes"/>
      <point x="351" y="364"/>
      <point x="403" y="434"/>
      <point x="493" y="434" type="curve" smooth="yes"/>
      <point x="520" y="434"/>
      <point x="555" y="428"/>
      <point x="594" y="401" type="curve"/>
      <point x="594" y="373" type="line"/>
      <point x="571" y="169"/>
      <point x="508" y="85"/>
      <point x="439" y="85" type="curve" smooth="yes"/>
      <point x="375" y="85"/>
      <point x="351" y="156"/>
    </contour>
  </outline>
</glyph>
<glyph name="D" format="2">
  <advance width="1346"/>
  <unicode hex="0044"/>
  <anchor x="614" y="0" name="bottom"/>
  <anchor x="298" y="741" name="center"/>
  <anchor x="631" y="1424" name="top"/>
  <outline>
    <contour>
      <point x="260" y="0" type="curve" smooth="yes"/>
      <point x="458" y="0" type="line" smooth="yes"/>
      <point x="904" y="0"/>
      <point x="1196" y="325"/>
      <point x="1196" y="820" type="curve" smooth="yes"/>
      <point x="1196" y="1256"/>
      <point x="969" y="1488"/>
      <point x="543" y="1488" type="curve" smooth="yes"/>
      <point x="261" y="1488" type="line" smooth="yes"/>
      <point x="248" y="1488"/>
      <point x="241" y="1484"/>
      <point x="241" y="1473" type="curve" smooth="yes"/>
      <point x="241" y="15" type="line" smooth="yes"/>
      <point x="241" y="4"/>
      <point x="246" y="0"/>
    </contour>
    <contour>
      <point x="280" y="35" type="line"/>
      <point x="280" y="1453" type="line"/>
      <point x="543" y="1453" type="line" smooth="yes"/>
      <point x="943" y="1453"/>
      <point x="1155" y="1233"/>
      <point x="1155" y="820" type="curve" smooth="yes"/>
      <point x="1155" y="346"/>
      <point x="878" y="35"/>
      <point x="455" y="35" type="curve" smooth="yes"/>
    </contour>
  </outline>
</glyph>
<glyph name="G" format="2">
  <advance width="1356"/>
  <unicode hex="0047"/>
  <anchor x="679" y="0" name="bottom"/>
  <anchor x="698" y="1424" name="top"/>
  <outline>
    <contour>
      <point x="678" y="-19" type="curve" smooth="yes"/>
      <point x="921" y="-19"/>
      <point x="1173" y="235"/>
      <point x="1173" y="755" type="curve" smooth="yes"/>
      <point x="1173" y="766"/>
      <point x="1168" y="770"/>
      <point x="1154" y="770" type="curve" smooth="yes"/>
      <point x="729" y="770" type="line" smooth="yes"/>
      <point x="718" y="770"/>
      <point x="714" y="765"/>
      <point x="714" y="754" type="curve" smooth="yes"/>
      <point x="714" y="741"/>
      <point x="718" y="735"/>
      <point x="729" y="735" type="curve" smooth="yes"/>
      <point x="1135" y="735" type="line"/>
      <point x="1119" y="211"/>
      <point x="865" y="19"/>
      <point x="678" y="19" type="curve" smooth="yes"/>
      <point x="396" y="19"/>
      <point x="191" y="330"/>
      <point x="191" y="728" type="curve" smooth="yes"/>
      <point x="191" y="1173"/>
      <point x="411" y="1478"/>
      <point x="721" y="1478" type="curve" smooth="yes"/>
      <point x="838" y="1478"/>
      <point x="946" y="1433"/>
      <point x="1033" y="1324" type="curve" smooth="yes"/>
      <point x="1043" y="1313"/>
      <point x="1051" y="1311"/>
      <point x="1060" y="1318" type="curve" smooth="yes"/>
      <point x="1071" y="1326"/>
      <point x="1071" y="1334"/>
      <point x="1061" y="1345" type="curve" smooth="yes"/>
      <point x="973" y="1453"/>
      <point x="866" y="1515"/>
      <point x="721" y="1515" type="curve" smooth="yes"/>
      <point x="395" y="1515"/>
      <point x="150" y="1204"/>
      <point x="150" y="728" type="curve" smooth="yes"/>
      <point x="150" y="298"/>
      <point x="375" y="-19"/>
    </contour>
  </outline>
</glyph>
<glyph name="L" format="2">
  <advance width="969"/>
  <unicode hex="004C"/>
  <anchor x="608" y="765" name="CAT"/>
  <anchor x="581" y="0" name="bottom"/>
  <anchor x="261" y="765" name="center"/>
  <anchor x="261" y="1424" name="top"/>
  <anchor x="329" y="1488" name="topright"/>
  <outline>
    <contour>
      <point x="260" y="0" type="curve" smooth="yes"/>
      <point x="919" y="0" type="line" smooth="yes"/>
      <point x="925" y="0"/>
      <point x="930" y="5"/>
      <point x="930" y="18" type="curve" smooth="yes"/>
      <point x="930" y="30"/>
      <point x="925" y="35"/>
      <point x="919" y="35" type="curve" smooth="yes"/>
      <point x="279" y="35" type="line"/>
      <point x="279" y="1500" type="line" smooth="yes"/>
      <point x="279" y="1511"/>
      <point x="274" y="1515"/>
      <point x="260" y="1515" type="curve" smooth="yes"/>
      <point x="246" y="1515"/>
      <point x="241" y="1511"/>
      <point x="241" y="1500" type="curve" smooth="yes"/>
      <point x="241" y="15" type="line" smooth="yes"/>
      <point x="241" y="4"/>
      <point x="246" y="0"/>
    </contour>
  </outline>
</glyph>
<glyph name="M" format="2">
  <advance width="1625"/>
  <unicode hex="004D"/>
  <anchor x="814" y="0" name="bottom"/>
  <anchor x="814" y="1424" name="top"/>
  <outline>
    <contour>
      <point x="260" y="-14" type="curve" smooth="yes"/>
      <point x="274" y="-14"/>
      <point x="279" y="-10"/>
      <point x="279" y="1" type="curve" smooth="yes"/>
      <point x="279" y="1440" type="line"/>
      <point x="791" y="488" type="line" smooth="yes"/>
      <point x="798" y="475"/>
      <point x="803" y="473"/>
      <point x="814" y="473" type="curve" smooth="yes"/>
      <point x="824" y="473"/>
      <point x="830" y="474"/>
      <point x="838" y="488" type="curve" smooth="yes"/>
      <point x="1346" y="1440" type="line"/>
      <point x="1346" y="1" type="line" smooth="yes"/>
      <point x="1346" y="-10"/>
      <point x="1351" y="-14"/>
      <point x="1365" y="-14" type="curve" smooth="yes"/>
      <point x="1379" y="-14"/>
      <point x="1384" y="-10"/>
      <point x="1384" y="1" type="curve" smooth="yes"/>
      <point x="1384" y="1500" type="line" smooth="yes"/>
      <point x="1384" y="1511"/>
      <point x="1379" y="1515"/>
      <point x="1365" y="1515" type="curve" smooth="yes"/>
      <point x="1349" y="1515"/>
      <point x="1344" y="1513"/>
      <point x="1339" y="1503" type="curve" smooth="yes"/>
      <point x="815" y="516" type="line"/>
      <point x="286" y="1503" type="line" smooth="yes"/>
      <point x="281" y="1513"/>
      <point x="275" y="1515"/>
      <point x="261" y="1515" type="curve" smooth="yes"/>
      <point x="248" y="1515"/>
      <point x="241" y="1511"/>
      <point x="241" y="1500" type="curve" smooth="yes"/>
      <point x="241" y="1" type="line" smooth="yes"/>
      <point x="241" y="-10"/>
      <point x="246" y="-14"/>
    </contour>
  </outline>
</glyph>
<glyph name="N" format="2">
  <advance width="1375"/>
  <unicode hex="004E"/>
  <anchor x="688" y="0" name="bottom"/>
  <anchor x="688" y="1424" name="top"/>
  <outline>
    <contour>
      <point x="260" y="-14" type="curve" smooth="yes"/>
      <point x="274" y="-14"/>
      <point x="279" y="-10"/>
      <point x="279" y="1" type="curve" smooth="yes"/>
      <point x="279" y="1435" type="line"/>
      <point x="1095" y="-2" type="line" smooth="yes"/>
      <point x="1099" y="-10"/>
      <point x="1104" y="-14"/>
      <point x="1116" y="-14" type="curve" smooth="yes"/>
      <point x="1128" y="-14"/>
      <point x="1134" y="-10"/>
      <point x="1134" y="1" type="curve" smooth="yes"/>
      <point x="1134" y="1500" type="line" smooth="yes"/>
      <point x="1134" y="1511"/>
      <point x="1129" y="1515"/>
      <point x="1115" y="1515" type="curve" smooth="yes"/>
      <point x="1101" y="1515"/>
      <point x="1096" y="1511"/>
      <point x="1096" y="1500" type="curve" smooth="yes"/>
      <point x="1096" y="68" type="line"/>
      <point x="280" y="1506" type="line" smooth="yes"/>
      <point x="276" y="1513"/>
      <point x="271" y="1515"/>
      <point x="259" y="1515" type="curve" smooth="yes"/>
      <point x="248" y="1515"/>
      <point x="241" y="1511"/>
      <point x="241" y="1500" type="curve" smooth="yes"/>
      <point x="241" y="1" type="line" smooth="yes"/>
      <point x="241" y="-10"/>
      <point x="246" y="-14"/>
    </contour>
  </outline>
</glyph>
<glyph name="Q" format="2">
  <advance width="1434"/>
  <unicode hex="0051"/>
  <anchor x="718" y="0" name="bottom"/>
  <anchor x="718" y="744" name="center"/>
  <anchor x="916" y="11" name="ogonek"/>
  <anchor x="718" y="1424" name="top"/>
  <anchor x="1005" y="1424" name="topright"/>
  <outline>
    <contour>
      <point x="1071" y="-257" type="curve" smooth="yes"/>
      <point x="1080" y="-251"/>
      <point x="1083" y="-245"/>
      <point x="1076" y="-235" type="curve" smooth="yes"/>
      <point x="755" y="263" type="line" smooth="yes"/>
      <point x="749" y="271"/>
      <point x="743" y="270"/>
      <point x="733" y="264" type="curve" smooth="yes"/>
      <point x="720" y="256"/>
      <point x="719" y="250"/>
      <point x="725" y="240" type="curve" smooth="yes"/>
      <point x="1048" y="-257" type="line" smooth="yes"/>
      <point x="1053" y="-265"/>
      <point x="1060" y="-265"/>
    </contour>
    <component base="O"/>
  </outline>
</glyph>
<glyph name="R" format="2">
  <advance width="1075"/>
  <unicode hex="0052"/>
  <anchor x="596" y="0" name="bottom"/>
  <anchor x="539" y="1424" name="top"/>
  <outline>
    <contour>
      <point x="261" y="-14" type="curve" smooth="yes"/>
      <point x="278" y="-14"/>
      <point x="279" y="-9"/>
      <point x="279" y="6" type="curve" smooth="yes"/>
      <point x="279" y="701" type="line"/>
      <point x="485" y="451"/>
      <point x="716" y="181"/>
      <point x="949" y="-7" type="curve" smooth="yes"/>
      <point x="958" y="-15"/>
      <point x="964" y="-17"/>
      <point x="974" y="-7" type="curve" smooth="yes"/>
      <point x="984" y="3"/>
      <point x="986" y="9"/>
      <point x="978" y="16" type="curve" smooth="yes"/>
      <point x="743" y="215"/>
      <point x="511" y="468"/>
      <point x="321" y="704" type="curve"/>
      <point x="565" y="726"/>
      <point x="951" y="781"/>
      <point x="951" y="1161" type="curve" smooth="yes"/>
      <point x="951" y="1386"/>
      <point x="803" y="1488"/>
      <point x="518" y="1488" type="curve" smooth="yes"/>
      <point x="261" y="1488" type="line" smooth="yes"/>
      <point x="248" y="1488"/>
      <point x="241" y="1484"/>
      <point x="241" y="1473" type="curve" smooth="yes"/>
      <point x="241" y="6" type="line" smooth="yes"/>
      <point x="241" y="-9"/>
      <point x="245" y="-14"/>
    </contour>
    <contour>
      <point x="279" y="735" type="curve"/>
      <point x="279" y="1453" type="line"/>
      <point x="511" y="1453" type="line" smooth="yes"/>
      <point x="781" y="1453"/>
      <point x="911" y="1361"/>
      <point x="911" y="1161" type="curve" smooth="yes"/>
      <point x="911" y="811"/>
      <point x="530" y="748"/>
    </contour>
  </outline>
</glyph>
<glyph name="U" format="2">
  <advance width="1337"/>
  <unicode hex="0055"/>
  <anchor x="669" y="0" name="bottom"/>
  <anchor x="910" y="21" name="ogonek"/>
  <anchor x="669" y="1424" name="top"/>
  <anchor x="1096" y="1509" name="topright"/>
  <outline>
    <contour>
      <point x="670" y="-19" type="curve" smooth="yes"/>
      <point x="968" y="-19"/>
      <point x="1119" y="135"/>
      <point x="1119" y="443" type="curve" smooth="yes"/>
      <point x="1119" y="1500" type="line" smooth="yes"/>
      <point x="1119" y="1511"/>
      <point x="1114" y="1515"/>
      <point x="1100" y="1515" type="curve" smooth="yes"/>
      <point x="1086" y="1515"/>
      <point x="1081" y="1511"/>
      <point x="1081" y="1500" type="curve" smooth="yes"/>
      <point x="1081" y="440" type="line" smooth="yes"/>
      <point x="1081" y="156"/>
      <point x="943" y="19"/>
      <point x="670" y="19" type="curve" smooth="yes"/>
      <point x="396" y="19"/>
      <point x="255" y="156"/>
      <point x="255" y="440" type="curve" smooth="yes"/>
      <point x="255" y="1500" type="line" smooth="yes"/>
      <point x="255" y="1511"/>
      <point x="250" y="1515"/>
      <point x="236" y="1515" type="curve" smooth="yes"/>
      <point x="223" y="1515"/>
      <point x="218" y="1511"/>
      <point x="218" y="1500" type="curve" smooth="yes"/>
      <point x="218" y="443" type="line" smooth="yes"/>
      <point x="218" y="135"/>
      <point x="371" y="-19"/>
    </contour>
  </outline>
</glyph>
<glyph name="V" format="2">
  <advance width="1124"/>
  <unicode hex="0056"/>
  <outline>
    <contour>
      <point x="563" y="-14" type="curve" smooth="yes"/>
      <point x="576" y="-14"/>
      <point x="581" y="-10"/>
      <point x="585" y="1" type="curve" smooth="yes"/>
      <point x="1065" y="1494" type="line" smooth="yes"/>
      <point x="1069" y="1505"/>
      <point x="1068" y="1510"/>
      <point x="1055" y="1515" type="curve" smooth="yes"/>
      <point x="1041" y="1520"/>
      <point x="1035" y="1516"/>
      <point x="1030" y="1500" type="curve" smooth="yes"/>
      <point x="564" y="43" type="line"/>
      <point x="95" y="1500" type="line" smooth="yes"/>
      <point x="90" y="1516"/>
      <point x="83" y="1520"/>
      <point x="69" y="1515" type="curve" smooth="yes"/>
      <point x="56" y="1510"/>
      <point x="55" y="1505"/>
      <point x="59" y="1494" type="curve" smooth="yes"/>
      <point x="541" y="1" type="line" smooth="yes"/>
      <point x="545" y="-10"/>
      <point x="550" y="-14"/>
    </contour>
  </outline>
</glyph>
<glyph name="Z" format="2">
  <advance width="949"/>
  <unicode hex="005A"/>
  <anchor x="475" y="0" name="bottom"/>
  <anchor x="475" y="786" name="center"/>
  <anchor x="475" y="1424" name="top"/>
  <outline>
    <contour>
      <point x="56" y="0" type="curve" smooth="yes"/>
      <point x="894" y="0" type="line" smooth="yes"/>
      <point x="900" y="0"/>
      <point x="905" y="6"/>
      <point x="905" y="19" type="curve" smooth="yes"/>
      <point x="905" y="31"/>
      <point x="900" y="35"/>
      <point x="894" y="35" type="curve" smooth="yes"/>
      <point x="95" y="35" type="line"/>
      <point x="880" y="1468" type="line" smooth="yes"/>
      <point x="885" y="1478"/>
      <point x="883" y="1488"/>
      <point x="869" y="1488" type="curve" smooth="yes"/>
      <point x="100" y="1488" type="line" smooth="yes"/>
      <point x="94" y="1488"/>
      <point x="89" y="1483"/>
      <point x="89" y="1470" type="curve" smooth="yes"/>
      <point x="89" y="1458"/>
      <point x="94" y="1453"/>
      <point x="100" y="1453" type="curve" smooth="yes"/>
      <point x="830" y="1453" type="line"/>
      <point x="45" y="20" type="line" smooth="yes"/>
      <point x="40" y="10"/>
      <point x="43" y="0"/>
    </contour>
  </outline>
</glyph>
<glyph name="backslash" format="2">
  <advance width="525"/>
  <unicode hex="005C"/>
  <outline>
    <contour>
      <point x="478" y="-75" type="curve" smooth="yes"/>
      <point x="490" y="-71"/>
      <point x="494" y="-66"/>
      <point x="491" y="-56" type="curve" smooth="yes"/>
      <point x="70" y="1565" type="line"/>
      <point x="68" y="1576"/>
      <point x="61" y="1579"/>
      <point x="48" y="1575" type="curve"/>
      <point x="36" y="1571"/>
      <point x="31" y="1566"/>
      <point x="34" y="1556" type="curve" smooth="yes"/>
      <point x="455" y="-65" type="line"/>
      <point x="458" y="-76"/>
      <point x="464" y="-79"/>
    </contour>
  </outline>
</glyph>
<glyph name="bracketright" format="2">
  <advance width="625"/>
  <unicode hex="005D"/>
  <outline>
    <contour>
      <point x="125" y="-57" type="curve" smooth="yes"/>
      <point x="125" y="-70"/>
      <point x="130" y="-75"/>
      <point x="136" y="-75" type="curve" smooth="yes"/>
      <point x="331" y="-75" type="line" smooth="yes"/>
      <point x="345" y="-75"/>
      <point x="350" y="-71"/>
      <point x="350" y="-60" type="curve" smooth="yes"/>
      <point x="350" y="1560" type="line" smooth="yes"/>
      <point x="350" y="1571"/>
      <point x="345" y="1575"/>
      <point x="331" y="1575" type="curve" smooth="yes"/>
      <point x="136" y="1575" type="line" smooth="yes"/>
      <point x="130" y="1575"/>
      <point x="125" y="1570"/>
      <point x="125" y="1558" type="curve" smooth="yes"/>
      <point x="125" y="1545"/>
      <point x="130" y="1540"/>
      <point x="136" y="1540" type="curve" smooth="yes"/>
      <point x="313" y="1540" type="line"/>
      <point x="313" y="-40" type="line"/>
      <point x="136" y="-40" type="line" smooth="yes"/>
      <point x="130" y="-40"/>
      <point x="125" y="-45"/>
    </contour>
  </outline>
</glyph>
<glyph name="d" format="2">
  <advance width="629"/>
  <unicode hex="0064"/>
  <anchor x="278" y="0" name="bottom"/>
  <anchor x="438" y="948" name="center"/>
  <anchor x="278" y="500" name="top"/>
  <anchor x="489" y="1500" name="topright"/>
  <outline>
    <contour>
      <point x="229" y="-17" type="curve" smooth="yes"/>
      <point x="325" y="-17"/>
      <point x="398" y="54"/>
      <point x="443" y="239" type="curve"/>
      <point x="443" y="181"/>
      <point x="443" y="123"/>
      <point x="443" y="65" type="curve" smooth="yes"/>
      <point x="443" y="11"/>
      <point x="464" y="-17"/>
      <point x="506" y="-17" type="curve" smooth="yes"/>
      <point x="548" y="-17"/>
      <point x="593" y="19"/>
      <point x="618" y="89" type="curve" smooth="yes"/>
      <point x="620" y="95"/>
      <point x="618" y="103"/>
      <point x="608" y="106" type="curve" smooth="yes"/>
      <point x="599" y="110"/>
      <point x="590" y="110"/>
      <point x="586" y="100" type="curve" smooth="yes"/>
      <point x="561" y="40"/>
      <point x="540" y="16"/>
      <point x="511" y="16" type="curve" smooth="yes"/>
      <point x="484" y="16"/>
      <point x="479" y="46"/>
      <point x="479" y="89" type="curve" smooth="yes"/>
      <point x="479" y="1500" type="line" smooth="yes"/>
      <point x="479" y="1511"/>
      <point x="474" y="1515"/>
      <point x="461" y="1515" type="curve" smooth="yes"/>
      <point x="449" y="1515"/>
      <point x="443" y="1511"/>
      <point x="443" y="1500" type="curve" smooth="yes"/>
      <point x="443" y="478" type="line"/>
      <point x="395" y="506"/>
      <point x="355" y="519"/>
      <point x="309" y="519" type="curve" smooth="yes"/>
      <point x="150" y="519"/>
      <point x="75" y="398"/>
      <point x="75" y="223" type="curve" smooth="yes"/>
      <point x="75" y="71"/>
      <point x="133" y="-17"/>
    </contour>
    <contour>
      <point x="115" y="224" type="curve" smooth="yes"/>
      <point x="115" y="393"/>
      <point x="185" y="485"/>
      <point x="305" y="485" type="curve" smooth="yes"/>
      <point x="343" y="485"/>
      <point x="390" y="476"/>
      <point x="443" y="440" type="curve"/>
      <point x="443" y="404" type="line"/>
      <point x="413" y="124"/>
      <point x="328" y="18"/>
      <point x="234" y="18" type="curve" smooth="yes"/>
      <point x="148" y="18"/>
      <point x="115" y="115"/>
    </contour>
  </outline>
</glyph>
<glyph name="f" format="2">
  <advance width="366"/>
  <unicode hex="0066"/>
  <outline>
    <contour>
      <point x="89" y="-1019" type="curve" smooth="yes"/>
      <point x="153" y="-1019"/>
      <point x="184" y="-984"/>
      <point x="184" y="-895" type="curve" smooth="yes"/>
      <point x="184" y="468" type="line"/>
      <point x="343" y="468" type="line" smooth="yes"/>
      <point x="349" y="468"/>
      <point x="354" y="474"/>
      <point x="354" y="485" type="curve" smooth="yes"/>
      <point x="354" y="496"/>
      <point x="349" y="500"/>
      <point x="343" y="500" type="curve" smooth="yes"/>
      <point x="184" y="500" type="line"/>
      <point x="184" y="1364" type="line" smooth="yes"/>
      <point x="184" y="1458"/>
      <point x="216" y="1485"/>
      <point x="273" y="1485" type="curve" smooth="yes"/>
      <point x="315" y="1485"/>
      <point x="351" y="1464"/>
      <point x="374" y="1444" type="curve" smooth="yes"/>
      <point x="381" y="1436"/>
      <point x="390" y="1435"/>
      <point x="396" y="1441" type="curve" smooth="yes"/>
      <point x="404" y="1449"/>
      <point x="406" y="1456"/>
      <point x="400" y="1464" type="curve" smooth="yes"/>
      <point x="374" y="1493"/>
      <point x="325" y="1519"/>
      <point x="276" y="1519" type="curve" smooth="yes"/>
      <point x="205" y="1519"/>
      <point x="148" y="1484"/>
      <point x="148" y="1371" type="curve" smooth="yes"/>
      <point x="148" y="500" type="line"/>
      <point x="40" y="500" type="line" smooth="yes"/>
      <point x="34" y="500"/>
      <point x="29" y="495"/>
      <point x="29" y="484" type="curve" smooth="yes"/>
      <point x="29" y="473"/>
      <point x="34" y="468"/>
      <point x="40" y="468" type="curve" smooth="yes"/>
      <point x="148" y="468" type="line"/>
      <point x="148" y="-885" type="line" smooth="yes"/>
      <point x="148" y="-957"/>
      <point x="139" y="-985"/>
      <point x="89" y="-985" type="curve" smooth="yes"/>
      <point x="48" y="-985"/>
      <point x="13" y="-957"/>
      <point x="-6" y="-940" type="curve" smooth="yes"/>
      <point x="-14" y="-932"/>
      <point x="-21" y="-931"/>
      <point x="-30" y="-937" type="curve" smooth="yes"/>
      <point x="-39" y="-944"/>
      <point x="-41" y="-952"/>
      <point x="-35" y="-960" type="curve" smooth="yes"/>
      <point x="-14" y="-986"/>
      <point x="36" y="-1019"/>
    </contour>
  </outline>
</glyph>
<glyph name="g" format="2">
  <advance width="598"/>
  <unicode hex="0067"/>
  <anchor x="296" y="500" name="top"/>
  <outline>
    <contour>
      <point x="309" y="-1019" type="curve" smooth="yes"/>
      <point x="420" y="-1019"/>
      <point x="479" y="-944"/>
      <point x="479" y="-787" type="curve" smooth="yes"/>
      <point x="479" y="500" type="line" smooth="yes"/>
      <point x="479" y="511"/>
      <point x="474" y="515"/>
      <point x="461" y="515" type="curve" smooth="yes"/>
      <point x="449" y="515"/>
      <point x="443" y="511"/>
      <point x="443" y="500" type="curve" smooth="yes"/>
      <point x="443" y="478" type="line"/>
      <point x="396" y="506"/>
      <point x="356" y="519"/>
      <point x="309" y="519" type="curve" smooth="yes"/>
      <point x="150" y="519"/>
      <point x="75" y="398"/>
      <point x="75" y="223" type="curve" smooth="yes"/>
      <point x="75" y="71"/>
      <point x="133" y="-17"/>
      <point x="229" y="-17" type="curve" smooth="yes"/>
      <point x="325" y="-17"/>
      <point x="398" y="54"/>
      <point x="443" y="240" type="curve"/>
      <point x="443" y="-785" type="line" smooth="yes"/>
      <point x="443" y="-924"/>
      <point x="400" y="-984"/>
      <point x="314" y="-984" type="curve" smooth="yes"/>
      <point x="234" y="-984"/>
      <point x="183" y="-952"/>
      <point x="138" y="-910" type="curve"/>
      <point x="130" y="-904"/>
      <point x="123" y="-901"/>
      <point x="114" y="-910" type="curve" smooth="yes"/>
      <point x="105" y="-921"/>
      <point x="104" y="-927"/>
      <point x="113" y="-935" type="curve" smooth="yes"/>
      <point x="164" y="-985"/>
      <point x="220" y="-1019"/>
    </contour>
    <contour>
      <point x="234" y="18" type="curve" smooth="yes"/>
      <point x="148" y="18"/>
      <point x="115" y="115"/>
      <point x="115" y="224" type="curve" smooth="yes"/>
      <point x="115" y="393"/>
      <point x="185" y="485"/>
      <point x="305" y="485" type="curve" smooth="yes"/>
      <point x="343" y="485"/>
      <point x="390" y="476"/>
      <point x="443" y="440" type="curve"/>
      <point x="443" y="404" type="line"/>
      <point x="413" y="124"/>
      <point x="328" y="18"/>
    </contour>
  </outline>
</glyph>
<glyph name="l" format="2">
  <advance width="300"/>
  <unicode hex="006C"/>
  <anchor x="156" y="738" name="CAT"/>
  <anchor x="199" y="0" name="bottom"/>
  <anchor x="131" y="725" name="center"/>
  <anchor x="131" y="1421" name="top"/>
  <anchor x="150" y="1500" name="topright"/>
  <outline>
    <contour>
      <point x="177" y="-17" type="curve" smooth="yes"/>
      <point x="219" y="-17"/>
      <point x="264" y="19"/>
      <point x="289" y="89" type="curve" smooth="yes"/>
      <point x="291" y="95"/>
      <point x="289" y="103"/>
      <point x="279" y="106" type="curve" smooth="yes"/>
      <point x="270" y="110"/>
      <point x="261" y="110"/>
      <point x="257" y="100" type="curve" smooth="yes"/>
      <point x="232" y="40"/>
      <point x="211" y="16"/>
      <point x="182" y="16" type="curve" smooth="yes"/>
      <point x="156" y="16"/>
      <point x="151" y="46"/>
      <point x="151" y="81" type="curve" smooth="yes"/>
      <point x="151" y="1500" type="line" smooth="yes"/>
      <point x="151" y="1511"/>
      <point x="145" y="1515"/>
      <point x="132" y="1515" type="curve" smooth="yes"/>
      <point x="120" y="1515"/>
      <point x="114" y="1511"/>
      <point x="114" y="1500" type="curve" smooth="yes"/>
      <point x="114" y="68" type="line" smooth="yes"/>
      <point x="114" y="11"/>
      <point x="136" y="-17"/>
    </contour>
  </outline>
</glyph>
<glyph name="r" format="2">
  <advance width="454"/>
  <unicode hex="0072"/>
  <anchor x="130" y="0" name="bottom"/>
  <anchor x="261" y="500" name="top"/>
  <outline>
    <contour>
      <point x="130" y="-15" type="curve" smooth="yes"/>
      <point x="143" y="-15"/>
      <point x="149" y="-11"/>
      <point x="149" y="0" type="curve" smooth="yes"/>
      <point x="149" y="48" type="line"/>
      <point x="181" y="395"/>
      <point x="253" y="485"/>
      <point x="335" y="485" type="curve" smooth="yes"/>
      <point x="370" y="485"/>
      <point x="400" y="465"/>
      <point x="415" y="453" type="curve" smooth="yes"/>
      <point x="423" y="446"/>
      <point x="431" y="449"/>
      <point x="438" y="456" type="curve" smooth="yes"/>
      <point x="443" y="463"/>
      <point x="444" y="469"/>
      <point x="439" y="475" type="curve" smooth="yes"/>
      <point x="418" y="501"/>
      <point x="376" y="519"/>
      <point x="339" y="519" type="curve" smooth="yes"/>
      <point x="266" y="519"/>
      <point x="186" y="466"/>
      <point x="149" y="239" type="curve"/>
      <point x="149" y="500" type="line" smooth="yes"/>
      <point x="149" y="511"/>
      <point x="143" y="515"/>
      <point x="130" y="515" type="curve" smooth="yes"/>
      <point x="118" y="515"/>
      <point x="113" y="511"/>
      <point x="113" y="500" type="curve" smooth="yes"/>
      <point x="113" y="0" type="line" smooth="yes"/>
      <point x="113" y="-11"/>
      <point x="118" y="-15"/>
    </contour>
  </outline>
</glyph>
<glyph name="s" format="2">
  <advance width="479"/>
  <unicode hex="0073"/>
  <anchor x="238" y="0" name="bottom"/>
  <anchor x="253" y="500" name="top"/>
  <outline>
    <contour>
      <point x="259" y="-19" type="curve" smooth="yes"/>
      <point x="364" y="-19"/>
      <point x="414" y="55"/>
      <point x="414" y="121" type="curve" smooth="yes"/>
      <point x="414" y="279"/>
      <point x="135" y="254"/>
      <point x="135" y="391" type="curve" smooth="yes"/>
      <point x="135" y="448"/>
      <point x="175" y="485"/>
      <point x="251" y="485" type="curve" smooth="yes"/>
      <point x="303" y="485"/>
      <point x="338" y="465"/>
      <point x="376" y="425" type="curve" smooth="yes"/>
      <point x="384" y="416"/>
      <point x="393" y="416"/>
      <point x="400" y="421" type="curve" smooth="yes"/>
      <point x="409" y="428"/>
      <point x="410" y="436"/>
      <point x="404" y="444" type="curve" smooth="yes"/>
      <point x="378" y="478"/>
      <point x="326" y="519"/>
      <point x="253" y="519" type="curve" smooth="yes"/>
      <point x="158" y="519"/>
      <point x="98" y="464"/>
      <point x="98" y="393" type="curve" smooth="yes"/>
      <point x="98" y="224"/>
      <point x="375" y="253"/>
      <point x="375" y="118" type="curve" smooth="yes"/>
      <point x="375" y="60"/>
      <point x="333" y="14"/>
      <point x="259" y="14" type="curve" smooth="yes"/>
      <point x="183" y="14"/>
      <point x="126" y="53"/>
      <point x="91" y="95" type="curve" smooth="yes"/>
      <point x="84" y="105"/>
      <point x="76" y="105"/>
      <point x="66" y="96" type="curve" smooth="yes"/>
      <point x="55" y="86"/>
      <point x="56" y="79"/>
      <point x="65" y="69" type="curve" smooth="yes"/>
      <point x="91" y="36"/>
      <point x="154" y="-19"/>
    </contour>
  </outline>
</glyph>
<glyph name="y" format="2">
  <advance width="615"/>
  <unicode hex="0079"/>
  <anchor x="609" y="0" name="bottom"/>
  <anchor x="308" y="500" name="top"/>
  <outline>
    <contour>
      <point x="230" y="-17" type="curve" smooth="yes"/>
      <point x="304" y="-17"/>
      <point x="415" y="51"/>
      <point x="460" y="279" type="curve"/>
      <point x="460" y="-785" type="line" smooth="yes"/>
      <point x="460" y="-924"/>
      <point x="418" y="-984"/>
      <point x="331" y="-984" type="curve" smooth="yes"/>
      <point x="251" y="-984"/>
      <point x="200" y="-952"/>
      <point x="155" y="-910" type="curve" smooth="yes"/>
      <point x="148" y="-904"/>
      <point x="140" y="-901"/>
      <point x="131" y="-910" type="curve" smooth="yes"/>
      <point x="123" y="-921"/>
      <point x="121" y="-927"/>
      <point x="130" y="-935" type="curve" smooth="yes"/>
      <point x="181" y="-985"/>
      <point x="238" y="-1019"/>
      <point x="326" y="-1019" type="curve" smooth="yes"/>
      <point x="438" y="-1019"/>
      <point x="496" y="-944"/>
      <point x="496" y="-787" type="curve" smooth="yes"/>
      <point x="496" y="500" type="line" smooth="yes"/>
      <point x="496" y="511"/>
      <point x="491" y="515"/>
      <point x="479" y="515" type="curve" smooth="yes"/>
      <point x="466" y="515"/>
      <point x="460" y="511"/>
      <point x="460" y="500" type="curve" smooth="yes"/>
      <point x="460" y="454" type="line"/>
      <point x="428" y="106"/>
      <point x="315" y="16"/>
      <point x="231" y="16" type="curve" smooth="yes"/>
      <point x="174" y="16"/>
      <point x="153" y="61"/>
      <point x="153" y="155" type="curve" smooth="yes"/>
      <point x="153" y="500" type="line" smooth="yes"/>
      <point x="153" y="511"/>
      <point x="146" y="515"/>
      <point x="134" y="515" type="curve" smooth="yes"/>
      <point x="121" y="515"/>
      <point x="115" y="511"/>
      <point x="115" y="500" type="curve" smooth="yes"/>
      <point x="115" y="145" type="line" smooth="yes"/>
      <point x="115" y="20"/>
      <point x="169" y="-17"/>
    </contour>
  </outline>
</glyph>
<glyph name="copyright" format="2">
  <advance width="1406"/>
  <unicode hex="00A9"/>
  <outline>
    <contour>
      <point x="703" y="126" type="curve" smooth="yes"/>
      <point x="1024" y="126"/>
      <point x="1256" y="381"/>
      <point x="1256" y="734" type="curve" smooth="yes"/>
      <point x="1256" y="1085"/>
      <point x="1024" y="1340"/>
      <point x="703" y="1340" type="curve" smooth="yes"/>
      <point x="383" y="1340"/>
      <point x="150" y="1085"/>
      <point x="150" y="734" type="curve" smooth="yes"/>
      <point x="150" y="381"/>
      <point x="383" y="126"/>
    </contour>
    <contour>
      <point x="703" y="156" type="curve" smooth="yes"/>
      <point x="401" y="156"/>
      <point x="183" y="399"/>
      <point x="183" y="734" type="curve" smooth="yes"/>
      <point x="183" y="1068"/>
      <point x="401" y="1310"/>
      <point x="703" y="1310" type="curve" smooth="yes"/>
      <point x="1005" y="1310"/>
      <point x="1224" y="1068"/>
      <point x="1224" y="733" type="curve" smooth="yes"/>
      <point x="1224" y="399"/>
      <point x="1005" y="156"/>
    </contour>
    <contour>
      <point x="691" y="389" type="curve" smooth="yes"/>
      <point x="779" y="389"/>
      <point x="866" y="451"/>
      <point x="913" y="555" type="curve" smooth="yes"/>
      <point x="915" y="563"/>
      <point x="913" y="568"/>
      <point x="905" y="571" type="curve" smooth="yes"/>
      <point x="896" y="576"/>
      <point x="890" y="574"/>
      <point x="886" y="566" type="curve" smooth="yes"/>
      <point x="844" y="484"/>
      <point x="771" y="424"/>
      <point x="695" y="424" type="curve" smooth="yes"/>
      <point x="585" y="424"/>
      <point x="506" y="550"/>
      <point x="506" y="725" type="curve" smooth="yes"/>
      <point x="506" y="914"/>
      <point x="596" y="1050"/>
      <point x="725" y="1050" type="curve" smooth="yes"/>
      <point x="774" y="1050"/>
      <point x="828" y="1023"/>
      <point x="865" y="980" type="curve" smooth="yes"/>
      <point x="870" y="974"/>
      <point x="876" y="973"/>
      <point x="885" y="980" type="curve" smooth="yes"/>
      <point x="891" y="985"/>
      <point x="895" y="991"/>
      <point x="889" y="999" type="curve" smooth="yes"/>
      <point x="845" y="1051"/>
      <point x="784" y="1084"/>
      <point x="725" y="1084" type="curve" smooth="yes"/>
      <point x="575" y="1084"/>
      <point x="469" y="933"/>
      <point x="469" y="725" type="curve" smooth="yes"/>
      <point x="469" y="530"/>
      <point x="563" y="389"/>
    </contour>
  </outline>
</glyph>
<glyph name="ordmasculine" format="2">
  <advance width="454"/>
  <unicode hex="00BA"/>
  <outline>
    <contour>
      <point x="228" y="1110" type="curve" smooth="yes"/>
      <point x="331" y="1110"/>
      <point x="398" y="1195"/>
      <point x="398" y="1319" type="curve" smooth="yes"/>
      <point x="398" y="1440"/>
      <point x="328" y="1525"/>
      <point x="228" y="1525" type="curve" smooth="yes"/>
      <point x="129" y="1525"/>
      <point x="56" y="1440"/>
      <point x="56" y="1318" type="curve" smooth="yes"/>
      <point x="56" y="1193"/>
      <point x="121" y="1110"/>
    </contour>
    <contour>
      <point x="228" y="1144" type="curve" smooth="yes"/>
      <point x="145" y="1144"/>
      <point x="93" y="1215"/>
      <point x="93" y="1318" type="curve" smooth="yes"/>
      <point x="93" y="1420"/>
      <point x="145" y="1491"/>
      <point x="228" y="1491" type="curve" smooth="yes"/>
      <point x="309" y="1491"/>
      <point x="361" y="1420"/>
      <point x="361" y="1319" type="curve" smooth="yes"/>
      <point x="361" y="1215"/>
      <point x="309" y="1144"/>
    </contour>
  </outline>
</glyph>
<glyph name="OE" format="2">
  <advance width="1975"/>
  <unicode hex="0152"/>
  <anchor x="1090" y="1424" name="top"/>
  <outline>
    <contour>
      <point x="694" y="-19" type="curve" smooth="yes"/>
      <point x="1016" y="-19"/>
      <point x="1228" y="285"/>
      <point x="1228" y="749" type="curve" smooth="yes"/>
      <point x="1228" y="1211"/>
      <point x="1016" y="1515"/>
      <point x="694" y="1515" type="curve" smooth="yes"/>
      <point x="365" y="1515"/>
      <point x="150" y="1211"/>
      <point x="150" y="749" type="curve" smooth="yes"/>
      <point x="150" y="285"/>
      <point x="365" y="-19"/>
    </contour>
    <contour>
      <point x="694" y="19" type="curve" smooth="yes"/>
      <point x="390" y="19"/>
      <point x="191" y="308"/>
      <point x="191" y="749" type="curve" smooth="yes"/>
      <point x="191" y="1189"/>
      <point x="390" y="1478"/>
      <point x="694" y="1478" type="curve" smooth="yes"/>
      <point x="995" y="1478"/>
      <point x="1193" y="1189"/>
      <point x="1193" y="749" type="curve" smooth="yes"/>
      <point x="1193" y="308"/>
      <point x="995" y="19"/>
    </contour>
    <contour>
      <point x="1211" y="0" type="curve" smooth="yes"/>
      <point x="1883" y="0" type="line" smooth="yes"/>
      <point x="1889" y="0"/>
      <point x="1894" y="5"/>
      <point x="1894" y="18" type="curve" smooth="yes"/>
      <point x="1894" y="30"/>
      <point x="1889" y="35"/>
      <point x="1883" y="35" type="curve" smooth="yes"/>
      <point x="1230" y="35" type="line"/>
      <point x="1230" y="769" type="line"/>
      <point x="1785" y="769" type="line" smooth="yes"/>
      <point x="1791" y="769"/>
      <point x="1796" y="774"/>
      <point x="1796" y="786" type="curve" smooth="yes"/>
      <point x="1796" y="799"/>
      <point x="1791" y="804"/>
      <point x="1785" y="804" type="curve" smooth="yes"/>
      <point x="1230" y="804" type="line"/>
      <point x="1230" y="1453" type="line"/>
      <point x="1883" y="1453" type="line" smooth="yes"/>
      <point x="1889" y="1453"/>
      <point x="1894" y="1458"/>
      <point x="1894" y="1470" type="curve" smooth="yes"/>
      <point x="1894" y="1483"/>
      <point x="1889" y="1488"/>
      <point x="1883" y="1488" type="curve" smooth="yes"/>
      <point x="1213" y="1488" type="line" smooth="yes"/>
      <point x="1199" y="1488"/>
      <point x="1193" y="1484"/>
      <point x="1193" y="1473" type="curve" smooth="yes"/>
      <point x="1193" y="15" type="line" smooth="yes"/>
      <point x="1193" y="4"/>
      <point x="1198" y="0"/>
    </contour>
  </outline>
</glyph>
<glyph name="oe" format="2">
  <advance width="901"/>
  <unicode hex="0153"/>
  <anchor x="483" y="500" name="top"/>
  <outline>
    <contour>
      <point x="289" y="-19" type="curve" smooth="yes"/>
      <point x="413" y="-19"/>
      <point x="496" y="90"/>
      <point x="496" y="250" type="curve" smooth="yes"/>
      <point x="496" y="410"/>
      <point x="411" y="519"/>
      <point x="289" y="519" type="curve" smooth="yes"/>
      <point x="165" y="519"/>
      <point x="75" y="410"/>
      <point x="75" y="250" type="curve" smooth="yes"/>
      <point x="75" y="90"/>
      <point x="154" y="-19"/>
    </contour>
    <contour>
      <point x="289" y="16" type="curve" smooth="yes"/>
      <point x="180" y="16"/>
      <point x="114" y="113"/>
      <point x="114" y="250" type="curve" smooth="yes"/>
      <point x="114" y="388"/>
      <point x="180" y="484"/>
      <point x="289" y="484" type="curve" smooth="yes"/>
      <point x="396" y="484"/>
      <point x="463" y="388"/>
      <point x="463" y="250" type="curve" smooth="yes"/>
      <point x="463" y="113"/>
      <point x="396" y="16"/>
    </contour>
    <contour>
      <point x="651" y="-19" type="curve" smooth="yes"/>
      <point x="743" y="-19"/>
      <point x="816" y="65"/>
      <point x="849" y="116" type="curve" smooth="yes"/>
      <point x="855" y="125"/>
      <point x="849" y="133"/>
      <point x="843" y="138" type="curve" smooth="yes"/>
      <point x="835" y="143"/>
      <point x="828" y="145"/>
      <point x="821" y="138" type="curve" smooth="yes"/>
      <point x="791" y="95"/>
      <point x="736" y="15"/>
      <point x="653" y="15" type="curve" smooth="yes"/>
      <point x="575" y="15"/>
      <point x="501" y="76"/>
      <point x="501" y="229" type="curve" smooth="yes"/>
      <point x="501" y="413"/>
      <point x="596" y="485"/>
      <point x="686" y="485" type="curve" smooth="yes"/>
      <point x="756" y="485"/>
      <point x="794" y="454"/>
      <point x="794" y="403" type="curve" smooth="yes"/>
      <point x="794" y="294"/>
      <point x="604" y="231"/>
      <point x="495" y="206" type="curve"/>
      <point x="495" y="173" type="line"/>
      <point x="635" y="200"/>
      <point x="834" y="276"/>
      <point x="834" y="403" type="curve" smooth="yes"/>
      <point x="834" y="456"/>
      <point x="796" y="519"/>
      <point x="690" y="519" type="curve" smooth="yes"/>
      <point x="561" y="519"/>
      <point x="468" y="403"/>
      <point x="468" y="225" type="curve" smooth="yes"/>
      <point x="468" y="88"/>
      <point x="533" y="-19"/>
    </contour>
  </outline>
</glyph>
<glyph name="macroncomb" format="2">
  <unicode hex="0304"/>
  <anchor x="0" y="500" name="_top"/>
  <anchor x="0" y="818" name="top"/>
  <outline>
    <contour>
      <point x="-134" y="716" type="curve" smooth="yes"/>
      <point x="134" y="716" type="line" smooth="yes"/>
      <point x="145" y="716"/>
      <point x="149" y="721"/>
      <point x="149" y="733" type="curve" smooth="yes"/>
      <point x="149" y="745"/>
      <point x="145" y="751"/>
      <point x="134" y="751" type="curve" smooth="yes"/>
      <point x="-134" y="751" type="line" smooth="yes"/>
      <point x="-145" y="751"/>
      <point x="-149" y="745"/>
      <point x="-149" y="733" type="curve" smooth="yes"/>
      <point x="-149" y="721"/>
      <point x="-145" y="716"/>
    </contour>
  </outline>
</glyph>
<glyph name="commaaccentcomb" format="2">
  <unicode hex="0326"/>
  <anchor x="0" y="0" name="_bottom"/>
  <outline>
    <contour>
      <point x="-52" y="-272" type="curve" smooth="yes"/>
      <point x="-40" y="-277"/>
      <point x="-34" y="-271"/>
      <point x="-27" y="-261" type="curve" smooth="yes"/>
      <point x="3" y="-214"/>
      <point x="19" y="-157"/>
      <point x="19" y="-101" type="curve" smooth="yes"/>
      <point x="19" y="-90"/>
      <point x="13" y="-80"/>
      <point x="-2" y="-80" type="curve" smooth="yes"/>
      <point x="-17" y="-80"/>
      <point x="-21" y="-90"/>
      <point x="-21" y="-101" type="curve" smooth="yes"/>
      <point x="-21" y="-176"/>
      <point x="-31" y="-200"/>
      <point x="-56" y="-245" type="curve" smooth="yes"/>
      <point x="-65" y="-261"/>
      <point x="-65" y="-267"/>
    </contour>
  </outline>
</glyph>
<glyph name="quoteleft" format="2">
  <advance width="181"/>
  <unicode hex="2018"/>
  <outline>
    <contour>
      <point x="93" y="1235" type="curve" smooth="yes"/>
      <point x="114" y="1235"/>
      <point x="121" y="1246"/>
      <point x="121" y="1260" type="curve" smooth="yes"/>
      <point x="121" y="1339"/>
      <point x="120" y="1398"/>
      <point x="155" y="1485" type="curve" smooth="yes"/>
      <point x="158" y="1493"/>
      <point x="160" y="1498"/>
      <point x="160" y="1503" type="curve" smooth="yes"/>
      <point x="160" y="1511"/>
      <point x="146" y="1519"/>
      <point x="136" y="1519" type="curve" smooth="yes"/>
      <point x="129" y="1519"/>
      <point x="123" y="1513"/>
      <point x="118" y="1505" type="curve" smooth="yes"/>
      <point x="73" y="1431"/>
      <point x="63" y="1311"/>
      <point x="63" y="1263" type="curve" smooth="yes"/>
      <point x="63" y="1249"/>
      <point x="70" y="1235"/>
    </contour>
  </outline>
</glyph>
<glyph name="quoteright" format="2">
  <advance width="206"/>
  <unicode hex="2019"/>
  <outline>
    <contour>
      <point x="116" y="1329" type="curve" smooth="yes"/>
      <point x="97" y="1329"/>
      <point x="90" y="1318"/>
      <point x="90" y="1304" type="curve" smooth="yes"/>
      <point x="90" y="1195"/>
      <point x="84" y="1106"/>
      <point x="49" y="1009" type="curve" smooth="yes"/>
      <point x="46" y="1001"/>
      <point x="44" y="996"/>
      <point x="44" y="991" type="curve" smooth="yes"/>
      <point x="44" y="983"/>
      <point x="55" y="975"/>
      <point x="65" y="975" type="curve" smooth="yes"/>
      <point x="72" y="975"/>
      <point x="78" y="981"/>
      <point x="82" y="989" type="curve" smooth="yes"/>
      <point x="128" y="1073"/>
      <point x="144" y="1223"/>
      <point x="144" y="1301" type="curve" smooth="yes"/>
      <point x="144" y="1315"/>
      <point x="137" y="1329"/>
    </contour>
  </outline>
</glyph>
<glyph name="euro" format="2">
  <advance width="1201"/>
  <unicode hex="20AC"/>
  <outline>
    <contour>
      <point x="665" y="-19" type="curve" smooth="yes"/>
      <point x="864" y="-19"/>
      <point x="996" y="126"/>
      <point x="1113" y="341" type="curve" smooth="yes"/>
      <point x="1120" y="355"/>
      <point x="1121" y="363"/>
      <point x="1109" y="370" type="curve" smooth="yes"/>
      <point x="1096" y="378"/>
      <point x="1090" y="374"/>
      <point x="1083" y="361" type="curve" smooth="yes"/>
      <point x="984" y="189"/>
      <point x="865" y="19"/>
      <point x="665" y="19" type="curve" smooth="yes"/>
      <point x="401" y="19"/>
      <point x="191" y="283"/>
      <point x="191" y="726" type="curve" smooth="yes"/>
      <point x="191" y="1170"/>
      <point x="411" y="1478"/>
      <point x="719" y="1478" type="curve" smooth="yes"/>
      <point x="838" y="1478"/>
      <point x="940" y="1430"/>
      <point x="1033" y="1324" type="curve" smooth="yes"/>
      <point x="1043" y="1313"/>
      <point x="1051" y="1311"/>
      <point x="1060" y="1318" type="curve" smooth="yes"/>
      <point x="1071" y="1326"/>
      <point x="1071" y="1334"/>
      <point x="1061" y="1345" type="curve" smooth="yes"/>
      <point x="975" y="1449"/>
      <point x="866" y="1515"/>
      <point x="724" y="1515" type="curve" smooth="yes"/>
      <point x="395" y="1515"/>
      <point x="150" y="1201"/>
      <point x="150" y="726" type="curve" smooth="yes"/>
      <point x="150" y="250"/>
      <point x="380" y="-19"/>
    </contour>
    <contour>
      <point x="11" y="816" type="curve" smooth="yes"/>
      <point x="876" y="816" type="line" smooth="yes"/>
      <point x="883" y="816"/>
      <point x="888" y="823"/>
      <point x="888" y="835" type="curve" smooth="yes"/>
      <point x="888" y="848"/>
      <point x="883" y="851"/>
      <point x="876" y="851" type="curve" smooth="yes"/>
      <point x="11" y="851" type="line" smooth="yes"/>
      <point x="5" y="851"/>
      <point x="0" y="846"/>
      <point x="0" y="834" type="curve" smooth="yes"/>
      <point x="0" y="821"/>
      <point x="5" y="816"/>
    </contour>
    <contour>
      <point x="11" y="636" type="curve" smooth="yes"/>
      <point x="876" y="636" type="line" smooth="yes"/>
      <point x="883" y="636"/>
      <point x="888" y="643"/>
      <point x="888" y="655" type="curve" smooth="yes"/>
      <point x="888" y="668"/>
      <point x="883" y="671"/>
      <point x="876" y="671" type="curve" smooth="yes"/>
      <point x="11" y="671" type="line" smooth="yes"/>
      <point x="5" y="671"/>
      <point x="0" y="666"/>
      <point x="0" y="654" type="curve" smooth="yes"/>
      <point x="0" y="641"/>
      <point x="5" y="636"/>
    </contour>
  </outline>
</glyph>
<glyph name="A.cur.ini" format="2">
  <advance width="1439"/>
  <anchor x="549" y="0" name="bottom"/>
  <anchor x="1440" y="0" name="cnct"/>
  <anchor x="1366" y="21" name="ogonek"/>
  <anchor x="711" y="1424" name="top"/>
  <outline>
    <contour>
      <point x="546" y="-17" type="curve" smooth="yes"/>
      <point x="801" y="-17"/>
      <point x="1030" y="294"/>
      <point x="1114" y="739" type="curve"/>
      <point x="1114" y="444" type="line" smooth="yes"/>
      <point x="1114" y="201"/>
      <point x="1169" y="-17"/>
      <point x="1335" y="-17" type="curve" smooth="yes"/>
      <point x="1360" y="-17"/>
      <point x="1360" y="18"/>
      <point x="1335" y="18" type="curve" smooth="yes"/>
      <point x="1198" y="18"/>
      <point x="1151" y="228"/>
      <point x="1151" y="444" type="curve" smooth="yes"/>
      <point x="1151" y="923" type="line" smooth="yes"/>
      <point x="1151" y="934"/>
      <point x="1145" y="938"/>
      <point x="1133" y="938" type="curve" smooth="yes"/>
      <point x="1119" y="938"/>
      <point x="1114" y="934"/>
      <point x="1114" y="923" type="curve"/>
      <point x="1046" y="400"/>
      <point x="811" y="20"/>
      <point x="554" y="20" type="curve" smooth="yes"/>
      <point x="308" y="20"/>
      <point x="176" y="243"/>
      <point x="176" y="665" type="curve" smooth="yes"/>
      <point x="176" y="1156"/>
      <point x="388" y="1478"/>
      <point x="711" y="1478" type="curve" smooth="yes"/>
      <point x="890" y="1478"/>
      <point x="1026" y="1408"/>
      <point x="1136" y="1260" type="curve" smooth="yes"/>
      <point x="1145" y="1249"/>
      <point x="1154" y="1244"/>
      <point x="1164" y="1251" type="curve" smooth="yes"/>
      <point x="1174" y="1259"/>
      <point x="1176" y="1268"/>
      <point x="1168" y="1280" type="curve" smooth="yes"/>
      <point x="1045" y="1445"/>
      <point x="909" y="1515"/>
      <point x="711" y="1515" type="curve" smooth="yes"/>
      <point x="363" y="1515"/>
      <point x="135" y="1179"/>
      <point x="135" y="665" type="curve" smooth="yes"/>
      <point x="135" y="219"/>
      <point x="278" y="-17"/>
    </contour>
  </outline>
</glyph>
<glyph name="A.cur_locl" format="2">
  <advance width="1518"/>
  <anchor x="549" y="0" name="bottom"/>
  <anchor x="1366" y="21" name="ogonek"/>
  <anchor x="711" y="1424" name="top"/>
  <outline>
    <contour>
      <point x="546" y="-17" type="curve" smooth="yes"/>
      <point x="801" y="-17"/>
      <point x="1030" y="295"/>
      <point x="1114" y="739" type="curve"/>
      <point x="1114" y="200" type="line" smooth="yes"/>
      <point x="1114" y="41"/>
      <point x="1163" y="-19"/>
      <point x="1244" y="-19" type="curve" smooth="yes"/>
      <point x="1338" y="-19"/>
      <point x="1426" y="70"/>
      <point x="1483" y="220" type="curve" smooth="yes"/>
      <point x="1486" y="230"/>
      <point x="1483" y="236"/>
      <point x="1471" y="240" type="curve" smooth="yes"/>
      <point x="1459" y="244"/>
      <point x="1454" y="244"/>
      <point x="1450" y="234" type="curve" smooth="yes"/>
      <point x="1400" y="98"/>
      <point x="1326" y="18"/>
      <point x="1253" y="18" type="curve" smooth="yes"/>
      <point x="1186" y="18"/>
      <point x="1151" y="60"/>
      <point x="1151" y="200" type="curve" smooth="yes"/>
      <point x="1151" y="1500" type="line" smooth="yes"/>
      <point x="1151" y="1511"/>
      <point x="1145" y="1515"/>
      <point x="1133" y="1515" type="curve" smooth="yes"/>
      <point x="1119" y="1515"/>
      <point x="1114" y="1511"/>
      <point x="1114" y="1500" type="curve" smooth="yes"/>
      <point x="1114" y="1340" type="line"/>
      <point x="994" y="1463"/>
      <point x="863" y="1515"/>
      <point x="711" y="1515" type="curve" smooth="yes"/>
      <point x="363" y="1515"/>
      <point x="135" y="1179"/>
      <point x="135" y="665" type="curve" smooth="yes"/>
      <point x="135" y="220"/>
      <point x="278" y="-17"/>
    </contour>
    <contour>
      <point x="176" y="665" type="curve" smooth="yes"/>
      <point x="176" y="1156"/>
      <point x="388" y="1478"/>
      <point x="711" y="1478" type="curve" smooth="yes"/>
      <point x="869" y="1478"/>
      <point x="1000" y="1421"/>
      <point x="1114" y="1288" type="curve"/>
      <point x="1114" y="923" type="line"/>
      <point x="1046" y="401"/>
      <point x="811" y="20"/>
      <point x="554" y="20" type="curve" smooth="yes"/>
      <point x="308" y="20"/>
      <point x="176" y="244"/>
    </contour>
  </outline>
</glyph>
<glyph name="A.dec" format="2">
  <advance width="1453"/>
  <anchor x="776" y="0" name="bottom"/>
  <anchor x="1284" y="0" name="ogonek"/>
  <anchor x="863" y="1424" name="top"/>
  <outline>
    <contour>
      <point x="240" y="-17" type="curve" smooth="yes"/>
      <point x="493" y="-17"/>
      <point x="694" y="484"/>
      <point x="864" y="1435" type="curve"/>
      <point x="950" y="972"/>
      <point x="1077" y="500"/>
      <point x="1246" y="-4" type="curve" smooth="yes"/>
      <point x="1251" y="-20"/>
      <point x="1259" y="-21"/>
      <point x="1271" y="-16" type="curve" smooth="yes"/>
      <point x="1284" y="-11"/>
      <point x="1288" y="-6"/>
      <point x="1283" y="9" type="curve" smooth="yes"/>
      <point x="1106" y="536"/>
      <point x="983" y="998"/>
      <point x="891" y="1493" type="curve" smooth="yes"/>
      <point x="889" y="1508"/>
      <point x="881" y="1515"/>
      <point x="866" y="1515" type="curve" smooth="yes"/>
      <point x="851" y="1515"/>
      <point x="843" y="1506"/>
      <point x="840" y="1493" type="curve" smooth="yes"/>
      <point x="663" y="516"/>
      <point x="458" y="20"/>
      <point x="241" y="20" type="curve" smooth="yes"/>
      <point x="195" y="20"/>
      <point x="153" y="41"/>
      <point x="105" y="91" type="curve" smooth="yes"/>
      <point x="98" y="99"/>
      <point x="89" y="98"/>
      <point x="80" y="88" type="curve" smooth="yes"/>
      <point x="73" y="79"/>
      <point x="73" y="70"/>
      <point x="80" y="63" type="curve" smooth="yes"/>
      <point x="136" y="6"/>
      <point x="184" y="-17"/>
    </contour>
    <contour>
      <point x="1203" y="126" type="curve"/>
      <point x="1234" y="145" type="line"/>
      <point x="1123" y="459"/>
      <point x="919" y="619"/>
      <point x="633" y="619" type="curve" smooth="yes"/>
      <point x="489" y="619"/>
      <point x="380" y="548"/>
      <point x="380" y="458" type="curve" smooth="yes"/>
      <point x="380" y="340"/>
      <point x="501" y="276"/>
      <point x="683" y="276" type="curve" smooth="yes"/>
      <point x="916" y="276"/>
      <point x="1105" y="324"/>
      <point x="1324" y="435" type="curve" smooth="yes"/>
      <point x="1333" y="440"/>
      <point x="1335" y="448"/>
      <point x="1330" y="458" type="curve" smooth="yes"/>
      <point x="1324" y="470"/>
      <point x="1316" y="471"/>
      <point x="1308" y="466" type="curve" smooth="yes"/>
      <point x="1096" y="358"/>
      <point x="911" y="311"/>
      <point x="683" y="311" type="curve" smooth="yes"/>
      <point x="549" y="311"/>
      <point x="421" y="358"/>
      <point x="421" y="458" type="curve" smooth="yes"/>
      <point x="421" y="530"/>
      <point x="508" y="584"/>
      <point x="631" y="584" type="curve" smooth="yes"/>
      <point x="900" y="584"/>
      <point x="1088" y="446"/>
    </contour>
  </outline>
</glyph>
<glyph name="A.dec_locl" format="2">
  <advance width="1603"/>
  <anchor x="776" y="0" name="bottom"/>
  <anchor x="1423" y="0" name="ogonek"/>
  <anchor x="863" y="1424" name="top"/>
  <outline>
    <contour>
      <point x="240" y="-17" type="curve" smooth="yes"/>
      <point x="388" y="-17"/>
      <point x="518" y="155"/>
      <point x="635" y="488" type="curve"/>
      <point x="1086" y="488" type="line"/>
      <point x="1111" y="401"/>
      <point x="1139" y="312"/>
      <point x="1169" y="219" type="curve" smooth="yes"/>
      <point x="1220" y="63"/>
      <point x="1279" y="-17"/>
      <point x="1354" y="-17" type="curve" smooth="yes"/>
      <point x="1470" y="-17"/>
      <point x="1543" y="105"/>
      <point x="1601" y="395" type="curve"/>
      <point x="1604" y="405"/>
      <point x="1599" y="411"/>
      <point x="1586" y="414" type="curve" smooth="yes"/>
      <point x="1575" y="416"/>
      <point x="1568" y="413"/>
      <point x="1565" y="403" type="curve"/>
      <point x="1509" y="133"/>
      <point x="1448" y="19"/>
      <point x="1356" y="19" type="curve" smooth="yes"/>
      <point x="1300" y="19"/>
      <point x="1249" y="90"/>
      <point x="1204" y="231" type="curve" smooth="yes"/>
      <point x="1048" y="710"/>
      <point x="965" y="1090"/>
      <point x="891" y="1493" type="curve" smooth="yes"/>
      <point x="889" y="1508"/>
      <point x="881" y="1515"/>
      <point x="866" y="1515" type="curve" smooth="yes"/>
      <point x="851" y="1515"/>
      <point x="843" y="1506"/>
      <point x="840" y="1493" type="curve" smooth="yes"/>
      <point x="663" y="516"/>
      <point x="458" y="20"/>
      <point x="241" y="20" type="curve" smooth="yes"/>
      <point x="195" y="20"/>
      <point x="153" y="41"/>
      <point x="105" y="91" type="curve" smooth="yes"/>
      <point x="98" y="99"/>
      <point x="89" y="98"/>
      <point x="80" y="88" type="curve" smooth="yes"/>
      <point x="73" y="79"/>
      <point x="73" y="70"/>
      <point x="80" y="63" type="curve" smooth="yes"/>
      <point x="136" y="6"/>
      <point x="184" y="-17"/>
    </contour>
    <contour>
      <point x="646" y="520" type="line"/>
      <point x="725" y="752"/>
      <point x="797" y="1058"/>
      <point x="864" y="1435" type="curve"/>
      <point x="918" y="1146"/>
      <point x="981" y="853"/>
      <point x="1077" y="520" type="curve"/>
    </contour>
  </outline>
</glyph>
<glyph name="A.dec_locl.ini" format="2">
  <advance width="1453"/>
  <anchor x="776" y="0" name="bottom"/>
  <anchor x="1453" y="0" name="cnct"/>
  <anchor x="1359" y="0" name="ogonek"/>
  <anchor x="863" y="1424" name="top"/>
  <outline>
    <contour>
      <point x="240" y="-17" type="curve" smooth="yes"/>
      <point x="388" y="-17"/>
      <point x="518" y="155"/>
      <point x="635" y="488" type="curve"/>
      <point x="1086" y="488" type="line"/>
      <point x="1111" y="401"/>
      <point x="1139" y="312"/>
      <point x="1169" y="219" type="curve" smooth="yes"/>
      <point x="1228" y="43"/>
      <point x="1273" y="-17"/>
      <point x="1349" y="-17" type="curve" smooth="yes"/>
      <point x="1374" y="-17"/>
      <point x="1374" y="18"/>
      <point x="1349" y="18" type="curve" smooth="yes"/>
      <point x="1295" y="18"/>
      <point x="1254" y="71"/>
      <point x="1204" y="231" type="curve" smooth="yes"/>
      <point x="1048" y="710"/>
      <point x="965" y="1090"/>
      <point x="891" y="1493" type="curve" smooth="yes"/>
      <point x="889" y="1508"/>
      <point x="881" y="1515"/>
      <point x="866" y="1515" type="curve" smooth="yes"/>
      <point x="851" y="1515"/>
      <point x="843" y="1506"/>
      <point x="840" y="1493" type="curve" smooth="yes"/>
      <point x="663" y="516"/>
      <point x="458" y="20"/>
      <point x="241" y="20" type="curve" smooth="yes"/>
      <point x="195" y="20"/>
      <point x="153" y="41"/>
      <point x="105" y="91" type="curve" smooth="yes"/>
      <point x="98" y="99"/>
      <point x="89" y="98"/>
      <point x="80" y="88" type="curve" smooth="yes"/>
      <point x="73" y="79"/>
      <point x="73" y="70"/>
      <point x="80" y="63" type="curve" smooth="yes"/>
      <point x="136" y="6"/>
      <point x="184" y="-17"/>
    </contour>
    <contour>
      <point x="646" y="520" type="line"/>
      <point x="725" y="752"/>
      <point x="797" y="1058"/>
      <point x="864" y="1435" type="curve"/>
      <point x="918" y="1146"/>
      <point x="981" y="853"/>
      <point x="1077" y="520" type="curve"/>
    </contour>
  </outline>
</glyph>
<glyph name="AE.cur.ini" format="2">
  <advance width="1931"/>
  <anchor x="1931" y="0" name="cnct"/>
  <anchor x="1151" y="1424" name="top"/>
  <outline>
    <contour>
      <point x="223" y="-17" type="curve" smooth="yes"/>
      <point x="364" y="-17"/>
      <point x="498" y="170"/>
      <point x="958" y="1465" type="curve"/>
      <point x="948" y="1463" type="line"/>
      <point x="963" y="1115"/>
      <point x="1016" y="665"/>
      <point x="1080" y="320" type="curve" smooth="yes"/>
      <point x="1085" y="290"/>
      <point x="1091" y="290"/>
      <point x="1106" y="294" type="curve" smooth="yes"/>
      <point x="1121" y="298"/>
      <point x="1121" y="301"/>
      <point x="1116" y="328" type="curve" smooth="yes"/>
      <point x="1055" y="659"/>
      <point x="1003" y="1116"/>
      <point x="984" y="1488" type="curve" smooth="yes"/>
      <point x="983" y="1504"/>
      <point x="973" y="1515"/>
      <point x="956" y="1515" type="curve" smooth="yes"/>
      <point x="944" y="1515"/>
      <point x="935" y="1509"/>
      <point x="930" y="1496" type="curve" smooth="yes"/>
      <point x="463" y="198"/>
      <point x="344" y="20"/>
      <point x="221" y="20" type="curve" smooth="yes"/>
      <point x="180" y="20"/>
      <point x="145" y="36"/>
      <point x="104" y="83" type="curve" smooth="yes"/>
      <point x="95" y="93"/>
      <point x="84" y="93"/>
      <point x="74" y="81" type="curve" smooth="yes"/>
      <point x="66" y="73"/>
      <point x="66" y="63"/>
      <point x="74" y="55" type="curve" smooth="yes"/>
      <point x="128" y="1"/>
      <point x="166" y="-17"/>
    </contour>
    <contour>
      <point x="579" y="500" type="line"/>
      <point x="1068" y="500" type="line"/>
      <point x="1060" y="533" type="line"/>
      <point x="591" y="533" type="line"/>
    </contour>
    <contour>
      <point x="1497" y="-17" type="curve" smooth="yes"/>
      <point x="1517" y="-17"/>
      <point x="1522" y="16"/>
      <point x="1502" y="16" type="curve" smooth="yes"/>
      <point x="1262" y="16"/>
      <point x="1119" y="159"/>
      <point x="1119" y="380" type="curve" smooth="yes"/>
      <point x="1119" y="605"/>
      <point x="1276" y="768"/>
      <point x="1493" y="768" type="curve" smooth="yes"/>
      <point x="1674" y="768" type="line" smooth="yes"/>
      <point x="1680" y="768"/>
      <point x="1685" y="773"/>
      <point x="1685" y="785" type="curve" smooth="yes"/>
      <point x="1685" y="798"/>
      <point x="1680" y="803"/>
      <point x="1674" y="803" type="curve" smooth="yes"/>
      <point x="1493" y="803" type="line" smooth="yes"/>
      <point x="1299" y="803"/>
      <point x="1165" y="941"/>
      <point x="1165" y="1145" type="curve" smooth="yes"/>
      <point x="1165" y="1338"/>
      <point x="1304" y="1478"/>
      <point x="1495" y="1478" type="curve" smooth="yes"/>
      <point x="1626" y="1478"/>
      <point x="1750" y="1413"/>
      <point x="1828" y="1301" type="curve" smooth="yes"/>
      <point x="1835" y="1291"/>
      <point x="1844" y="1290"/>
      <point x="1855" y="1300" type="curve" smooth="yes"/>
      <point x="1861" y="1306"/>
      <point x="1861" y="1315"/>
      <point x="1853" y="1328" type="curve" smooth="yes"/>
      <point x="1771" y="1445"/>
      <point x="1638" y="1515"/>
      <point x="1494" y="1515" type="curve" smooth="yes"/>
      <point x="1279" y="1515"/>
      <point x="1124" y="1359"/>
      <point x="1124" y="1144" type="curve" smooth="yes"/>
      <point x="1124" y="970"/>
      <point x="1219" y="829"/>
      <point x="1364" y="786" type="curve"/>
      <point x="1198" y="743"/>
      <point x="1078" y="571"/>
      <point x="1078" y="380" type="curve" smooth="yes"/>
      <point x="1078" y="140"/>
      <point x="1228" y="-17"/>
    </contour>
  </outline>
</glyph>
<glyph name="B.cur" format="2">
  <advance width="1385"/>
  <anchor x="761" y="0" name="bottom"/>
  <anchor x="463" y="438" name="center"/>
  <anchor x="761" y="1424" name="top"/>
  <outline>
    <contour>
      <point x="840" y="-19" type="curve" smooth="yes"/>
      <point x="1083" y="-19"/>
      <point x="1258" y="169"/>
      <point x="1258" y="434" type="curve" smooth="yes"/>
      <point x="1258" y="650"/>
      <point x="1096" y="793"/>
      <point x="894" y="818" type="curve"/>
      <point x="894" y="820" type="line"/>
      <point x="1065" y="861"/>
      <point x="1178" y="1009"/>
      <point x="1178" y="1191" type="curve" smooth="yes"/>
      <point x="1178" y="1388"/>
      <point x="1006" y="1515"/>
      <point x="720" y="1515" type="curve" smooth="yes"/>
      <point x="498" y="1515"/>
      <point x="264" y="1455"/>
      <point x="85" y="1329" type="curve" smooth="yes"/>
      <point x="79" y="1324"/>
      <point x="74" y="1318"/>
      <point x="79" y="1308" type="curve" smooth="yes"/>
      <point x="85" y="1295"/>
      <point x="95" y="1291"/>
      <point x="104" y="1296" type="curve" smooth="yes"/>
      <point x="274" y="1419"/>
      <point x="501" y="1478"/>
      <point x="720" y="1478" type="curve" smooth="yes"/>
      <point x="981" y="1478"/>
      <point x="1136" y="1364"/>
      <point x="1136" y="1190" type="curve" smooth="yes"/>
      <point x="1136" y="1005"/>
      <point x="1013" y="865"/>
      <point x="825" y="836" type="curve"/>
      <point x="803" y="846"/>
      <point x="778" y="849"/>
      <point x="751" y="849" type="curve" smooth="yes"/>
      <point x="716" y="849"/>
      <point x="684" y="833"/>
      <point x="684" y="803" type="curve" smooth="yes"/>
      <point x="684" y="778"/>
      <point x="706" y="766"/>
      <point x="735" y="766" type="curve" smooth="yes"/>
      <point x="758" y="766"/>
      <point x="795" y="773"/>
      <point x="828" y="790" type="curve"/>
      <point x="1045" y="773"/>
      <point x="1216" y="650"/>
      <point x="1216" y="434" type="curve" smooth="yes"/>
      <point x="1216" y="191"/>
      <point x="1059" y="19"/>
      <point x="840" y="19" type="curve" smooth="yes"/>
      <point x="739" y="19"/>
      <point x="649" y="70"/>
      <point x="598" y="156" type="curve" smooth="yes"/>
      <point x="591" y="168"/>
      <point x="584" y="171"/>
      <point x="571" y="163" type="curve" smooth="yes"/>
      <point x="561" y="156"/>
      <point x="561" y="145"/>
      <point x="568" y="135" type="curve" smooth="yes"/>
      <point x="625" y="39"/>
      <point x="726" y="-19"/>
    </contour>
    <contour>
      <point x="324" y="-19" type="curve" smooth="yes"/>
      <point x="424" y="-19"/>
      <point x="483" y="65"/>
      <point x="483" y="206" type="curve" smooth="yes"/>
      <point x="483" y="1290" type="line" smooth="yes"/>
      <point x="483" y="1301"/>
      <point x="476" y="1305"/>
      <point x="464" y="1305" type="curve" smooth="yes"/>
      <point x="450" y="1305"/>
      <point x="445" y="1301"/>
      <point x="445" y="1290" type="curve" smooth="yes"/>
      <point x="445" y="206" type="line" smooth="yes"/>
      <point x="445" y="88"/>
      <point x="408" y="18"/>
      <point x="324" y="18" type="curve" smooth="yes"/>
      <point x="233" y="18"/>
      <point x="161" y="88"/>
      <point x="106" y="235" type="curve" smooth="yes"/>
      <point x="103" y="244"/>
      <point x="94" y="246"/>
      <point x="83" y="240" type="curve" smooth="yes"/>
      <point x="73" y="235"/>
      <point x="70" y="226"/>
      <point x="74" y="218" type="curve" smooth="yes"/>
      <point x="133" y="58"/>
      <point x="213" y="-19"/>
    </contour>
  </outline>
</glyph>
<glyph name="C.cur.ini" format="2">
  <advance width="1160"/>
  <anchor x="683" y="0" name="bottom"/>
  <anchor x="1160" y="0" name="cnct"/>
  <anchor x="708" y="1424" name="top"/>
  <outline>
    <contour>
      <point x="725" y="-17" type="curve" smooth="yes"/>
      <point x="745" y="-17"/>
      <point x="750" y="16"/>
      <point x="730" y="16" type="curve" smooth="yes"/>
      <point x="395" y="16"/>
      <point x="191" y="286"/>
      <point x="191" y="728" type="curve" smooth="yes"/>
      <point x="191" y="1170"/>
      <point x="409" y="1478"/>
      <point x="719" y="1478" type="curve" smooth="yes"/>
      <point x="838" y="1478"/>
      <point x="945" y="1430"/>
      <point x="1026" y="1335" type="curve" smooth="yes"/>
      <point x="1041" y="1318"/>
      <point x="1050" y="1309"/>
      <point x="1063" y="1318" type="curve" smooth="yes"/>
      <point x="1075" y="1328"/>
      <point x="1071" y="1339"/>
      <point x="1056" y="1356" type="curve" smooth="yes"/>
      <point x="976" y="1453"/>
      <point x="866" y="1515"/>
      <point x="724" y="1515" type="curve" smooth="yes"/>
      <point x="395" y="1515"/>
      <point x="150" y="1200"/>
      <point x="150" y="728" type="curve" smooth="yes"/>
      <point x="150" y="265"/>
      <point x="368" y="-17"/>
    </contour>
  </outline>
</glyph>
<glyph name="D.cur" format="2">
  <advance width="1547"/>
  <guideline y="-14"/>
  <anchor x="814" y="0" name="bottom"/>
  <anchor x="560" y="744" name="center"/>
  <anchor x="831" y="1424" name="top"/>
  <outline>
    <contour>
      <point x="840" y="-19" type="curve" smooth="yes"/>
      <point x="1161" y="-19"/>
      <point x="1390" y="308"/>
      <point x="1390" y="758" type="curve" smooth="yes"/>
      <point x="1390" y="1234"/>
      <point x="1150" y="1515"/>
      <point x="733" y="1515" type="curve" smooth="yes"/>
      <point x="498" y="1515"/>
      <point x="264" y="1455"/>
      <point x="85" y="1329" type="curve" smooth="yes"/>
      <point x="79" y="1324"/>
      <point x="74" y="1318"/>
      <point x="79" y="1308" type="curve" smooth="yes"/>
      <point x="85" y="1295"/>
      <point x="95" y="1290"/>
      <point x="104" y="1296" type="curve" smooth="yes"/>
      <point x="274" y="1419"/>
      <point x="501" y="1478"/>
      <point x="733" y="1478" type="curve" smooth="yes"/>
      <point x="1125" y="1478"/>
      <point x="1349" y="1210"/>
      <point x="1349" y="756" type="curve" smooth="yes"/>
      <point x="1349" y="329"/>
      <point x="1135" y="19"/>
      <point x="840" y="19" type="curve" smooth="yes"/>
      <point x="739" y="19"/>
      <point x="649" y="70"/>
      <point x="598" y="156" type="curve" smooth="yes"/>
      <point x="591" y="168"/>
      <point x="584" y="171"/>
      <point x="571" y="163" type="curve" smooth="yes"/>
      <point x="561" y="156"/>
      <point x="561" y="145"/>
      <point x="568" y="135" type="curve" smooth="yes"/>
      <point x="625" y="39"/>
      <point x="726" y="-19"/>
    </contour>
    <contour>
      <point x="324" y="-19" type="curve" smooth="yes"/>
      <point x="424" y="-19"/>
      <point x="483" y="65"/>
      <point x="483" y="206" type="curve" smooth="yes"/>
      <point x="483" y="1290" type="line" smooth="yes"/>
      <point x="483" y="1301"/>
      <point x="476" y="1305"/>
      <point x="464" y="1305" type="curve" smooth="yes"/>
      <point x="450" y="1305"/>
      <point x="445" y="1301"/>
      <point x="445" y="1290" type="curve" smooth="yes"/>
      <point x="445" y="206" type="line" smooth="yes"/>
      <point x="445" y="88"/>
      <point x="408" y="18"/>
      <point x="324" y="18" type="curve" smooth="yes"/>
      <point x="233" y="18"/>
      <point x="161" y="88"/>
      <point x="106" y="235" type="curve" smooth="yes"/>
      <point x="103" y="244"/>
      <point x="94" y="246"/>
      <point x="83" y="240" type="curve" smooth="yes"/>
      <point x="73" y="235"/>
      <point x="70" y="226"/>
      <point x="74" y="218" type="curve" smooth="yes"/>
      <point x="133" y="58"/>
      <point x="213" y="-19"/>
    </contour>
  </outline>
</glyph>
<glyph name="D.dec" format="2">
  <advance width="1574"/>
  <anchor x="815" y="-21" name="bottom"/>
  <anchor x="561" y="723" name="center"/>
  <anchor x="833" y="1403" name="top"/>
  <outline>
    <contour>
      <point x="331" y="-21" type="curve" smooth="yes"/>
      <point x="440" y="-21"/>
      <point x="506" y="66"/>
      <point x="506" y="234" type="curve" smooth="yes"/>
      <point x="506" y="1246" type="line" smooth="yes"/>
      <point x="506" y="1258"/>
      <point x="500" y="1261"/>
      <point x="488" y="1261" type="curve" smooth="yes"/>
      <point x="474" y="1261"/>
      <point x="469" y="1258"/>
      <point x="469" y="1246" type="curve" smooth="yes"/>
      <point x="469" y="234" type="line" smooth="yes"/>
      <point x="469" y="99"/>
      <point x="431" y="16"/>
      <point x="331" y="16" type="curve" smooth="yes"/>
      <point x="266" y="16"/>
      <point x="219" y="58"/>
      <point x="219" y="115" type="curve" smooth="yes"/>
      <point x="219" y="156"/>
      <point x="249" y="186"/>
      <point x="290" y="186" type="curve" smooth="yes"/>
      <point x="423" y="186"/>
      <point x="631" y="-11"/>
      <point x="876" y="-11" type="curve" smooth="yes"/>
      <point x="1134" y="-11"/>
      <point x="1418" y="290"/>
      <point x="1418" y="738" type="curve" smooth="yes"/>
      <point x="1418" y="1223"/>
      <point x="1150" y="1515"/>
      <point x="736" y="1515" type="curve" smooth="yes"/>
      <point x="490" y="1515"/>
      <point x="188" y="1404"/>
      <point x="134" y="1080" type="curve" smooth="yes"/>
      <point x="133" y="1069"/>
      <point x="138" y="1063"/>
      <point x="150" y="1061" type="curve" smooth="yes"/>
      <point x="163" y="1060"/>
      <point x="169" y="1065"/>
      <point x="170" y="1075" type="curve" smooth="yes"/>
      <point x="225" y="1378"/>
      <point x="504" y="1478"/>
      <point x="736" y="1478" type="curve" smooth="yes"/>
      <point x="1118" y="1478"/>
      <point x="1376" y="1210"/>
      <point x="1376" y="738" type="curve" smooth="yes"/>
      <point x="1376" y="316"/>
      <point x="1106" y="26"/>
      <point x="876" y="26" type="curve" smooth="yes"/>
      <point x="643" y="26"/>
      <point x="438" y="224"/>
      <point x="290" y="224" type="curve" smooth="yes"/>
      <point x="225" y="224"/>
      <point x="178" y="178"/>
      <point x="178" y="115" type="curve" smooth="yes"/>
      <point x="178" y="36"/>
      <point x="243" y="-21"/>
    </contour>
  </outline>
</glyph>
<glyph name="E.cur.ini" format="2">
  <advance width="1020"/>
  <anchor x="569" y="0" name="bottom"/>
  <anchor x="1020" y="0" name="cnct"/>
  <anchor x="693" y="0" name="ogonek"/>
  <anchor x="599" y="1424" name="top"/>
  <outline>
    <contour>
      <point x="585" y="-17" type="curve" smooth="yes"/>
      <point x="605" y="-17"/>
      <point x="610" y="16"/>
      <point x="590" y="16" type="curve" smooth="yes"/>
      <point x="353" y="16"/>
      <point x="208" y="154"/>
      <point x="208" y="380" type="curve" smooth="yes"/>
      <point x="208" y="605"/>
      <point x="365" y="768"/>
      <point x="581" y="768" type="curve" smooth="yes"/>
      <point x="763" y="768" type="line" smooth="yes"/>
      <point x="769" y="768"/>
      <point x="774" y="773"/>
      <point x="774" y="785" type="curve" smooth="yes"/>
      <point x="774" y="798"/>
      <point x="769" y="803"/>
      <point x="763" y="803" type="curve" smooth="yes"/>
      <point x="581" y="803" type="line" smooth="yes"/>
      <point x="388" y="803"/>
      <point x="254" y="941"/>
      <point x="254" y="1145" type="curve" smooth="yes"/>
      <point x="254" y="1338"/>
      <point x="393" y="1478"/>
      <point x="584" y="1478" type="curve" smooth="yes"/>
      <point x="715" y="1478"/>
      <point x="839" y="1413"/>
      <point x="916" y="1301" type="curve" smooth="yes"/>
      <point x="924" y="1291"/>
      <point x="933" y="1290"/>
      <point x="944" y="1300" type="curve" smooth="yes"/>
      <point x="950" y="1306"/>
      <point x="950" y="1315"/>
      <point x="941" y="1328" type="curve" smooth="yes"/>
      <point x="860" y="1445"/>
      <point x="726" y="1515"/>
      <point x="583" y="1515" type="curve" smooth="yes"/>
      <point x="368" y="1515"/>
      <point x="213" y="1359"/>
      <point x="213" y="1144" type="curve" smooth="yes"/>
      <point x="213" y="970"/>
      <point x="308" y="829"/>
      <point x="453" y="786" type="curve"/>
      <point x="286" y="743"/>
      <point x="166" y="571"/>
      <point x="166" y="380" type="curve" smooth="yes"/>
      <point x="166" y="133"/>
      <point x="325" y="-17"/>
    </contour>
  </outline>
</glyph>
<glyph name="F.cur" format="2">
  <advance width="1150"/>
  <outline>
    <contour>
      <point x="324" y="-19" type="curve" smooth="yes"/>
      <point x="424" y="-19"/>
      <point x="483" y="65"/>
      <point x="483" y="206" type="curve" smooth="yes"/>
      <point x="483" y="726" type="line"/>
      <point x="998" y="726" type="line" smooth="yes"/>
      <point x="1004" y="726"/>
      <point x="1009" y="731"/>
      <point x="1009" y="744" type="curve" smooth="yes"/>
      <point x="1009" y="756"/>
      <point x="1004" y="761"/>
      <point x="998" y="761" type="curve" smooth="yes"/>
      <point x="483" y="761" type="line"/>
      <point x="483" y="1453" type="line"/>
      <point x="1094" y="1453" type="line" smooth="yes"/>
      <point x="1100" y="1453"/>
      <point x="1105" y="1458"/>
      <point x="1105" y="1470" type="curve" smooth="yes"/>
      <point x="1105" y="1483"/>
      <point x="1100" y="1488"/>
      <point x="1094" y="1488" type="curve" smooth="yes"/>
      <point x="434" y="1488" type="line" smooth="yes"/>
      <point x="285" y="1488"/>
      <point x="164" y="1431"/>
      <point x="76" y="1323" type="curve" smooth="yes"/>
      <point x="69" y="1313"/>
      <point x="69" y="1304"/>
      <point x="79" y="1296" type="curve" smooth="yes"/>
      <point x="88" y="1290"/>
      <point x="96" y="1290"/>
      <point x="105" y="1301" type="curve" smooth="yes"/>
      <point x="190" y="1401"/>
      <point x="301" y="1451"/>
      <point x="434" y="1451" type="curve" smooth="yes"/>
      <point x="445" y="1451" type="line"/>
      <point x="445" y="206" type="line" smooth="yes"/>
      <point x="445" y="88"/>
      <point x="408" y="18"/>
      <point x="324" y="18" type="curve" smooth="yes"/>
      <point x="233" y="18"/>
      <point x="161" y="88"/>
      <point x="106" y="235" type="curve" smooth="yes"/>
      <point x="103" y="244"/>
      <point x="94" y="246"/>
      <point x="83" y="240" type="curve" smooth="yes"/>
      <point x="73" y="235"/>
      <point x="70" y="226"/>
      <point x="74" y="218" type="curve" smooth="yes"/>
      <point x="133" y="58"/>
      <point x="213" y="-19"/>
    </contour>
  </outline>
</glyph>
<glyph name="F.cur_locl" format="2">
  <advance width="1304"/>
  <outline>
    <contour>
      <point x="381" y="-17" type="curve" smooth="yes"/>
      <point x="706" y="-17"/>
      <point x="1000" y="476"/>
      <point x="1000" y="980" type="curve" smooth="yes"/>
      <point x="1000" y="1335"/>
      <point x="868" y="1515"/>
      <point x="606" y="1515" type="curve" smooth="yes"/>
      <point x="458" y="1515"/>
      <point x="305" y="1446"/>
      <point x="151" y="1310" type="curve" smooth="yes"/>
      <point x="141" y="1301"/>
      <point x="140" y="1293"/>
      <point x="148" y="1283" type="curve" smooth="yes"/>
      <point x="155" y="1273"/>
      <point x="164" y="1271"/>
      <point x="173" y="1280" type="curve" smooth="yes"/>
      <point x="315" y="1411"/>
      <point x="461" y="1478"/>
      <point x="606" y="1478" type="curve" smooth="yes"/>
      <point x="843" y="1478"/>
      <point x="963" y="1310"/>
      <point x="963" y="980" type="curve" smooth="yes"/>
      <point x="963" y="499"/>
      <point x="681" y="20"/>
      <point x="381" y="20" type="curve" smooth="yes"/>
      <point x="265" y="20"/>
      <point x="194" y="110"/>
      <point x="194" y="259" type="curve" smooth="yes"/>
      <point x="194" y="645"/>
      <point x="510" y="850"/>
      <point x="1198" y="974" type="curve"/>
      <point x="1198" y="786" type="line" smooth="yes"/>
      <point x="1198" y="776"/>
      <point x="1204" y="771"/>
      <point x="1216" y="771" type="curve" smooth="yes"/>
      <point x="1229" y="771"/>
      <point x="1235" y="776"/>
      <point x="1235" y="786" type="curve" smooth="yes"/>
      <point x="1235" y="993" type="line" smooth="yes"/>
      <point x="1235" y="1013"/>
      <point x="1226" y="1018"/>
      <point x="1210" y="1015" type="curve" smooth="yes"/>
      <point x="488" y="885"/>
      <point x="153" y="668"/>
      <point x="153" y="260" type="curve" smooth="yes"/>
      <point x="153" y="88"/>
      <point x="239" y="-17"/>
    </contour>
  </outline>
</glyph>
<glyph name="G.cur_locl" format="2">
  <advance width="1418"/>
  <anchor x="510" y="0" name="bottom"/>
  <anchor x="698" y="1424" name="top"/>
  <outline>
    <contour>
      <point x="878" y="-1020" type="curve" smooth="yes"/>
      <point x="1021" y="-1020"/>
      <point x="1098" y="-879"/>
      <point x="1098" y="-600" type="curve" smooth="yes"/>
      <point x="1098" y="790" type="line" smooth="yes"/>
      <point x="1098" y="801"/>
      <point x="1091" y="805"/>
      <point x="1079" y="805" type="curve" smooth="yes"/>
      <point x="1065" y="805"/>
      <point x="1060" y="801"/>
      <point x="1060" y="789" type="curve"/>
      <point x="954" y="360"/>
      <point x="718" y="49"/>
      <point x="498" y="49" type="curve" smooth="yes"/>
      <point x="311" y="49"/>
      <point x="198" y="239"/>
      <point x="198" y="550" type="curve" smooth="yes"/>
      <point x="198" y="1013"/>
      <point x="488" y="1478"/>
      <point x="766" y="1478" type="curve" smooth="yes"/>
      <point x="853" y="1478"/>
      <point x="905" y="1423"/>
      <point x="905" y="1333" type="curve" smooth="yes"/>
      <point x="905" y="1084"/>
      <point x="663" y="751"/>
      <point x="85" y="209" type="curve" smooth="yes"/>
      <point x="75" y="200"/>
      <point x="74" y="190"/>
      <point x="83" y="180" type="curve" smooth="yes"/>
      <point x="90" y="171"/>
      <point x="99" y="171"/>
      <point x="108" y="180" type="curve" smooth="yes"/>
      <point x="699" y="733"/>
      <point x="946" y="1073"/>
      <point x="946" y="1333" type="curve" smooth="yes"/>
      <point x="946" y="1446"/>
      <point x="878" y="1515"/>
      <point x="766" y="1515" type="curve" smooth="yes"/>
      <point x="464" y="1515"/>
      <point x="156" y="1035"/>
      <point x="156" y="550" type="curve" smooth="yes"/>
      <point x="156" y="215"/>
      <point x="285" y="11"/>
      <point x="495" y="11" type="curve" smooth="yes"/>
      <point x="726" y="11"/>
      <point x="948" y="288"/>
      <point x="1060" y="668" type="curve"/>
      <point x="1060" y="-600" type="line" smooth="yes"/>
      <point x="1060" y="-855"/>
      <point x="996" y="-985"/>
      <point x="878" y="-985" type="curve" smooth="yes"/>
      <point x="799" y="-985"/>
      <point x="755" y="-920"/>
      <point x="755" y="-814" type="curve" smooth="yes"/>
      <point x="755" y="-535"/>
      <point x="973" y="-230"/>
      <point x="1401" y="90" type="curve" smooth="yes"/>
      <point x="1414" y="99"/>
      <point x="1415" y="108"/>
      <point x="1408" y="118" type="curve" smooth="yes"/>
      <point x="1400" y="128"/>
      <point x="1391" y="128"/>
      <point x="1383" y="121" type="curve" smooth="yes"/>
      <point x="939" y="-210"/>
      <point x="714" y="-525"/>
      <point x="714" y="-814" type="curve" smooth="yes"/>
      <point x="714" y="-942"/>
      <point x="773" y="-1020"/>
    </contour>
  </outline>
</glyph>
<glyph name="G.cur_locl.ini" format="2">
  <advance width="1248"/>
  <anchor x="510" y="0" name="bottom"/>
  <anchor x="1248" y="0" name="cnct"/>
  <anchor x="698" y="1424" name="top"/>
  <outline>
    <contour>
      <point x="878" y="-1020" type="curve" smooth="yes"/>
      <point x="1021" y="-1020"/>
      <point x="1098" y="-879"/>
      <point x="1098" y="-599" type="curve" smooth="yes"/>
      <point x="1098" y="790" type="line" smooth="yes"/>
      <point x="1098" y="801"/>
      <point x="1091" y="805"/>
      <point x="1079" y="805" type="curve" smooth="yes"/>
      <point x="1065" y="805"/>
      <point x="1060" y="801"/>
      <point x="1060" y="789" type="curve"/>
      <point x="954" y="360"/>
      <point x="718" y="49"/>
      <point x="498" y="49" type="curve" smooth="yes"/>
      <point x="311" y="49"/>
      <point x="198" y="239"/>
      <point x="198" y="550" type="curve" smooth="yes"/>
      <point x="198" y="1013"/>
      <point x="488" y="1478"/>
      <point x="766" y="1478" type="curve" smooth="yes"/>
      <point x="853" y="1478"/>
      <point x="905" y="1423"/>
      <point x="905" y="1333" type="curve" smooth="yes"/>
      <point x="905" y="1084"/>
      <point x="663" y="751"/>
      <point x="85" y="209" type="curve" smooth="yes"/>
      <point x="75" y="200"/>
      <point x="74" y="190"/>
      <point x="83" y="180" type="curve" smooth="yes"/>
      <point x="90" y="171"/>
      <point x="99" y="171"/>
      <point x="108" y="180" type="curve" smooth="yes"/>
      <point x="699" y="733"/>
      <point x="946" y="1073"/>
      <point x="946" y="1333" type="curve" smooth="yes"/>
      <point x="946" y="1446"/>
      <point x="878" y="1515"/>
      <point x="766" y="1515" type="curve" smooth="yes"/>
      <point x="464" y="1515"/>
      <point x="156" y="1035"/>
      <point x="156" y="550" type="curve" smooth="yes"/>
      <point x="156" y="215"/>
      <point x="285" y="11"/>
      <point x="495" y="11" type="curve" smooth="yes"/>
      <point x="726" y="11"/>
      <point x="948" y="288"/>
      <point x="1060" y="668" type="curve"/>
      <point x="1060" y="-599" type="line" smooth="yes"/>
      <point x="1060" y="-854"/>
      <point x="996" y="-982"/>
      <point x="878" y="-982" type="curve" smooth="yes"/>
      <point x="799" y="-982"/>
      <point x="755" y="-919"/>
      <point x="755" y="-814" type="curve" smooth="yes"/>
      <point x="755" y="-789"/>
      <point x="714" y="-789"/>
      <point x="714" y="-814" type="curve" smooth="yes"/>
      <point x="714" y="-942"/>
      <point x="773" y="-1020"/>
    </contour>
  </outline>
</glyph>
<glyph name="G.cur_ro" format="2">
  <advance width="1115"/>
  <anchor x="563" y="0" name="bottom"/>
  <anchor x="558" y="1500" name="top"/>
  <outline>
    <contour>
      <point x="532" y="-20" type="curve" smooth="yes"/>
      <point x="784" y="-20"/>
      <point x="942" y="359"/>
      <point x="942" y="882" type="curve" smooth="yes"/>
      <point x="942" y="894"/>
      <point x="940" y="902"/>
      <point x="923" y="902" type="curve" smooth="yes"/>
      <point x="910" y="902"/>
      <point x="903" y="894"/>
      <point x="898" y="888" type="curve" smooth="yes"/>
      <point x="770" y="751"/>
      <point x="616" y="655"/>
      <point x="465" y="655" type="curve" smooth="yes"/>
      <point x="314" y="655"/>
      <point x="236" y="758"/>
      <point x="236" y="927" type="curve" smooth="yes"/>
      <point x="236" y="1158"/>
      <point x="416" y="1480"/>
      <point x="621" y="1480" type="curve" smooth="yes"/>
      <point x="705" y="1480"/>
      <point x="743" y="1426"/>
      <point x="743" y="1350" type="curve" smooth="yes"/>
      <point x="743" y="1183"/>
      <point x="558" y="913"/>
      <point x="329" y="913" type="curve" smooth="yes"/>
      <point x="147" y="913"/>
      <point x="75" y="1099"/>
      <point x="75" y="1466" type="curve" smooth="yes"/>
      <point x="75" y="1477"/>
      <point x="70" y="1481"/>
      <point x="57" y="1481" type="curve" smooth="yes"/>
      <point x="46" y="1481"/>
      <point x="39" y="1477"/>
      <point x="39" y="1466" type="curve" smooth="yes"/>
      <point x="39" y="1074"/>
      <point x="123" y="875"/>
      <point x="329" y="875" type="curve" smooth="yes"/>
      <point x="584" y="875"/>
      <point x="783" y="1161"/>
      <point x="783" y="1352" type="curve" smooth="yes"/>
      <point x="783" y="1447"/>
      <point x="734" y="1518"/>
      <point x="622" y="1518" type="curve" smooth="yes"/>
      <point x="392" y="1518"/>
      <point x="196" y="1184"/>
      <point x="196" y="927" type="curve" smooth="yes"/>
      <point x="196" y="715"/>
      <point x="314" y="615"/>
      <point x="464" y="615" type="curve" smooth="yes"/>
      <point x="611" y="615"/>
      <point x="767" y="704"/>
      <point x="904" y="840" type="curve"/>
      <point x="898" y="363"/>
      <point x="746" y="18"/>
      <point x="535" y="18" type="curve" smooth="yes"/>
      <point x="453" y="18"/>
      <point x="379" y="70"/>
      <point x="304" y="200" type="curve" smooth="yes"/>
      <point x="297" y="212"/>
      <point x="290" y="216"/>
      <point x="278" y="209" type="curve" smooth="yes"/>
      <point x="267" y="203"/>
      <point x="266" y="192"/>
      <point x="272" y="180" type="curve" smooth="yes"/>
      <point x="341" y="46"/>
      <point x="442" y="-20"/>
    </contour>
  </outline>
</glyph>
<glyph name="G.dec" format="2">
  <advance width="1626"/>
  <anchor x="938" y="0" name="bottom"/>
  <anchor x="988" y="1424" name="top"/>
  <outline>
    <contour>
      <point x="116" y="-12" type="curve" smooth="yes"/>
      <point x="413" y="-12"/>
      <point x="758" y="661"/>
      <point x="758" y="1166" type="curve" smooth="yes"/>
      <point x="758" y="1431"/>
      <point x="726" y="1513"/>
      <point x="630" y="1513" type="curve" smooth="yes"/>
      <point x="525" y="1513"/>
      <point x="449" y="1366"/>
      <point x="449" y="1164" type="curve" smooth="yes"/>
      <point x="449" y="995"/>
      <point x="533" y="913"/>
      <point x="671" y="913" type="curve" smooth="yes"/>
      <point x="880" y="913"/>
      <point x="1094" y="1046"/>
      <point x="1330" y="1309" type="curve"/>
      <point x="1324" y="1316" type="line"/>
      <point x="1324" y="1219"/>
      <point x="1324" y="1130"/>
      <point x="1324" y="1059" type="curve" smooth="yes"/>
      <point x="1324" y="288"/>
      <point x="1228" y="25"/>
      <point x="945" y="25" type="curve" smooth="yes"/>
      <point x="679" y="25"/>
      <point x="441" y="251"/>
      <point x="244" y="695" type="curve"/>
      <point x="240" y="679" type="line"/>
      <point x="645" y="478"/>
      <point x="1026" y="393"/>
      <point x="1533" y="393" type="curve" smooth="yes"/>
      <point x="1540" y="393"/>
      <point x="1546" y="398"/>
      <point x="1546" y="411" type="curve" smooth="yes"/>
      <point x="1546" y="425"/>
      <point x="1540" y="430"/>
      <point x="1533" y="430" type="curve" smooth="yes"/>
      <point x="1033" y="430"/>
      <point x="656" y="514"/>
      <point x="259" y="711" type="curve" smooth="yes"/>
      <point x="238" y="721"/>
      <point x="225" y="716"/>
      <point x="215" y="705" type="curve" smooth="yes"/>
      <point x="206" y="695"/>
      <point x="206" y="685"/>
      <point x="215" y="663" type="curve" smooth="yes"/>
      <point x="416" y="215"/>
      <point x="663" y="-12"/>
      <point x="945" y="-12" type="curve" smooth="yes"/>
      <point x="1259" y="-12"/>
      <point x="1365" y="260"/>
      <point x="1365" y="1059" type="curve" smooth="yes"/>
      <point x="1365" y="1123"/>
      <point x="1365" y="1208"/>
      <point x="1365" y="1306" type="curve" smooth="yes"/>
      <point x="1365" y="1323"/>
      <point x="1358" y="1334"/>
      <point x="1344" y="1340" type="curve" smooth="yes"/>
      <point x="1326" y="1348"/>
      <point x="1310" y="1344"/>
      <point x="1298" y="1329" type="curve" smooth="yes"/>
      <point x="1088" y="1093"/>
      <point x="861" y="950"/>
      <point x="675" y="950" type="curve" smooth="yes"/>
      <point x="560" y="950"/>
      <point x="490" y="1019"/>
      <point x="490" y="1166" type="curve" smooth="yes"/>
      <point x="490" y="1345"/>
      <point x="548" y="1475"/>
      <point x="628" y="1475" type="curve" smooth="yes"/>
      <point x="693" y="1475"/>
      <point x="716" y="1404"/>
      <point x="716" y="1163" type="curve" smooth="yes"/>
      <point x="716" y="669"/>
      <point x="383" y="31"/>
      <point x="116" y="31" type="curve" smooth="yes"/>
      <point x="99" y="31"/>
      <point x="89" y="24"/>
      <point x="89" y="8" type="curve" smooth="yes"/>
      <point x="89" y="-6"/>
      <point x="96" y="-12"/>
    </contour>
  </outline>
</glyph>
<glyph name="G_locl.au" format="2">
  <advance width="1356"/>
  <anchor x="633" y="0" name="bottom"/>
  <anchor x="708" y="1424" name="top"/>
  <outline>
    <contour>
      <point x="578" y="-17" type="curve" smooth="yes"/>
      <point x="831" y="-17"/>
      <point x="1048" y="235"/>
      <point x="1135" y="591" type="curve"/>
      <point x="1135" y="1" type="line" smooth="yes"/>
      <point x="1135" y="-10"/>
      <point x="1141" y="-14"/>
      <point x="1155" y="-14" type="curve" smooth="yes"/>
      <point x="1168" y="-14"/>
      <point x="1173" y="-9"/>
      <point x="1173" y="1" type="curve" smooth="yes"/>
      <point x="1173" y="731" type="line" smooth="yes"/>
      <point x="1173" y="743"/>
      <point x="1168" y="746"/>
      <point x="1154" y="746" type="curve" smooth="yes"/>
      <point x="1140" y="746"/>
      <point x="1135" y="743"/>
      <point x="1135" y="730" type="curve"/>
      <point x="1056" y="320"/>
      <point x="839" y="20"/>
      <point x="585" y="20" type="curve" smooth="yes"/>
      <point x="328" y="20"/>
      <point x="191" y="244"/>
      <point x="191" y="665" type="curve" smooth="yes"/>
      <point x="191" y="1156"/>
      <point x="404" y="1478"/>
      <point x="743" y="1478" type="curve" smooth="yes"/>
      <point x="883" y="1478"/>
      <point x="991" y="1433"/>
      <point x="1094" y="1320" type="curve" smooth="yes"/>
      <point x="1104" y="1309"/>
      <point x="1113" y="1308"/>
      <point x="1121" y="1314" type="curve" smooth="yes"/>
      <point x="1133" y="1323"/>
      <point x="1133" y="1330"/>
      <point x="1123" y="1341" type="curve" smooth="yes"/>
      <point x="1018" y="1461"/>
      <point x="893" y="1515"/>
      <point x="743" y="1515" type="curve" smooth="yes"/>
      <point x="379" y="1515"/>
      <point x="150" y="1179"/>
      <point x="150" y="665" type="curve" smooth="yes"/>
      <point x="150" y="220"/>
      <point x="298" y="-17"/>
    </contour>
  </outline>
</glyph>
<glyph name="H.cur.ini" format="2">
  <advance width="1443"/>
  <anchor x="810" y="0" name="bottom"/>
  <anchor x="810" y="1090" name="center"/>
  <anchor x="1443" y="0" name="cnct"/>
  <anchor x="810" y="1424" name="top"/>
  <outline>
    <contour>
      <point x="340" y="-19" type="curve" smooth="yes"/>
      <point x="445" y="-19"/>
      <point x="506" y="76"/>
      <point x="506" y="236" type="curve" smooth="yes"/>
      <point x="506" y="573" type="line"/>
      <point x="709" y="674"/>
      <point x="913" y="776"/>
      <point x="1115" y="883" type="curve"/>
      <point x="1115" y="444" type="line" smooth="yes"/>
      <point x="1115" y="198"/>
      <point x="1171" y="-17"/>
      <point x="1339" y="-17" type="curve" smooth="yes"/>
      <point x="1364" y="-17"/>
      <point x="1364" y="18"/>
      <point x="1339" y="18" type="curve" smooth="yes"/>
      <point x="1199" y="18"/>
      <point x="1153" y="228"/>
      <point x="1153" y="444" type="curve" smooth="yes"/>
      <point x="1153" y="898" type="line"/>
      <point x="1324" y="996"/>
      <point x="1416" y="1143"/>
      <point x="1416" y="1325" type="curve" smooth="yes"/>
      <point x="1416" y="1448"/>
      <point x="1361" y="1520"/>
      <point x="1269" y="1520" type="curve" smooth="yes"/>
      <point x="1168" y="1520"/>
      <point x="1115" y="1440"/>
      <point x="1115" y="1290" type="curve" smooth="yes"/>
      <point x="1115" y="921" type="line"/>
      <point x="913" y="816"/>
      <point x="709" y="713"/>
      <point x="506" y="613" type="curve"/>
      <point x="506" y="1315" type="line" smooth="yes"/>
      <point x="506" y="1466"/>
      <point x="465" y="1520"/>
      <point x="366" y="1520" type="curve" smooth="yes"/>
      <point x="265" y="1520"/>
      <point x="175" y="1421"/>
      <point x="104" y="1224" type="curve" smooth="yes"/>
      <point x="99" y="1209"/>
      <point x="105" y="1203"/>
      <point x="118" y="1200" type="curve" smooth="yes"/>
      <point x="131" y="1198"/>
      <point x="134" y="1203"/>
      <point x="139" y="1215" type="curve" smooth="yes"/>
      <point x="204" y="1394"/>
      <point x="283" y="1484"/>
      <point x="366" y="1484" type="curve" smooth="yes"/>
      <point x="439" y="1484"/>
      <point x="469" y="1441"/>
      <point x="469" y="1315" type="curve" smooth="yes"/>
      <point x="469" y="596" type="line"/>
      <point x="301" y="503"/>
      <point x="204" y="348"/>
      <point x="204" y="180" type="curve" smooth="yes"/>
      <point x="204" y="55"/>
      <point x="254" y="-19"/>
    </contour>
    <contour>
      <point x="341" y="18" type="curve" smooth="yes"/>
      <point x="281" y="18"/>
      <point x="245" y="78"/>
      <point x="245" y="180" type="curve" smooth="yes"/>
      <point x="245" y="334"/>
      <point x="328" y="471"/>
      <point x="469" y="553" type="curve"/>
      <point x="469" y="236" type="line" smooth="yes"/>
      <point x="469" y="99"/>
      <point x="421" y="18"/>
    </contour>
    <contour>
      <point x="1153" y="940" type="curve"/>
      <point x="1153" y="1290" type="line" smooth="yes"/>
      <point x="1153" y="1416"/>
      <point x="1193" y="1484"/>
      <point x="1268" y="1484" type="curve" smooth="yes"/>
      <point x="1335" y="1484"/>
      <point x="1375" y="1425"/>
      <point x="1375" y="1325" type="curve" smooth="yes"/>
      <point x="1375" y="1160"/>
      <point x="1298" y="1026"/>
    </contour>
  </outline>
</glyph>
<glyph name="H.dec" format="2">
  <advance width="1676"/>
  <guideline x="759" y="1200" angle="90"/>
  <anchor x="949" y="0" name="bottom"/>
  <anchor x="949" y="1150" name="center"/>
  <anchor x="949" y="1424" name="top"/>
  <outline>
    <contour>
      <point x="554" y="-14" type="curve" smooth="yes"/>
      <point x="568" y="-14"/>
      <point x="573" y="-10"/>
      <point x="573" y="1" type="curve" smooth="yes"/>
      <point x="573" y="1500" type="line" smooth="yes"/>
      <point x="573" y="1511"/>
      <point x="566" y="1515"/>
      <point x="554" y="1515" type="curve" smooth="yes"/>
      <point x="539" y="1515"/>
      <point x="534" y="1509"/>
      <point x="525" y="1500" type="curve" smooth="yes"/>
      <point x="486" y="1460"/>
      <point x="459" y="1444"/>
      <point x="430" y="1444" type="curve" smooth="yes"/>
      <point x="379" y="1444"/>
      <point x="344" y="1504"/>
      <point x="285" y="1504" type="curve" smooth="yes"/>
      <point x="215" y="1504"/>
      <point x="153" y="1451"/>
      <point x="71" y="1325" type="curve" smooth="yes"/>
      <point x="66" y="1316"/>
      <point x="68" y="1309"/>
      <point x="75" y="1303" type="curve" smooth="yes"/>
      <point x="86" y="1295"/>
      <point x="95" y="1296"/>
      <point x="100" y="1305" type="curve" smooth="yes"/>
      <point x="169" y="1420"/>
      <point x="231" y="1469"/>
      <point x="280" y="1469" type="curve" smooth="yes"/>
      <point x="331" y="1469"/>
      <point x="368" y="1409"/>
      <point x="430" y="1409" type="curve" smooth="yes"/>
      <point x="465" y="1409"/>
      <point x="500" y="1426"/>
      <point x="535" y="1461" type="curve"/>
      <point x="535" y="1" type="line" smooth="yes"/>
      <point x="535" y="-10"/>
      <point x="540" y="-14"/>
    </contour>
    <contour>
      <point x="1324" y="303" type="curve"/>
      <point x="1356" y="315" type="line"/>
      <point x="1356" y="655"/>
      <point x="1190" y="828"/>
      <point x="863" y="828" type="curve" smooth="yes"/>
      <point x="683" y="828"/>
      <point x="551" y="750"/>
      <point x="551" y="643" type="curve" smooth="yes"/>
      <point x="551" y="535"/>
      <point x="689" y="456"/>
      <point x="878" y="456" type="curve" smooth="yes"/>
      <point x="1093" y="456"/>
      <point x="1318" y="516"/>
      <point x="1545" y="635" type="curve" smooth="yes"/>
      <point x="1553" y="640"/>
      <point x="1554" y="648"/>
      <point x="1549" y="658" type="curve" smooth="yes"/>
      <point x="1544" y="668"/>
      <point x="1538" y="670"/>
      <point x="1530" y="666" type="curve" smooth="yes"/>
      <point x="1320" y="553"/>
      <point x="1100" y="494"/>
      <point x="878" y="494" type="curve" smooth="yes"/>
      <point x="709" y="494"/>
      <point x="586" y="555"/>
      <point x="586" y="640" type="curve" smooth="yes"/>
      <point x="586" y="728"/>
      <point x="703" y="790"/>
      <point x="863" y="790" type="curve" smooth="yes"/>
      <point x="1168" y="790"/>
      <point x="1324" y="626"/>
    </contour>
    <contour>
      <point x="1343" y="-14" type="curve" smooth="yes"/>
      <point x="1356" y="-14"/>
      <point x="1361" y="-10"/>
      <point x="1361" y="1" type="curve" smooth="yes"/>
      <point x="1361" y="1500" type="line" smooth="yes"/>
      <point x="1361" y="1511"/>
      <point x="1355" y="1515"/>
      <point x="1343" y="1515" type="curve" smooth="yes"/>
      <point x="1329" y="1515"/>
      <point x="1324" y="1511"/>
      <point x="1324" y="1500" type="curve" smooth="yes"/>
      <point x="1324" y="1" type="line" smooth="yes"/>
      <point x="1324" y="-10"/>
      <point x="1329" y="-14"/>
    </contour>
  </outline>
</glyph>
<glyph name="I.cur.ini" format="2">
  <advance width="1450"/>
  <anchor x="1035" y="0" name="bottom"/>
  <anchor x="1450" y="0" name="cnct"/>
  <anchor x="1201" y="-9" name="ogonek"/>
  <anchor x="1035" y="1424" name="top"/>
  <outline>
    <contour>
      <point x="633" y="-17" type="curve" smooth="yes"/>
      <point x="1003" y="-17"/>
      <point x="1314" y="508"/>
      <point x="1314" y="1044" type="curve" smooth="yes"/>
      <point x="1314" y="1324"/>
      <point x="1220" y="1515"/>
      <point x="1033" y="1515" type="curve" smooth="yes"/>
      <point x="864" y="1515"/>
      <point x="783" y="1324"/>
      <point x="783" y="1035" type="curve" smooth="yes"/>
      <point x="783" y="551"/>
      <point x="1110" y="-17"/>
      <point x="1348" y="-17" type="curve" smooth="yes"/>
      <point x="1368" y="-17"/>
      <point x="1368" y="18"/>
      <point x="1348" y="18" type="curve" smooth="yes"/>
      <point x="1134" y="18"/>
      <point x="824" y="571"/>
      <point x="824" y="1034" type="curve" smooth="yes"/>
      <point x="824" y="1306"/>
      <point x="889" y="1478"/>
      <point x="1033" y="1478" type="curve" smooth="yes"/>
      <point x="1196" y="1478"/>
      <point x="1273" y="1283"/>
      <point x="1273" y="1044" type="curve" smooth="yes"/>
      <point x="1273" y="521"/>
      <point x="973" y="20"/>
      <point x="633" y="20" type="curve" smooth="yes"/>
      <point x="423" y="20"/>
      <point x="266" y="165"/>
      <point x="168" y="451" type="curve"/>
      <point x="305" y="414"/>
      <point x="436" y="400"/>
      <point x="609" y="400" type="curve" smooth="yes"/>
      <point x="618" y="400"/>
      <point x="623" y="408"/>
      <point x="623" y="420" type="curve" smooth="yes"/>
      <point x="623" y="433"/>
      <point x="618" y="438"/>
      <point x="609" y="438" type="curve" smooth="yes"/>
      <point x="454" y="438"/>
      <point x="329" y="446"/>
      <point x="181" y="488" type="curve" smooth="yes"/>
      <point x="151" y="496"/>
      <point x="144" y="496"/>
      <point x="133" y="486" type="curve" smooth="yes"/>
      <point x="119" y="473"/>
      <point x="118" y="464"/>
      <point x="125" y="444" type="curve" smooth="yes"/>
      <point x="234" y="138"/>
      <point x="405" y="-17"/>
    </contour>
  </outline>
</glyph>
<glyph name="I.dec" format="2">
  <advance width="874"/>
  <guideline x="48"/>
  <guideline x="313"/>
  <guideline x="283"/>
  <anchor x="406" y="0" name="bottom"/>
  <anchor x="406" y="1424" name="top"/>
  <outline>
    <contour>
      <point x="443" y="-17" type="curve" smooth="yes"/>
      <point x="561" y="-17"/>
      <point x="623" y="56"/>
      <point x="623" y="201" type="curve" smooth="yes"/>
      <point x="623" y="1500" type="line" smooth="yes"/>
      <point x="623" y="1511"/>
      <point x="616" y="1515"/>
      <point x="604" y="1515" type="curve" smooth="yes"/>
      <point x="590" y="1515"/>
      <point x="586" y="1510"/>
      <point x="575" y="1499" type="curve" smooth="yes"/>
      <point x="548" y="1471"/>
      <point x="519" y="1444"/>
      <point x="484" y="1444" type="curve" smooth="yes"/>
      <point x="424" y="1444"/>
      <point x="406" y="1504"/>
      <point x="336" y="1504" type="curve" smooth="yes"/>
      <point x="253" y="1504"/>
      <point x="191" y="1423"/>
      <point x="130" y="1326" type="curve" smooth="yes"/>
      <point x="124" y="1316"/>
      <point x="124" y="1309"/>
      <point x="133" y="1303" type="curve" smooth="yes"/>
      <point x="144" y="1295"/>
      <point x="154" y="1296"/>
      <point x="160" y="1308" type="curve" smooth="yes"/>
      <point x="229" y="1421"/>
      <point x="278" y="1469"/>
      <point x="335" y="1469" type="curve" smooth="yes"/>
      <point x="384" y="1469"/>
      <point x="418" y="1409"/>
      <point x="479" y="1409" type="curve" smooth="yes"/>
      <point x="516" y="1409"/>
      <point x="550" y="1428"/>
      <point x="585" y="1464" type="curve"/>
      <point x="585" y="201" type="line" smooth="yes"/>
      <point x="585" y="80"/>
      <point x="538" y="18"/>
      <point x="443" y="18" type="curve" smooth="yes"/>
      <point x="331" y="18"/>
      <point x="238" y="91"/>
      <point x="173" y="236" type="curve" smooth="yes"/>
      <point x="169" y="246"/>
      <point x="160" y="248"/>
      <point x="148" y="240" type="curve" smooth="yes"/>
      <point x="140" y="235"/>
      <point x="138" y="228"/>
      <point x="140" y="220" type="curve" smooth="yes"/>
      <point x="210" y="61"/>
      <point x="315" y="-17"/>
    </contour>
  </outline>
</glyph>
<glyph name="J.cur" format="2">
  <advance width="1179"/>
  <anchor x="600" y="-1000" name="bottom"/>
  <anchor x="526" y="1424" name="top"/>
  <outline>
    <contour>
      <point x="604" y="-1020" type="curve" smooth="yes"/>
      <point x="748" y="-1020"/>
      <point x="824" y="-879"/>
      <point x="824" y="-600" type="curve" smooth="yes"/>
      <point x="824" y="-168" type="line"/>
      <point x="910" y="-84"/>
      <point x="1011" y="3"/>
      <point x="1128" y="90" type="curve" smooth="yes"/>
      <point x="1140" y="98"/>
      <point x="1141" y="108"/>
      <point x="1134" y="118" type="curve" smooth="yes"/>
      <point x="1126" y="128"/>
      <point x="1118" y="129"/>
      <point x="1109" y="121" type="curve"/>
      <point x="1001" y="41"/>
      <point x="906" y="-39"/>
      <point x="824" y="-117" type="curve"/>
      <point x="824" y="1201" type="line" smooth="yes"/>
      <point x="824" y="1409"/>
      <point x="741" y="1515"/>
      <point x="578" y="1515" type="curve" smooth="yes"/>
      <point x="340" y="1515"/>
      <point x="168" y="1299"/>
      <point x="168" y="1000" type="curve" smooth="yes"/>
      <point x="168" y="681"/>
      <point x="266" y="480"/>
      <point x="554" y="206" type="curve" smooth="yes"/>
      <point x="565" y="195"/>
      <point x="576" y="196"/>
      <point x="584" y="206" type="curve" smooth="yes"/>
      <point x="593" y="218"/>
      <point x="591" y="226"/>
      <point x="583" y="235" type="curve"/>
      <point x="304" y="496"/>
      <point x="209" y="691"/>
      <point x="209" y="1000" type="curve" smooth="yes"/>
      <point x="209" y="1278"/>
      <point x="364" y="1478"/>
      <point x="578" y="1478" type="curve" smooth="yes"/>
      <point x="716" y="1478"/>
      <point x="786" y="1384"/>
      <point x="786" y="1201" type="curve" smooth="yes"/>
      <point x="786" y="-155" type="line"/>
      <point x="556" y="-385"/>
      <point x="440" y="-606"/>
      <point x="440" y="-814" type="curve" smooth="yes"/>
      <point x="440" y="-942"/>
      <point x="499" y="-1020"/>
    </contour>
    <contour>
      <point x="604" y="-985" type="curve" smooth="yes"/>
      <point x="525" y="-985"/>
      <point x="481" y="-920"/>
      <point x="481" y="-814" type="curve" smooth="yes"/>
      <point x="481" y="-623"/>
      <point x="583" y="-419"/>
      <point x="786" y="-207" type="curve"/>
      <point x="786" y="-600" type="line" smooth="yes"/>
      <point x="786" y="-855"/>
      <point x="723" y="-985"/>
    </contour>
  </outline>
</glyph>
<glyph name="J.dec" format="2">
  <advance width="820"/>
  <anchor x="363" y="-1000" name="bottom"/>
  <anchor x="418" y="1424" name="top"/>
  <outline>
    <contour>
      <point x="356" y="-1020" type="curve" smooth="yes"/>
      <point x="500" y="-1020"/>
      <point x="576" y="-879"/>
      <point x="576" y="-600" type="curve" smooth="yes"/>
      <point x="576" y="1500" type="line" smooth="yes"/>
      <point x="576" y="1511"/>
      <point x="570" y="1515"/>
      <point x="558" y="1515" type="curve" smooth="yes"/>
      <point x="544" y="1515"/>
      <point x="540" y="1510"/>
      <point x="529" y="1499" type="curve" smooth="yes"/>
      <point x="501" y="1471"/>
      <point x="473" y="1444"/>
      <point x="438" y="1444" type="curve" smooth="yes"/>
      <point x="378" y="1444"/>
      <point x="360" y="1504"/>
      <point x="290" y="1504" type="curve" smooth="yes"/>
      <point x="206" y="1504"/>
      <point x="145" y="1423"/>
      <point x="84" y="1326" type="curve" smooth="yes"/>
      <point x="78" y="1316"/>
      <point x="78" y="1309"/>
      <point x="86" y="1303" type="curve" smooth="yes"/>
      <point x="98" y="1295"/>
      <point x="108" y="1296"/>
      <point x="114" y="1308" type="curve" smooth="yes"/>
      <point x="183" y="1421"/>
      <point x="231" y="1469"/>
      <point x="289" y="1469" type="curve" smooth="yes"/>
      <point x="338" y="1469"/>
      <point x="371" y="1409"/>
      <point x="433" y="1409" type="curve" smooth="yes"/>
      <point x="470" y="1409"/>
      <point x="504" y="1428"/>
      <point x="539" y="1464" type="curve"/>
      <point x="539" y="-600" type="line" smooth="yes"/>
      <point x="539" y="-855"/>
      <point x="475" y="-985"/>
      <point x="356" y="-985" type="curve" smooth="yes"/>
      <point x="278" y="-985"/>
      <point x="234" y="-920"/>
      <point x="234" y="-814" type="curve" smooth="yes"/>
      <point x="234" y="-611"/>
      <point x="328" y="-425"/>
      <point x="549" y="-185" type="curve" smooth="yes"/>
      <point x="618" y="-111"/>
      <point x="738" y="-5"/>
      <point x="869" y="96" type="curve" smooth="yes"/>
      <point x="881" y="105"/>
      <point x="883" y="114"/>
      <point x="875" y="124" type="curve" smooth="yes"/>
      <point x="868" y="134"/>
      <point x="859" y="134"/>
      <point x="850" y="128" type="curve" smooth="yes"/>
      <point x="731" y="34"/>
      <point x="618" y="-66"/>
      <point x="549" y="-136" type="curve" smooth="yes"/>
      <point x="298" y="-396"/>
      <point x="193" y="-596"/>
      <point x="193" y="-814" type="curve" smooth="yes"/>
      <point x="193" y="-942"/>
      <point x="251" y="-1020"/>
    </contour>
  </outline>
</glyph>
<glyph name="K.cur" format="2">
  <advance width="1359"/>
  <anchor x="818" y="0" name="bottom"/>
  <anchor x="818" y="1424" name="top"/>
  <outline>
    <contour>
      <point x="1155" y="-19" type="curve" smooth="yes"/>
      <point x="1228" y="-19"/>
      <point x="1298" y="51"/>
      <point x="1345" y="170" type="curve" smooth="yes"/>
      <point x="1351" y="185"/>
      <point x="1349" y="194"/>
      <point x="1338" y="199" type="curve" smooth="yes"/>
      <point x="1325" y="204"/>
      <point x="1318" y="200"/>
      <point x="1313" y="188" type="curve" smooth="yes"/>
      <point x="1276" y="85"/>
      <point x="1215" y="18"/>
      <point x="1159" y="18" type="curve" smooth="yes"/>
      <point x="1079" y="18"/>
      <point x="1009" y="101"/>
      <point x="843" y="329" type="curve" smooth="yes"/>
      <point x="528" y="761" type="line"/>
      <point x="1185" y="1461" type="line" smooth="yes"/>
      <point x="1193" y="1469"/>
      <point x="1194" y="1478"/>
      <point x="1186" y="1486" type="curve" smooth="yes"/>
      <point x="1178" y="1496"/>
      <point x="1170" y="1498"/>
      <point x="1161" y="1489" type="curve" smooth="yes"/>
      <point x="483" y="764" type="line"/>
      <point x="483" y="1315" type="line" smooth="yes"/>
      <point x="483" y="1466"/>
      <point x="441" y="1520"/>
      <point x="343" y="1520" type="curve" smooth="yes"/>
      <point x="241" y="1520"/>
      <point x="151" y="1421"/>
      <point x="80" y="1224" type="curve" smooth="yes"/>
      <point x="75" y="1209"/>
      <point x="81" y="1203"/>
      <point x="94" y="1200" type="curve" smooth="yes"/>
      <point x="108" y="1198"/>
      <point x="110" y="1203"/>
      <point x="115" y="1215" type="curve" smooth="yes"/>
      <point x="180" y="1394"/>
      <point x="259" y="1484"/>
      <point x="343" y="1484" type="curve" smooth="yes"/>
      <point x="415" y="1484"/>
      <point x="445" y="1441"/>
      <point x="445" y="1315" type="curve" smooth="yes"/>
      <point x="445" y="206" type="line" smooth="yes"/>
      <point x="445" y="88"/>
      <point x="408" y="18"/>
      <point x="324" y="18" type="curve" smooth="yes"/>
      <point x="233" y="18"/>
      <point x="161" y="88"/>
      <point x="106" y="235" type="curve" smooth="yes"/>
      <point x="103" y="244"/>
      <point x="94" y="246"/>
      <point x="83" y="240" type="curve" smooth="yes"/>
      <point x="73" y="235"/>
      <point x="70" y="226"/>
      <point x="74" y="218" type="curve" smooth="yes"/>
      <point x="133" y="58"/>
      <point x="213" y="-19"/>
      <point x="324" y="-19" type="curve" smooth="yes"/>
      <point x="424" y="-19"/>
      <point x="483" y="65"/>
      <point x="483" y="206" type="curve" smooth="yes"/>
      <point x="483" y="760" type="line"/>
      <point x="810" y="310" type="line" smooth="yes"/>
      <point x="985" y="70"/>
      <point x="1061" y="-19"/>
    </contour>
  </outline>
</glyph>
<glyph name="K.dec" format="2">
  <advance width="1624"/>
  <anchor x="913" y="0" name="bottom"/>
  <anchor x="850" y="1424" name="top"/>
  <outline>
    <contour>
      <point x="1346" y="-17" type="curve" smooth="yes"/>
      <point x="1445" y="-17"/>
      <point x="1526" y="43"/>
      <point x="1610" y="171" type="curve" smooth="yes"/>
      <point x="1614" y="178"/>
      <point x="1611" y="184"/>
      <point x="1601" y="190" type="curve" smooth="yes"/>
      <point x="1591" y="195"/>
      <point x="1585" y="195"/>
      <point x="1580" y="189" type="curve" smooth="yes"/>
      <point x="1503" y="74"/>
      <point x="1433" y="18"/>
      <point x="1354" y="18" type="curve" smooth="yes"/>
      <point x="1128" y="18"/>
      <point x="1149" y="691"/>
      <point x="850" y="765" type="curve"/>
      <point x="1085" y="864"/>
      <point x="1119" y="1478"/>
      <point x="1333" y="1478" type="curve" smooth="yes"/>
      <point x="1368" y="1478"/>
      <point x="1409" y="1465"/>
      <point x="1446" y="1444" type="curve" smooth="yes"/>
      <point x="1460" y="1436"/>
      <point x="1469" y="1436"/>
      <point x="1474" y="1448" type="curve" smooth="yes"/>
      <point x="1483" y="1464"/>
      <point x="1474" y="1469"/>
      <point x="1463" y="1475" type="curve" smooth="yes"/>
      <point x="1433" y="1493"/>
      <point x="1384" y="1513"/>
      <point x="1333" y="1513" type="curve" smooth="yes"/>
      <point x="1065" y="1513"/>
      <point x="1049" y="779"/>
      <point x="778" y="779" type="curve" smooth="yes"/>
      <point x="578" y="779" type="line"/>
      <point x="578" y="1500" type="line" smooth="yes"/>
      <point x="578" y="1511"/>
      <point x="571" y="1515"/>
      <point x="559" y="1515" type="curve" smooth="yes"/>
      <point x="544" y="1515"/>
      <point x="539" y="1509"/>
      <point x="530" y="1500" type="curve" smooth="yes"/>
      <point x="491" y="1460"/>
      <point x="464" y="1444"/>
      <point x="435" y="1444" type="curve" smooth="yes"/>
      <point x="384" y="1444"/>
      <point x="349" y="1504"/>
      <point x="290" y="1504" type="curve" smooth="yes"/>
      <point x="220" y="1504"/>
      <point x="158" y="1451"/>
      <point x="76" y="1325" type="curve" smooth="yes"/>
      <point x="71" y="1316"/>
      <point x="73" y="1309"/>
      <point x="80" y="1303" type="curve" smooth="yes"/>
      <point x="91" y="1295"/>
      <point x="100" y="1296"/>
      <point x="105" y="1305" type="curve" smooth="yes"/>
      <point x="174" y="1420"/>
      <point x="236" y="1469"/>
      <point x="285" y="1469" type="curve" smooth="yes"/>
      <point x="336" y="1469"/>
      <point x="373" y="1409"/>
      <point x="435" y="1409" type="curve" smooth="yes"/>
      <point x="470" y="1409"/>
      <point x="505" y="1426"/>
      <point x="540" y="1461" type="curve"/>
      <point x="540" y="1" type="line" smooth="yes"/>
      <point x="540" y="-10"/>
      <point x="545" y="-14"/>
      <point x="559" y="-14" type="curve" smooth="yes"/>
      <point x="573" y="-14"/>
      <point x="578" y="-10"/>
      <point x="578" y="1" type="curve" smooth="yes"/>
      <point x="578" y="744" type="line"/>
      <point x="783" y="744" type="line" smooth="yes"/>
      <point x="1125" y="744"/>
      <point x="1075" y="-17"/>
    </contour>
  </outline>
</glyph>
<glyph name="L.dec.ini" format="2">
  <advance width="1181"/>
  <anchor x="950" y="715" name="CAT"/>
  <anchor x="766" y="0" name="bottom"/>
  <anchor x="434" y="650" name="center"/>
  <anchor x="1181" y="0" name="cnct"/>
  <anchor x="714" y="1424" name="top"/>
  <anchor x="1025" y="1488" name="topright"/>
  <outline>
    <contour>
      <point x="235" y="-21" type="curve" smooth="yes"/>
      <point x="378" y="-21"/>
      <point x="453" y="134"/>
      <point x="453" y="426" type="curve" smooth="yes"/>
      <point x="453" y="848" type="line" smooth="yes"/>
      <point x="453" y="1214"/>
      <point x="596" y="1480"/>
      <point x="795" y="1480" type="curve" smooth="yes"/>
      <point x="883" y="1480"/>
      <point x="946" y="1419"/>
      <point x="946" y="1335" type="curve" smooth="yes"/>
      <point x="946" y="1171"/>
      <point x="750" y="1031"/>
      <point x="539" y="1031" type="curve" smooth="yes"/>
      <point x="394" y="1031"/>
      <point x="284" y="1068"/>
      <point x="144" y="1141" type="curve" smooth="yes"/>
      <point x="134" y="1146"/>
      <point x="128" y="1143"/>
      <point x="121" y="1131" type="curve" smooth="yes"/>
      <point x="116" y="1121"/>
      <point x="118" y="1114"/>
      <point x="126" y="1109" type="curve" smooth="yes"/>
      <point x="283" y="1028"/>
      <point x="390" y="996"/>
      <point x="539" y="996" type="curve" smooth="yes"/>
      <point x="774" y="996"/>
      <point x="988" y="1151"/>
      <point x="988" y="1335" type="curve" smooth="yes"/>
      <point x="988" y="1440"/>
      <point x="909" y="1515"/>
      <point x="799" y="1515" type="curve" smooth="yes"/>
      <point x="576" y="1515"/>
      <point x="415" y="1235"/>
      <point x="415" y="848" type="curve" smooth="yes"/>
      <point x="415" y="426" type="line" smooth="yes"/>
      <point x="415" y="158"/>
      <point x="355" y="15"/>
      <point x="239" y="15" type="curve" smooth="yes"/>
      <point x="190" y="15"/>
      <point x="155" y="44"/>
      <point x="155" y="83" type="curve" smooth="yes"/>
      <point x="155" y="150"/>
      <point x="243" y="189"/>
      <point x="349" y="189" type="curve" smooth="yes"/>
      <point x="765" y="189"/>
      <point x="910" y="-17"/>
      <point x="1078" y="-17" type="curve" smooth="yes"/>
      <point x="1103" y="-17"/>
      <point x="1103" y="18"/>
      <point x="1078" y="18" type="curve" smooth="yes"/>
      <point x="940" y="18"/>
      <point x="765" y="225"/>
      <point x="353" y="225" type="curve" smooth="yes"/>
      <point x="223" y="225"/>
      <point x="115" y="171"/>
      <point x="115" y="80" type="curve" smooth="yes"/>
      <point x="115" y="21"/>
      <point x="165" y="-21"/>
    </contour>
  </outline>
</glyph>
<glyph name="M.cur" format="2">
  <advance width="2014"/>
  <guideline y="656"/>
  <anchor x="1009" y="0" name="bottom"/>
  <anchor x="1086" y="1424" name="top"/>
  <outline>
    <contour>
      <point x="1748" y="-19" type="curve" smooth="yes"/>
      <point x="1841" y="-19"/>
      <point x="1924" y="64"/>
      <point x="1981" y="219" type="curve" smooth="yes"/>
      <point x="1985" y="230"/>
      <point x="1983" y="238"/>
      <point x="1969" y="241" type="curve" smooth="yes"/>
      <point x="1958" y="244"/>
      <point x="1955" y="241"/>
      <point x="1951" y="233" type="curve"/>
      <point x="1898" y="93"/>
      <point x="1830" y="18"/>
      <point x="1754" y="18" type="curve" smooth="yes"/>
      <point x="1681" y="18"/>
      <point x="1654" y="64"/>
      <point x="1654" y="213" type="curve" smooth="yes"/>
      <point x="1654" y="1226" type="line" smooth="yes"/>
      <point x="1654" y="1415"/>
      <point x="1586" y="1515"/>
      <point x="1460" y="1515" type="curve" smooth="yes"/>
      <point x="1254" y="1515"/>
      <point x="1099" y="1300"/>
      <point x="1035" y="933" type="curve"/>
      <point x="1035" y="1031"/>
      <point x="1035" y="1128"/>
      <point x="1035" y="1226" type="curve" smooth="yes"/>
      <point x="1035" y="1415"/>
      <point x="968" y="1515"/>
      <point x="841" y="1515" type="curve" smooth="yes"/>
      <point x="635" y="1515"/>
      <point x="478" y="1298"/>
      <point x="416" y="928" type="curve"/>
      <point x="416" y="1062"/>
      <point x="416" y="1195"/>
      <point x="416" y="1329" type="curve" smooth="yes"/>
      <point x="416" y="1458"/>
      <point x="378" y="1513"/>
      <point x="306" y="1513" type="curve" smooth="yes"/>
      <point x="209" y="1513"/>
      <point x="118" y="1410"/>
      <point x="48" y="1219" type="curve" smooth="yes"/>
      <point x="43" y="1205"/>
      <point x="43" y="1198"/>
      <point x="54" y="1191" type="curve" smooth="yes"/>
      <point x="65" y="1185"/>
      <point x="74" y="1189"/>
      <point x="79" y="1201" type="curve" smooth="yes"/>
      <point x="153" y="1388"/>
      <point x="225" y="1476"/>
      <point x="303" y="1476" type="curve" smooth="yes"/>
      <point x="354" y="1476"/>
      <point x="379" y="1436"/>
      <point x="379" y="1329" type="curve" smooth="yes"/>
      <point x="379" y="1" type="line" smooth="yes"/>
      <point x="379" y="-10"/>
      <point x="384" y="-14"/>
      <point x="398" y="-14" type="curve" smooth="yes"/>
      <point x="411" y="-14"/>
      <point x="416" y="-10"/>
      <point x="416" y="1" type="curve" smooth="yes"/>
      <point x="416" y="735" type="line"/>
      <point x="465" y="1201"/>
      <point x="623" y="1478"/>
      <point x="840" y="1478" type="curve" smooth="yes"/>
      <point x="946" y="1478"/>
      <point x="998" y="1391"/>
      <point x="998" y="1221" type="curve" smooth="yes"/>
      <point x="998" y="1" type="line" smooth="yes"/>
      <point x="998" y="-10"/>
      <point x="1003" y="-14"/>
      <point x="1016" y="-14" type="curve" smooth="yes"/>
      <point x="1030" y="-14"/>
      <point x="1035" y="-10"/>
      <point x="1035" y="1" type="curve" smooth="yes"/>
      <point x="1035" y="735" type="line"/>
      <point x="1084" y="1201"/>
      <point x="1241" y="1478"/>
      <point x="1459" y="1478" type="curve" smooth="yes"/>
      <point x="1565" y="1478"/>
      <point x="1616" y="1391"/>
      <point x="1616" y="1221" type="curve" smooth="yes"/>
      <point x="1616" y="200" type="line" smooth="yes"/>
      <point x="1616" y="46"/>
      <point x="1654" y="-19"/>
    </contour>
  </outline>
</glyph>
<glyph name="M.dec.ini" format="2">
  <advance width="1945"/>
  <anchor x="1090" y="0" name="bottom"/>
  <anchor x="1945" y="0" name="cnct"/>
  <anchor x="1151" y="1424" name="top"/>
  <outline>
    <contour>
      <point x="288" y="-17" type="curve" smooth="yes"/>
      <point x="430" y="-17"/>
      <point x="545" y="143"/>
      <point x="768" y="1418" type="curve"/>
      <point x="834" y="953"/>
      <point x="930" y="491"/>
      <point x="1061" y="6" type="curve" smooth="yes"/>
      <point x="1066" y="-10"/>
      <point x="1074" y="-17"/>
      <point x="1086" y="-17" type="curve" smooth="yes"/>
      <point x="1101" y="-17"/>
      <point x="1110" y="-10"/>
      <point x="1115" y="6" type="curve" smooth="yes"/>
      <point x="1540" y="1426" type="line"/>
      <point x="1618" y="231"/>
      <point x="1679" y="-17"/>
      <point x="1841" y="-17" type="curve" smooth="yes"/>
      <point x="1866" y="-17"/>
      <point x="1866" y="18"/>
      <point x="1841" y="18" type="curve" smooth="yes"/>
      <point x="1719" y="18"/>
      <point x="1651" y="271"/>
      <point x="1573" y="1489" type="curve" smooth="yes"/>
      <point x="1571" y="1503"/>
      <point x="1561" y="1509"/>
      <point x="1546" y="1509" type="curve" smooth="yes"/>
      <point x="1534" y="1509"/>
      <point x="1525" y="1503"/>
      <point x="1521" y="1489" type="curve" smooth="yes"/>
      <point x="1090" y="45" type="line"/>
      <point x="959" y="520"/>
      <point x="864" y="999"/>
      <point x="795" y="1490" type="curve" smooth="yes"/>
      <point x="794" y="1503"/>
      <point x="785" y="1509"/>
      <point x="770" y="1509" type="curve" smooth="yes"/>
      <point x="756" y="1509"/>
      <point x="748" y="1503"/>
      <point x="745" y="1490" type="curve" smooth="yes"/>
      <point x="516" y="226"/>
      <point x="415" y="20"/>
      <point x="286" y="20" type="curve" smooth="yes"/>
      <point x="219" y="20"/>
      <point x="184" y="86"/>
      <point x="184" y="215" type="curve" smooth="yes"/>
      <point x="184" y="280"/>
      <point x="199" y="364"/>
      <point x="225" y="435" type="curve" smooth="yes"/>
      <point x="230" y="448"/>
      <point x="226" y="455"/>
      <point x="214" y="460" type="curve" smooth="yes"/>
      <point x="200" y="465"/>
      <point x="191" y="460"/>
      <point x="188" y="450" type="curve" smooth="yes"/>
      <point x="160" y="365"/>
      <point x="143" y="276"/>
      <point x="143" y="215" type="curve" smooth="yes"/>
      <point x="143" y="61"/>
      <point x="191" y="-17"/>
    </contour>
  </outline>
</glyph>
<glyph name="O.cur" format="2">
  <advance width="1440"/>
  <anchor x="716" y="0" name="bottom"/>
  <anchor x="716" y="744" name="center"/>
  <anchor x="916" y="11" name="ogonek"/>
  <anchor x="716" y="1424" name="top"/>
  <anchor x="953" y="1488" name="topright"/>
  <outline>
    <contour>
      <point x="721" y="-19" type="curve" smooth="yes"/>
      <point x="1060" y="-19"/>
      <point x="1283" y="285"/>
      <point x="1283" y="749" type="curve" smooth="yes"/>
      <point x="1283" y="1211"/>
      <point x="1093" y="1515"/>
      <point x="801" y="1515" type="curve" smooth="yes"/>
      <point x="624" y="1515"/>
      <point x="486" y="1381"/>
      <point x="406" y="1130" type="curve" smooth="yes"/>
      <point x="400" y="1113"/>
      <point x="401" y="1104"/>
      <point x="413" y="1099" type="curve" smooth="yes"/>
      <point x="425" y="1094"/>
      <point x="434" y="1098"/>
      <point x="438" y="1111" type="curve" smooth="yes"/>
      <point x="511" y="1350"/>
      <point x="639" y="1478"/>
      <point x="804" y="1478" type="curve" smooth="yes"/>
      <point x="1068" y="1478"/>
      <point x="1241" y="1189"/>
      <point x="1241" y="749" type="curve" smooth="yes"/>
      <point x="1241" y="308"/>
      <point x="1035" y="19"/>
      <point x="721" y="19" type="curve" smooth="yes"/>
      <point x="405" y="19"/>
      <point x="199" y="308"/>
      <point x="199" y="749" type="curve" smooth="yes"/>
      <point x="199" y="1009"/>
      <point x="279" y="1228"/>
      <point x="428" y="1376" type="curve" smooth="yes"/>
      <point x="439" y="1388"/>
      <point x="440" y="1396"/>
      <point x="433" y="1405" type="curve" smooth="yes"/>
      <point x="424" y="1416"/>
      <point x="414" y="1415"/>
      <point x="400" y="1401" type="curve" smooth="yes"/>
      <point x="241" y="1235"/>
      <point x="158" y="1009"/>
      <point x="158" y="749" type="curve" smooth="yes"/>
      <point x="158" y="285"/>
      <point x="380" y="-19"/>
    </contour>
  </outline>
</glyph>
<glyph name="O.dec" format="2">
  <advance width="1531"/>
  <anchor x="716" y="0" name="bottom"/>
  <anchor x="716" y="744" name="center"/>
  <anchor x="916" y="11" name="ogonek"/>
  <anchor x="716" y="1424" name="top"/>
  <anchor x="924" y="1478" name="topright"/>
  <outline>
    <contour>
      <point x="731" y="1515" type="curve" smooth="yes"/>
      <point x="541" y="1515"/>
      <point x="428" y="1376"/>
      <point x="428" y="1223" type="curve" smooth="yes"/>
      <point x="428" y="994"/>
      <point x="640" y="908"/>
      <point x="866" y="908" type="curve" smooth="yes"/>
      <point x="1079" y="908"/>
      <point x="1271" y="960"/>
      <point x="1503" y="1055" type="curve" smooth="yes"/>
      <point x="1514" y="1059"/>
      <point x="1518" y="1068"/>
      <point x="1514" y="1080" type="curve" smooth="yes"/>
      <point x="1510" y="1091"/>
      <point x="1503" y="1094"/>
      <point x="1491" y="1090" type="curve" smooth="yes"/>
      <point x="1268" y="995"/>
      <point x="1059" y="945"/>
      <point x="866" y="945" type="curve" smooth="yes"/>
      <point x="663" y="945"/>
      <point x="469" y="1028"/>
      <point x="469" y="1223" type="curve" smooth="yes"/>
      <point x="469" y="1363"/>
      <point x="541" y="1478"/>
      <point x="731" y="1478" type="curve" smooth="yes"/>
      <point x="1039" y="1478"/>
      <point x="1244" y="1211"/>
      <point x="1244" y="761" type="curve" smooth="yes"/>
      <point x="1244" y="323"/>
      <point x="1024" y="19"/>
      <point x="704" y="19" type="curve" smooth="yes"/>
      <point x="390" y="19"/>
      <point x="196" y="306"/>
      <point x="196" y="741" type="curve" smooth="yes"/>
      <point x="196" y="1205"/>
      <point x="374" y="1379"/>
      <point x="629" y="1471" type="curve" smooth="yes"/>
      <point x="641" y="1476"/>
      <point x="645" y="1484"/>
      <point x="641" y="1496" type="curve" smooth="yes"/>
      <point x="638" y="1508"/>
      <point x="630" y="1510"/>
      <point x="619" y="1506" type="curve" smooth="yes"/>
      <point x="345" y="1410"/>
      <point x="155" y="1218"/>
      <point x="155" y="741" type="curve" smooth="yes"/>
      <point x="155" y="288"/>
      <point x="366" y="-19"/>
      <point x="704" y="-19" type="curve" smooth="yes"/>
      <point x="1049" y="-19"/>
      <point x="1285" y="300"/>
      <point x="1285" y="761" type="curve" smooth="yes"/>
      <point x="1285" y="1225"/>
      <point x="1070" y="1515"/>
    </contour>
  </outline>
</glyph>
<glyph name="OE.cur" format="2">
  <advance width="2044"/>
  <anchor x="1146" y="1424" name="top"/>
  <outline>
    <contour>
      <point x="684" y="-19" type="curve" smooth="yes"/>
      <point x="999" y="-19"/>
      <point x="1206" y="285"/>
      <point x="1206" y="749" type="curve" smooth="yes"/>
      <point x="1206" y="1211"/>
      <point x="1031" y="1515"/>
      <point x="764" y="1515" type="curve" smooth="yes"/>
      <point x="603" y="1515"/>
      <point x="485" y="1379"/>
      <point x="406" y="1130" type="curve" smooth="yes"/>
      <point x="400" y="1113"/>
      <point x="401" y="1104"/>
      <point x="413" y="1099" type="curve" smooth="yes"/>
      <point x="425" y="1094"/>
      <point x="434" y="1098"/>
      <point x="438" y="1111" type="curve" smooth="yes"/>
      <point x="510" y="1348"/>
      <point x="618" y="1478"/>
      <point x="766" y="1478" type="curve" smooth="yes"/>
      <point x="1006" y="1478"/>
      <point x="1165" y="1189"/>
      <point x="1165" y="749" type="curve" smooth="yes"/>
      <point x="1165" y="308"/>
      <point x="974" y="19"/>
      <point x="684" y="19" type="curve" smooth="yes"/>
      <point x="390" y="19"/>
      <point x="199" y="308"/>
      <point x="199" y="749" type="curve" smooth="yes"/>
      <point x="199" y="1009"/>
      <point x="279" y="1228"/>
      <point x="428" y="1376" type="curve" smooth="yes"/>
      <point x="439" y="1388"/>
      <point x="440" y="1396"/>
      <point x="433" y="1405" type="curve" smooth="yes"/>
      <point x="424" y="1416"/>
      <point x="414" y="1415"/>
      <point x="400" y="1401" type="curve" smooth="yes"/>
      <point x="241" y="1235"/>
      <point x="158" y="1009"/>
      <point x="158" y="749" type="curve" smooth="yes"/>
      <point x="158" y="285"/>
      <point x="365" y="-19"/>
    </contour>
    <contour>
      <point x="1533" y="-19" type="curve" smooth="yes"/>
      <point x="1713" y="-19"/>
      <point x="1858" y="90"/>
      <point x="1955" y="295" type="curve" smooth="yes"/>
      <point x="1963" y="311"/>
      <point x="1960" y="320"/>
      <point x="1950" y="325" type="curve" smooth="yes"/>
      <point x="1938" y="331"/>
      <point x="1931" y="328"/>
      <point x="1925" y="315" type="curve" smooth="yes"/>
      <point x="1835" y="121"/>
      <point x="1699" y="19"/>
      <point x="1533" y="19" type="curve" smooth="yes"/>
      <point x="1314" y="19"/>
      <point x="1171" y="161"/>
      <point x="1171" y="380" type="curve" smooth="yes"/>
      <point x="1171" y="605"/>
      <point x="1329" y="768"/>
      <point x="1545" y="768" type="curve" smooth="yes"/>
      <point x="1726" y="768" type="line" smooth="yes"/>
      <point x="1733" y="768"/>
      <point x="1738" y="773"/>
      <point x="1738" y="785" type="curve" smooth="yes"/>
      <point x="1738" y="798"/>
      <point x="1733" y="803"/>
      <point x="1726" y="803" type="curve" smooth="yes"/>
      <point x="1545" y="803" type="line" smooth="yes"/>
      <point x="1366" y="803"/>
      <point x="1243" y="941"/>
      <point x="1243" y="1145" type="curve" smooth="yes"/>
      <point x="1243" y="1338"/>
      <point x="1371" y="1478"/>
      <point x="1548" y="1478" type="curve" smooth="yes"/>
      <point x="1679" y="1478"/>
      <point x="1803" y="1413"/>
      <point x="1880" y="1301" type="curve" smooth="yes"/>
      <point x="1888" y="1291"/>
      <point x="1896" y="1290"/>
      <point x="1908" y="1300" type="curve" smooth="yes"/>
      <point x="1914" y="1306"/>
      <point x="1914" y="1315"/>
      <point x="1905" y="1328" type="curve" smooth="yes"/>
      <point x="1824" y="1445"/>
      <point x="1690" y="1515"/>
      <point x="1546" y="1515" type="curve" smooth="yes"/>
      <point x="1346" y="1515"/>
      <point x="1201" y="1359"/>
      <point x="1201" y="1144" type="curve" smooth="yes"/>
      <point x="1201" y="970"/>
      <point x="1291" y="830"/>
      <point x="1424" y="788" type="curve"/>
      <point x="1254" y="744"/>
      <point x="1130" y="571"/>
      <point x="1130" y="380" type="curve" smooth="yes"/>
      <point x="1130" y="139"/>
      <point x="1289" y="-19"/>
    </contour>
  </outline>
</glyph>
<glyph name="Q.cur" format="2">
  <advance width="1479"/>
  <outline>
    <contour>
      <point x="1150" y="-180" type="curve" smooth="yes"/>
      <point x="1249" y="-180"/>
      <point x="1325" y="-89"/>
      <point x="1384" y="83" type="curve" smooth="yes"/>
      <point x="1388" y="93"/>
      <point x="1389" y="101"/>
      <point x="1378" y="108" type="curve" smooth="yes"/>
      <point x="1365" y="115"/>
      <point x="1356" y="111"/>
      <point x="1351" y="98" type="curve" smooth="yes"/>
      <point x="1296" y="-64"/>
      <point x="1230" y="-142"/>
      <point x="1151" y="-142" type="curve" smooth="yes"/>
      <point x="976" y="-142"/>
      <point x="895" y="429"/>
      <point x="621" y="429" type="curve" smooth="yes"/>
      <point x="515" y="429"/>
      <point x="440" y="350"/>
      <point x="440" y="241" type="curve" smooth="yes"/>
      <point x="440" y="90"/>
      <point x="568" y="-19"/>
      <point x="744" y="-19" type="curve" smooth="yes"/>
      <point x="1070" y="-19"/>
      <point x="1284" y="285"/>
      <point x="1284" y="749" type="curve" smooth="yes"/>
      <point x="1284" y="1211"/>
      <point x="1060" y="1515"/>
      <point x="719" y="1515" type="curve" smooth="yes"/>
      <point x="375" y="1515"/>
      <point x="150" y="1211"/>
      <point x="150" y="749" type="curve" smooth="yes"/>
      <point x="150" y="596"/>
      <point x="180" y="426"/>
      <point x="243" y="306" type="curve" smooth="yes"/>
      <point x="253" y="288"/>
      <point x="286" y="306"/>
      <point x="276" y="325" type="curve" smooth="yes"/>
      <point x="209" y="459"/>
      <point x="191" y="620"/>
      <point x="191" y="749" type="curve" smooth="yes"/>
      <point x="191" y="1189"/>
      <point x="400" y="1478"/>
      <point x="719" y="1478" type="curve" smooth="yes"/>
      <point x="1035" y="1478"/>
      <point x="1243" y="1189"/>
      <point x="1243" y="749" type="curve" smooth="yes"/>
      <point x="1243" y="309"/>
      <point x="1045" y="19"/>
      <point x="744" y="19" type="curve" smooth="yes"/>
      <point x="591" y="19"/>
      <point x="481" y="113"/>
      <point x="481" y="241" type="curve" smooth="yes"/>
      <point x="481" y="328"/>
      <point x="538" y="391"/>
      <point x="618" y="391" type="curve" smooth="yes"/>
      <point x="868" y="391"/>
      <point x="939" y="-180"/>
    </contour>
  </outline>
</glyph>
<glyph name="Q.cur.ini" format="2">
  <advance width="1459"/>
  <anchor x="1460" y="0" name="cnct"/>
  <outline>
    <contour>
      <point x="1355" y="-17" type="curve" smooth="yes"/>
      <point x="1380" y="-17"/>
      <point x="1380" y="18"/>
      <point x="1355" y="18" type="curve" smooth="yes"/>
      <point x="1206" y="18"/>
      <point x="988" y="429"/>
      <point x="671" y="429" type="curve" smooth="yes"/>
      <point x="515" y="429"/>
      <point x="440" y="350"/>
      <point x="440" y="241" type="curve" smooth="yes"/>
      <point x="440" y="90"/>
      <point x="568" y="-19"/>
      <point x="744" y="-19" type="curve" smooth="yes"/>
      <point x="1070" y="-19"/>
      <point x="1284" y="285"/>
      <point x="1284" y="749" type="curve" smooth="yes"/>
      <point x="1284" y="1211"/>
      <point x="1060" y="1515"/>
      <point x="719" y="1515" type="curve" smooth="yes"/>
      <point x="375" y="1515"/>
      <point x="150" y="1211"/>
      <point x="150" y="749" type="curve" smooth="yes"/>
      <point x="150" y="596"/>
      <point x="180" y="426"/>
      <point x="243" y="306" type="curve" smooth="yes"/>
      <point x="253" y="288"/>
      <point x="286" y="306"/>
      <point x="276" y="325" type="curve" smooth="yes"/>
      <point x="209" y="459"/>
      <point x="191" y="620"/>
      <point x="191" y="749" type="curve" smooth="yes"/>
      <point x="191" y="1189"/>
      <point x="400" y="1478"/>
      <point x="719" y="1478" type="curve" smooth="yes"/>
      <point x="1035" y="1478"/>
      <point x="1243" y="1189"/>
      <point x="1243" y="749" type="curve" smooth="yes"/>
      <point x="1243" y="309"/>
      <point x="1045" y="19"/>
      <point x="744" y="19" type="curve" smooth="yes"/>
      <point x="591" y="19"/>
      <point x="481" y="113"/>
      <point x="481" y="241" type="curve" smooth="yes"/>
      <point x="481" y="328"/>
      <point x="538" y="391"/>
      <point x="668" y="391" type="curve" smooth="yes"/>
      <point x="979" y="391"/>
      <point x="1168" y="-17"/>
    </contour>
  </outline>
</glyph>
<glyph name="Q.cur_locl" format="2">
  <advance width="1479"/>
  <anchor x="718" y="0" name="bottom"/>
  <anchor x="718" y="744" name="center"/>
  <anchor x="916" y="11" name="ogonek"/>
  <anchor x="718" y="1424" name="top"/>
  <anchor x="1005" y="1424" name="topright"/>
  <outline>
    <contour>
      <point x="1150" y="-180" type="curve" smooth="yes"/>
      <point x="1249" y="-180"/>
      <point x="1325" y="-89"/>
      <point x="1384" y="83" type="curve" smooth="yes"/>
      <point x="1388" y="93"/>
      <point x="1389" y="101"/>
      <point x="1378" y="108" type="curve" smooth="yes"/>
      <point x="1365" y="115"/>
      <point x="1356" y="111"/>
      <point x="1351" y="98" type="curve" smooth="yes"/>
      <point x="1296" y="-64"/>
      <point x="1230" y="-142"/>
      <point x="1153" y="-142" type="curve" smooth="yes"/>
      <point x="985" y="-142"/>
      <point x="910" y="429"/>
      <point x="653" y="429" type="curve" smooth="yes"/>
      <point x="628" y="429"/>
      <point x="624" y="391"/>
      <point x="649" y="391" type="curve" smooth="yes"/>
      <point x="884" y="391"/>
      <point x="950" y="-180"/>
    </contour>
    <component base="O"/>
  </outline>
</glyph>
<glyph name="Q.cur_locl.ini" format="2">
  <advance width="1459"/>
  <anchor x="1460" y="0" name="cnct"/>
  <anchor x="718" y="0" name="bottom"/>
  <anchor x="718" y="744" name="center"/>
  <anchor x="916" y="11" name="ogonek"/>
  <anchor x="718" y="1424" name="top"/>
  <anchor x="1005" y="1424" name="topright"/>
  <outline>
    <contour>
      <point x="1355" y="-17" type="curve" smooth="yes"/>
      <point x="1380" y="-17"/>
      <point x="1380" y="18"/>
      <point x="1355" y="18" type="curve" smooth="yes"/>
      <point x="1185" y="18"/>
      <point x="1059" y="429"/>
      <point x="653" y="429" type="curve" smooth="yes"/>
      <point x="628" y="429"/>
      <point x="624" y="391"/>
      <point x="649" y="391" type="curve" smooth="yes"/>
      <point x="1051" y="391"/>
      <point x="1149" y="-17"/>
    </contour>
    <component base="O"/>
  </outline>
</glyph>
<glyph name="Q.dec_pt.ini" format="2">
  <advance width="1100"/>
  <anchor x="1100" y="0" name="cnct"/>
  <outline>
    <contour>
      <point x="910" y="1194" type="curve"/>
      <point x="910" y="826" type="line" smooth="yes"/>
      <point x="910" y="374"/>
      <point x="688" y="15"/>
      <point x="518" y="15" type="curve" smooth="yes"/>
      <point x="454" y="15"/>
      <point x="415" y="50"/>
      <point x="415" y="106" type="curve" smooth="yes"/>
      <point x="415" y="156"/>
      <point x="451" y="199"/>
      <point x="514" y="199" type="curve" smooth="yes"/>
      <point x="685" y="199"/>
      <point x="861" y="-17"/>
      <point x="996" y="-17" type="curve" smooth="yes"/>
      <point x="1021" y="-17"/>
      <point x="1021" y="18"/>
      <point x="996" y="18" type="curve" smooth="yes"/>
      <point x="886" y="18"/>
      <point x="699" y="234"/>
      <point x="514" y="234" type="curve" smooth="yes"/>
      <point x="428" y="234"/>
      <point x="374" y="176"/>
      <point x="374" y="105" type="curve" smooth="yes"/>
      <point x="374" y="28"/>
      <point x="429" y="-20"/>
      <point x="518" y="-20" type="curve" smooth="yes"/>
      <point x="719" y="-20"/>
      <point x="948" y="359"/>
      <point x="948" y="826" type="curve" smooth="yes"/>
      <point x="948" y="1309" type="line" smooth="yes"/>
      <point x="948" y="1320"/>
      <point x="943" y="1324"/>
      <point x="929" y="1324" type="curve" smooth="yes"/>
      <point x="915" y="1324"/>
      <point x="910" y="1320"/>
      <point x="910" y="1308" type="curve"/>
      <point x="836" y="971"/>
      <point x="635" y="728"/>
      <point x="430" y="728" type="curve" smooth="yes"/>
      <point x="319" y="728"/>
      <point x="251" y="821"/>
      <point x="251" y="976" type="curve" smooth="yes"/>
      <point x="251" y="1218"/>
      <point x="434" y="1478"/>
      <point x="568" y="1478" type="curve" smooth="yes"/>
      <point x="623" y="1478"/>
      <point x="660" y="1446"/>
      <point x="660" y="1378" type="curve" smooth="yes"/>
      <point x="660" y="1231"/>
      <point x="510" y="1098"/>
      <point x="349" y="1098" type="curve" smooth="yes"/>
      <point x="256" y="1098"/>
      <point x="149" y="1126"/>
      <point x="96" y="1156" type="curve" smooth="yes"/>
      <point x="89" y="1161"/>
      <point x="81" y="1158"/>
      <point x="76" y="1146" type="curve" smooth="yes"/>
      <point x="70" y="1134"/>
      <point x="73" y="1129"/>
      <point x="84" y="1124" type="curve" smooth="yes"/>
      <point x="135" y="1100"/>
      <point x="231" y="1065"/>
      <point x="345" y="1065" type="curve"/>
      <point x="526" y="1065"/>
      <point x="700" y="1206"/>
      <point x="700" y="1376" type="curve" smooth="yes"/>
      <point x="700" y="1463"/>
      <point x="653" y="1515"/>
      <point x="568" y="1515" type="curve" smooth="yes"/>
      <point x="409" y="1515"/>
      <point x="211" y="1239"/>
      <point x="211" y="976" type="curve" smooth="yes"/>
      <point x="211" y="799"/>
      <point x="293" y="690"/>
      <point x="428" y="690" type="curve" smooth="yes"/>
      <point x="635" y="690"/>
      <point x="826" y="897"/>
    </contour>
  </outline>
</glyph>
<glyph name="Q_locl" format="2">
  <advance width="1409"/>
  <outline>
    <contour>
      <point x="550" y="-17" type="curve" smooth="yes"/>
      <point x="803" y="-17"/>
      <point x="1028" y="290"/>
      <point x="1115" y="735" type="curve"/>
      <point x="1115" y="-1000" type="line" smooth="yes"/>
      <point x="1115" y="-1011"/>
      <point x="1120" y="-1015"/>
      <point x="1134" y="-1015" type="curve" smooth="yes"/>
      <point x="1148" y="-1015"/>
      <point x="1153" y="-1011"/>
      <point x="1153" y="-1000" type="curve" smooth="yes"/>
      <point x="1153" y="929" type="line" smooth="yes"/>
      <point x="1153" y="940"/>
      <point x="1146" y="944"/>
      <point x="1134" y="944" type="curve" smooth="yes"/>
      <point x="1120" y="944"/>
      <point x="1115" y="940"/>
      <point x="1115" y="929" type="curve"/>
      <point x="1049" y="401"/>
      <point x="813" y="20"/>
      <point x="553" y="20" type="curve" smooth="yes"/>
      <point x="319" y="20"/>
      <point x="176" y="264"/>
      <point x="176" y="665" type="curve" smooth="yes"/>
      <point x="176" y="1170"/>
      <point x="379" y="1478"/>
      <point x="711" y="1478" type="curve" smooth="yes"/>
      <point x="885" y="1478"/>
      <point x="1029" y="1403"/>
      <point x="1138" y="1255" type="curve" smooth="yes"/>
      <point x="1145" y="1245"/>
      <point x="1154" y="1244"/>
      <point x="1164" y="1251" type="curve" smooth="yes"/>
      <point x="1171" y="1258"/>
      <point x="1173" y="1265"/>
      <point x="1168" y="1274" type="curve"/>
      <point x="1049" y="1434"/>
      <point x="895" y="1515"/>
      <point x="711" y="1515" type="curve" smooth="yes"/>
      <point x="354" y="1515"/>
      <point x="135" y="1194"/>
      <point x="135" y="665" type="curve" smooth="yes"/>
      <point x="135" y="241"/>
      <point x="293" y="-17"/>
    </contour>
  </outline>
</glyph>
<glyph name="S.dec" format="2">
  <advance width="1335"/>
  <anchor x="459" y="0" name="bottom"/>
  <anchor x="973" y="1488" name="top"/>
  <outline>
    <contour>
      <point x="461" y="-17" type="curve" smooth="yes"/>
      <point x="618" y="-17"/>
      <point x="700" y="95"/>
      <point x="700" y="341" type="curve" smooth="yes"/>
      <point x="700" y="939" type="line" smooth="yes"/>
      <point x="700" y="1253"/>
      <point x="828" y="1480"/>
      <point x="1005" y="1480" type="curve" smooth="yes"/>
      <point x="1106" y="1480"/>
      <point x="1160" y="1414"/>
      <point x="1160" y="1298" type="curve" smooth="yes"/>
      <point x="1160" y="1031"/>
      <point x="926" y="839"/>
      <point x="603" y="839" type="curve" smooth="yes"/>
      <point x="430" y="839"/>
      <point x="255" y="884"/>
      <point x="99" y="954" type="curve" smooth="yes"/>
      <point x="89" y="959"/>
      <point x="80" y="955"/>
      <point x="76" y="945" type="curve" smooth="yes"/>
      <point x="70" y="934"/>
      <point x="73" y="925"/>
      <point x="84" y="920" type="curve" smooth="yes"/>
      <point x="251" y="848"/>
      <point x="406" y="804"/>
      <point x="599" y="804" type="curve" smooth="yes"/>
      <point x="949" y="804"/>
      <point x="1201" y="1011"/>
      <point x="1201" y="1298" type="curve" smooth="yes"/>
      <point x="1201" y="1435"/>
      <point x="1124" y="1515"/>
      <point x="1005" y="1515" type="curve" smooth="yes"/>
      <point x="806" y="1515"/>
      <point x="663" y="1273"/>
      <point x="663" y="939" type="curve" smooth="yes"/>
      <point x="663" y="341" type="line" smooth="yes"/>
      <point x="663" y="119"/>
      <point x="593" y="18"/>
      <point x="461" y="18" type="curve" smooth="yes"/>
      <point x="354" y="18"/>
      <point x="260" y="86"/>
      <point x="176" y="223" type="curve" smooth="yes"/>
      <point x="171" y="230"/>
      <point x="163" y="231"/>
      <point x="153" y="224" type="curve" smooth="yes"/>
      <point x="144" y="219"/>
      <point x="141" y="209"/>
      <point x="148" y="200" type="curve" smooth="yes"/>
      <point x="238" y="56"/>
      <point x="341" y="-17"/>
    </contour>
  </outline>
</glyph>
<glyph name="T.cur" format="2">
  <advance width="1118"/>
  <anchor x="670" y="0" name="bottom"/>
  <anchor x="430" y="744" name="center"/>
  <anchor x="619" y="1424" name="top"/>
  <outline>
    <contour>
      <point x="678" y="-19" type="curve" smooth="yes"/>
      <point x="811" y="-19"/>
      <point x="935" y="89"/>
      <point x="1025" y="270" type="curve" smooth="yes"/>
      <point x="1030" y="279"/>
      <point x="1026" y="288"/>
      <point x="1018" y="293" type="curve" smooth="yes"/>
      <point x="1006" y="299"/>
      <point x="998" y="296"/>
      <point x="994" y="288" type="curve" smooth="yes"/>
      <point x="923" y="125"/>
      <point x="800" y="19"/>
      <point x="685" y="19" type="curve" smooth="yes"/>
      <point x="500" y="19"/>
      <point x="391" y="189"/>
      <point x="391" y="478" type="curve" smooth="yes"/>
      <point x="391" y="711"/>
      <point x="473" y="1044"/>
      <point x="656" y="1453" type="curve"/>
      <point x="1022" y="1453" type="line" smooth="yes"/>
      <point x="1028" y="1453"/>
      <point x="1033" y="1459"/>
      <point x="1033" y="1471" type="curve" smooth="yes"/>
      <point x="1033" y="1484"/>
      <point x="1028" y="1488"/>
      <point x="1022" y="1488" type="curve" smooth="yes"/>
      <point x="355" y="1488" type="line" smooth="yes"/>
      <point x="188" y="1488"/>
      <point x="71" y="1405"/>
      <point x="26" y="1198" type="curve" smooth="yes"/>
      <point x="23" y="1183"/>
      <point x="28" y="1176"/>
      <point x="40" y="1174" type="curve" smooth="yes"/>
      <point x="54" y="1171"/>
      <point x="59" y="1176"/>
      <point x="61" y="1189" type="curve" smooth="yes"/>
      <point x="101" y="1374"/>
      <point x="200" y="1453"/>
      <point x="350" y="1453" type="curve" smooth="yes"/>
      <point x="614" y="1453" type="line"/>
      <point x="440" y="1066"/>
      <point x="350" y="719"/>
      <point x="350" y="480" type="curve" smooth="yes"/>
      <point x="350" y="166"/>
      <point x="471" y="-19"/>
    </contour>
  </outline>
</glyph>
<glyph name="T.cur.ini" format="2">
  <advance width="938"/>
  <anchor x="670" y="0" name="bottom"/>
  <anchor x="430" y="744" name="center"/>
  <anchor x="938" y="0" name="cnct"/>
  <anchor x="619" y="1424" name="top"/>
  <outline>
    <contour>
      <point x="695" y="-17" type="curve" smooth="yes"/>
      <point x="720" y="-17"/>
      <point x="725" y="16"/>
      <point x="700" y="16" type="curve" smooth="yes"/>
      <point x="509" y="16"/>
      <point x="371" y="209"/>
      <point x="371" y="473" type="curve" smooth="yes"/>
      <point x="371" y="758"/>
      <point x="467" y="1088"/>
      <point x="656" y="1453" type="curve"/>
      <point x="1013" y="1453" type="line" smooth="yes"/>
      <point x="1019" y="1453"/>
      <point x="1024" y="1459"/>
      <point x="1024" y="1471" type="curve" smooth="yes"/>
      <point x="1024" y="1484"/>
      <point x="1019" y="1488"/>
      <point x="1013" y="1488" type="curve" smooth="yes"/>
      <point x="355" y="1488" type="line" smooth="yes"/>
      <point x="188" y="1488"/>
      <point x="71" y="1405"/>
      <point x="26" y="1198" type="curve" smooth="yes"/>
      <point x="23" y="1183"/>
      <point x="28" y="1176"/>
      <point x="40" y="1174" type="curve" smooth="yes"/>
      <point x="54" y="1171"/>
      <point x="59" y="1176"/>
      <point x="61" y="1189" type="curve" smooth="yes"/>
      <point x="101" y="1374"/>
      <point x="200" y="1453"/>
      <point x="350" y="1453" type="curve" smooth="yes"/>
      <point x="614" y="1453" type="line"/>
      <point x="426" y="1090"/>
      <point x="330" y="760"/>
      <point x="330" y="475" type="curve" smooth="yes"/>
      <point x="330" y="189"/>
      <point x="483" y="-17"/>
    </contour>
  </outline>
</glyph>
<glyph name="T.cur_locl.ini" format="2">
  <advance width="1103"/>
  <anchor x="813" y="0" name="bottom"/>
  <anchor x="541" y="658" name="center"/>
  <anchor x="1103" y="0" name="cnct"/>
  <anchor x="813" y="1424" name="top"/>
  <outline>
    <contour>
      <point x="860" y="-17" type="curve" smooth="yes"/>
      <point x="885" y="-17"/>
      <point x="890" y="16"/>
      <point x="865" y="16" type="curve" smooth="yes"/>
      <point x="633" y="16"/>
      <point x="466" y="214"/>
      <point x="466" y="486" type="curve" smooth="yes"/>
      <point x="466" y="540"/>
      <point x="473" y="591"/>
      <point x="484" y="640" type="curve"/>
      <point x="813" y="640" type="line" smooth="yes"/>
      <point x="820" y="640"/>
      <point x="824" y="648"/>
      <point x="824" y="659" type="curve" smooth="yes"/>
      <point x="824" y="670"/>
      <point x="820" y="675"/>
      <point x="813" y="675" type="curve" smooth="yes"/>
      <point x="494" y="675" type="line"/>
      <point x="569" y="949"/>
      <point x="808" y="1180"/>
      <point x="1214" y="1450" type="curve" smooth="yes"/>
      <point x="1225" y="1456"/>
      <point x="1229" y="1468"/>
      <point x="1219" y="1483" type="curve" smooth="yes"/>
      <point x="1212" y="1494"/>
      <point x="1202" y="1494"/>
      <point x="1189" y="1485" type="curve" smooth="yes"/>
      <point x="1117" y="1440"/>
      <point x="1029" y="1423"/>
      <point x="939" y="1423" type="curve" smooth="yes"/>
      <point x="782" y="1423"/>
      <point x="711" y="1515"/>
      <point x="539" y="1515" type="curve" smooth="yes"/>
      <point x="373" y="1515"/>
      <point x="240" y="1411"/>
      <point x="113" y="1233" type="curve" smooth="yes"/>
      <point x="105" y="1223"/>
      <point x="106" y="1214"/>
      <point x="114" y="1208" type="curve" smooth="yes"/>
      <point x="125" y="1198"/>
      <point x="136" y="1198"/>
      <point x="144" y="1208" type="curve" smooth="yes"/>
      <point x="262" y="1378"/>
      <point x="384" y="1478"/>
      <point x="539" y="1478" type="curve" smooth="yes"/>
      <point x="700" y="1478"/>
      <point x="771" y="1385"/>
      <point x="939" y="1385" type="curve" smooth="yes"/>
      <point x="979" y="1385"/>
      <point x="1040" y="1390"/>
      <point x="1088" y="1405" type="curve"/>
      <point x="742" y="1164"/>
      <point x="523" y="938"/>
      <point x="453" y="675" type="curve"/>
      <point x="229" y="675" type="line" smooth="yes"/>
      <point x="221" y="675"/>
      <point x="218" y="670"/>
      <point x="218" y="659" type="curve" smooth="yes"/>
      <point x="218" y="648"/>
      <point x="221" y="640"/>
      <point x="229" y="640" type="curve" smooth="yes"/>
      <point x="443" y="640" type="line"/>
      <point x="431" y="591"/>
      <point x="425" y="540"/>
      <point x="425" y="486" type="curve" smooth="yes"/>
      <point x="425" y="194"/>
      <point x="607" y="-17"/>
    </contour>
  </outline>
</glyph>
<glyph name="T.dec" format="2">
  <advance width="1118"/>
  <anchor x="471" y="0" name="bottom"/>
  <anchor x="610" y="744" name="center"/>
  <anchor x="609" y="1424" name="top"/>
  <outline>
    <contour>
      <point x="470" y="-19" type="curve" smooth="yes"/>
      <point x="570" y="-19"/>
      <point x="629" y="65"/>
      <point x="629" y="206" type="curve" smooth="yes"/>
      <point x="629" y="1453" type="line"/>
      <point x="1083" y="1453" type="line" smooth="yes"/>
      <point x="1089" y="1453"/>
      <point x="1094" y="1459"/>
      <point x="1094" y="1471" type="curve" smooth="yes"/>
      <point x="1094" y="1484"/>
      <point x="1089" y="1488"/>
      <point x="1083" y="1488" type="curve" smooth="yes"/>
      <point x="355" y="1488" type="line" smooth="yes"/>
      <point x="188" y="1488"/>
      <point x="71" y="1405"/>
      <point x="26" y="1198" type="curve" smooth="yes"/>
      <point x="23" y="1183"/>
      <point x="28" y="1176"/>
      <point x="40" y="1174" type="curve" smooth="yes"/>
      <point x="54" y="1171"/>
      <point x="59" y="1176"/>
      <point x="61" y="1189" type="curve" smooth="yes"/>
      <point x="101" y="1374"/>
      <point x="200" y="1453"/>
      <point x="350" y="1453" type="curve" smooth="yes"/>
      <point x="591" y="1453" type="line"/>
      <point x="591" y="206" type="line" smooth="yes"/>
      <point x="591" y="88"/>
      <point x="554" y="18"/>
      <point x="470" y="18" type="curve" smooth="yes"/>
      <point x="379" y="18"/>
      <point x="308" y="88"/>
      <point x="253" y="235" type="curve" smooth="yes"/>
      <point x="249" y="244"/>
      <point x="240" y="246"/>
      <point x="229" y="240" type="curve" smooth="yes"/>
      <point x="219" y="235"/>
      <point x="216" y="226"/>
      <point x="220" y="218" type="curve" smooth="yes"/>
      <point x="279" y="58"/>
      <point x="359" y="-19"/>
    </contour>
  </outline>
</glyph>
<glyph name="W.dec" format="2">
  <advance width="2204"/>
  <anchor x="1171" y="0" name="bottom"/>
  <anchor x="1180" y="1424" name="top"/>
  <outline>
    <contour>
      <point x="795" y="-17" type="curve" smooth="yes"/>
      <point x="810" y="-17"/>
      <point x="816" y="-10"/>
      <point x="820" y="5" type="curve" smooth="yes"/>
      <point x="1180" y="1451" type="line"/>
      <point x="1249" y="1035"/>
      <point x="1335" y="660"/>
      <point x="1511" y="5" type="curve" smooth="yes"/>
      <point x="1515" y="-9"/>
      <point x="1523" y="-17"/>
      <point x="1538" y="-17" type="curve" smooth="yes"/>
      <point x="1553" y="-17"/>
      <point x="1560" y="-10"/>
      <point x="1563" y="5" type="curve" smooth="yes"/>
      <point x="1750" y="1165"/>
      <point x="1856" y="1479"/>
      <point x="2071" y="1479" type="curve" smooth="yes"/>
      <point x="2081" y="1479"/>
      <point x="2130" y="1475"/>
      <point x="2144" y="1471" type="curve" smooth="yes"/>
      <point x="2153" y="1469"/>
      <point x="2160" y="1473"/>
      <point x="2163" y="1485" type="curve" smooth="yes"/>
      <point x="2165" y="1496"/>
      <point x="2163" y="1503"/>
      <point x="2155" y="1505" type="curve" smooth="yes"/>
      <point x="2130" y="1513"/>
      <point x="2080" y="1515"/>
      <point x="2074" y="1515" type="curve" smooth="yes"/>
      <point x="1821" y="1515"/>
      <point x="1714" y="1170"/>
      <point x="1536" y="51" type="curve"/>
      <point x="1366" y="689"/>
      <point x="1281" y="1059"/>
      <point x="1209" y="1494" type="curve" smooth="yes"/>
      <point x="1208" y="1508"/>
      <point x="1200" y="1515"/>
      <point x="1181" y="1515" type="curve" smooth="yes"/>
      <point x="1165" y="1515"/>
      <point x="1159" y="1508"/>
      <point x="1155" y="1494" type="curve" smooth="yes"/>
      <point x="796" y="48" type="line"/>
      <point x="591" y="1201"/>
      <point x="481" y="1515"/>
      <point x="265" y="1515" type="curve" smooth="yes"/>
      <point x="145" y="1515"/>
      <point x="103" y="1390"/>
      <point x="103" y="1264" type="curve" smooth="yes"/>
      <point x="103" y="1203"/>
      <point x="110" y="1150"/>
      <point x="120" y="1113" type="curve" smooth="yes"/>
      <point x="123" y="1101"/>
      <point x="131" y="1095"/>
      <point x="144" y="1099" type="curve" smooth="yes"/>
      <point x="156" y="1103"/>
      <point x="160" y="1111"/>
      <point x="158" y="1124" type="curve" smooth="yes"/>
      <point x="148" y="1170"/>
      <point x="143" y="1219"/>
      <point x="143" y="1265" type="curve" smooth="yes"/>
      <point x="143" y="1379"/>
      <point x="173" y="1479"/>
      <point x="266" y="1479" type="curve" smooth="yes"/>
      <point x="449" y="1479"/>
      <point x="556" y="1165"/>
      <point x="769" y="5" type="curve" smooth="yes"/>
      <point x="771" y="-9"/>
      <point x="780" y="-17"/>
    </contour>
  </outline>
</glyph>
<glyph name="X.cur" format="2">
  <advance width="1285"/>
  <guideline x="658"/>
  <outline>
    <contour>
      <point x="1066" y="-19" type="curve" smooth="yes"/>
      <point x="1139" y="-19"/>
      <point x="1206" y="55"/>
      <point x="1260" y="194" type="curve" smooth="yes"/>
      <point x="1263" y="201"/>
      <point x="1260" y="210"/>
      <point x="1253" y="214" type="curve" smooth="yes"/>
      <point x="1241" y="220"/>
      <point x="1230" y="218"/>
      <point x="1226" y="206" type="curve" smooth="yes"/>
      <point x="1180" y="83"/>
      <point x="1125" y="18"/>
      <point x="1068" y="18" type="curve" smooth="yes"/>
      <point x="1003" y="18"/>
      <point x="965" y="71"/>
      <point x="869" y="269" type="curve" smooth="yes"/>
      <point x="633" y="755" type="line"/>
      <point x="1039" y="1488" type="line" smooth="yes"/>
      <point x="1044" y="1495"/>
      <point x="1040" y="1503"/>
      <point x="1033" y="1508" type="curve" smooth="yes"/>
      <point x="1021" y="1515"/>
      <point x="1011" y="1513"/>
      <point x="1008" y="1505" type="curve" smooth="yes"/>
      <point x="614" y="794" type="line"/>
      <point x="401" y="1259" type="line" smooth="yes"/>
      <point x="314" y="1449"/>
      <point x="284" y="1513"/>
      <point x="173" y="1513" type="curve" smooth="yes"/>
      <point x="126" y="1513"/>
      <point x="63" y="1489"/>
      <point x="20" y="1456" type="curve" smooth="yes"/>
      <point x="13" y="1450"/>
      <point x="11" y="1443"/>
      <point x="18" y="1434" type="curve" smooth="yes"/>
      <point x="25" y="1423"/>
      <point x="36" y="1425"/>
      <point x="50" y="1434" type="curve" smooth="yes"/>
      <point x="94" y="1461"/>
      <point x="136" y="1476"/>
      <point x="173" y="1476" type="curve" smooth="yes"/>
      <point x="253" y="1476"/>
      <point x="290" y="1418"/>
      <point x="364" y="1251" type="curve" smooth="yes"/>
      <point x="581" y="765" type="line"/>
      <point x="158" y="13" type="line" smooth="yes"/>
      <point x="154" y="5"/>
      <point x="156" y="-2"/>
      <point x="168" y="-9" type="curve" smooth="yes"/>
      <point x="176" y="-14"/>
      <point x="188" y="-11"/>
      <point x="195" y="1" type="curve" smooth="yes"/>
      <point x="601" y="726" type="line"/>
      <point x="835" y="254" type="line" smooth="yes"/>
      <point x="929" y="66"/>
      <point x="971" y="-19"/>
    </contour>
  </outline>
</glyph>
<glyph name="X.dec.ini" format="2">
  <advance width="1235"/>
  <anchor x="1235" y="0" name="cnct"/>
  <outline>
    <contour>
      <point x="418" y="-17" type="curve" smooth="yes"/>
      <point x="561" y="-17"/>
      <point x="681" y="183"/>
      <point x="725" y="485" type="curve"/>
      <point x="760" y="161"/>
      <point x="865" y="-17"/>
      <point x="1026" y="-17" type="curve" smooth="yes"/>
      <point x="1051" y="-17"/>
      <point x="1051" y="18"/>
      <point x="1026" y="18" type="curve" smooth="yes"/>
      <point x="853" y="18"/>
      <point x="748" y="288"/>
      <point x="748" y="741" type="curve" smooth="yes"/>
      <point x="748" y="1169"/>
      <point x="864" y="1478"/>
      <point x="1029" y="1478" type="curve" smooth="yes"/>
      <point x="1095" y="1478"/>
      <point x="1161" y="1416"/>
      <point x="1224" y="1296" type="curve" smooth="yes"/>
      <point x="1229" y="1286"/>
      <point x="1239" y="1284"/>
      <point x="1249" y="1290" type="curve" smooth="yes"/>
      <point x="1259" y="1296"/>
      <point x="1261" y="1304"/>
      <point x="1256" y="1314" type="curve" smooth="yes"/>
      <point x="1188" y="1448"/>
      <point x="1110" y="1515"/>
      <point x="1029" y="1515" type="curve" smooth="yes"/>
      <point x="879" y="1515"/>
      <point x="766" y="1306"/>
      <point x="728" y="993" type="curve"/>
      <point x="686" y="1306"/>
      <point x="570" y="1515"/>
      <point x="411" y="1515" type="curve" smooth="yes"/>
      <point x="313" y="1515"/>
      <point x="228" y="1448"/>
      <point x="160" y="1316" type="curve" smooth="yes"/>
      <point x="155" y="1305"/>
      <point x="156" y="1296"/>
      <point x="166" y="1291" type="curve" smooth="yes"/>
      <point x="179" y="1285"/>
      <point x="186" y="1288"/>
      <point x="191" y="1298" type="curve" smooth="yes"/>
      <point x="251" y="1416"/>
      <point x="325" y="1478"/>
      <point x="411" y="1478" type="curve" smooth="yes"/>
      <point x="583" y="1478"/>
      <point x="708" y="1169"/>
      <point x="708" y="741" type="curve" smooth="yes"/>
      <point x="708" y="323"/>
      <point x="573" y="20"/>
      <point x="415" y="20" type="curve" smooth="yes"/>
      <point x="320" y="20"/>
      <point x="234" y="100"/>
      <point x="158" y="256" type="curve" smooth="yes"/>
      <point x="154" y="265"/>
      <point x="146" y="269"/>
      <point x="135" y="264" type="curve" smooth="yes"/>
      <point x="124" y="259"/>
      <point x="120" y="251"/>
      <point x="125" y="240" type="curve" smooth="yes"/>
      <point x="206" y="69"/>
      <point x="305" y="-17"/>
    </contour>
  </outline>
</glyph>
<glyph name="X.dec_locl" format="2">
  <advance width="1564"/>
  <outline>
    <contour>
      <point x="1084" y="-17" type="curve" smooth="yes"/>
      <point x="1201" y="-17"/>
      <point x="1324" y="80"/>
      <point x="1399" y="243" type="curve" smooth="yes"/>
      <point x="1403" y="251"/>
      <point x="1400" y="259"/>
      <point x="1389" y="264" type="curve" smooth="yes"/>
      <point x="1378" y="269"/>
      <point x="1370" y="266"/>
      <point x="1366" y="259" type="curve" smooth="yes"/>
      <point x="1296" y="109"/>
      <point x="1188" y="20"/>
      <point x="1086" y="20" type="curve" smooth="yes"/>
      <point x="911" y="20"/>
      <point x="805" y="293"/>
      <point x="805" y="741" type="curve" smooth="yes"/>
      <point x="805" y="1169"/>
      <point x="959" y="1478"/>
      <point x="1173" y="1478" type="curve" smooth="yes"/>
      <point x="1289" y="1478"/>
      <point x="1374" y="1384"/>
      <point x="1374" y="1255" type="curve" smooth="yes"/>
      <point x="1374" y="739"/>
      <point x="151" y="860"/>
      <point x="151" y="268" type="curve" smooth="yes"/>
      <point x="151" y="103"/>
      <point x="256" y="-17"/>
      <point x="400" y="-17" type="curve" smooth="yes"/>
      <point x="633" y="-17"/>
      <point x="800" y="301"/>
      <point x="800" y="741" type="curve" smooth="yes"/>
      <point x="800" y="1223"/>
      <point x="670" y="1515"/>
      <point x="456" y="1515" type="curve" smooth="yes"/>
      <point x="360" y="1515"/>
      <point x="258" y="1441"/>
      <point x="193" y="1316" type="curve" smooth="yes"/>
      <point x="186" y="1305"/>
      <point x="189" y="1296"/>
      <point x="199" y="1291" type="curve" smooth="yes"/>
      <point x="210" y="1285"/>
      <point x="219" y="1288"/>
      <point x="224" y="1298" type="curve" smooth="yes"/>
      <point x="281" y="1411"/>
      <point x="371" y="1478"/>
      <point x="454" y="1478" type="curve" smooth="yes"/>
      <point x="648" y="1478"/>
      <point x="765" y="1199"/>
      <point x="765" y="741" type="curve" smooth="yes"/>
      <point x="765" y="323"/>
      <point x="611" y="20"/>
      <point x="400" y="20" type="curve" smooth="yes"/>
      <point x="280" y="20"/>
      <point x="193" y="124"/>
      <point x="193" y="268" type="curve" smooth="yes"/>
      <point x="193" y="824"/>
      <point x="1415" y="705"/>
      <point x="1415" y="1255" type="curve" smooth="yes"/>
      <point x="1415" y="1406"/>
      <point x="1314" y="1515"/>
      <point x="1173" y="1515" type="curve" smooth="yes"/>
      <point x="934" y="1515"/>
      <point x="770" y="1190"/>
      <point x="770" y="741" type="curve" smooth="yes"/>
      <point x="770" y="270"/>
      <point x="889" y="-17"/>
    </contour>
  </outline>
</glyph>
<glyph name="X.dec_locl.ini" format="2">
  <advance width="1339"/>
  <anchor x="1339" y="0" name="cnct"/>
  <outline>
    <contour>
      <point x="1096" y="-17" type="curve" smooth="yes"/>
      <point x="1121" y="-17"/>
      <point x="1126" y="16"/>
      <point x="1101" y="16" type="curve" smooth="yes"/>
      <point x="918" y="16"/>
      <point x="805" y="290"/>
      <point x="805" y="741" type="curve" smooth="yes"/>
      <point x="805" y="1169"/>
      <point x="959" y="1478"/>
      <point x="1173" y="1478" type="curve" smooth="yes"/>
      <point x="1289" y="1478"/>
      <point x="1374" y="1384"/>
      <point x="1374" y="1255" type="curve" smooth="yes"/>
      <point x="1374" y="739"/>
      <point x="151" y="860"/>
      <point x="151" y="268" type="curve" smooth="yes"/>
      <point x="151" y="103"/>
      <point x="256" y="-17"/>
      <point x="400" y="-17" type="curve" smooth="yes"/>
      <point x="633" y="-17"/>
      <point x="800" y="301"/>
      <point x="800" y="741" type="curve" smooth="yes"/>
      <point x="800" y="1223"/>
      <point x="670" y="1515"/>
      <point x="456" y="1515" type="curve" smooth="yes"/>
      <point x="360" y="1515"/>
      <point x="258" y="1441"/>
      <point x="193" y="1316" type="curve" smooth="yes"/>
      <point x="186" y="1305"/>
      <point x="189" y="1296"/>
      <point x="199" y="1291" type="curve" smooth="yes"/>
      <point x="210" y="1285"/>
      <point x="219" y="1288"/>
      <point x="224" y="1298" type="curve" smooth="yes"/>
      <point x="281" y="1411"/>
      <point x="371" y="1478"/>
      <point x="454" y="1478" type="curve" smooth="yes"/>
      <point x="648" y="1478"/>
      <point x="765" y="1199"/>
      <point x="765" y="741" type="curve" smooth="yes"/>
      <point x="765" y="323"/>
      <point x="611" y="20"/>
      <point x="400" y="20" type="curve" smooth="yes"/>
      <point x="280" y="20"/>
      <point x="193" y="124"/>
      <point x="193" y="268" type="curve" smooth="yes"/>
      <point x="193" y="824"/>
      <point x="1415" y="705"/>
      <point x="1415" y="1255" type="curve" smooth="yes"/>
      <point x="1415" y="1406"/>
      <point x="1314" y="1515"/>
      <point x="1173" y="1515" type="curve" smooth="yes"/>
      <point x="934" y="1515"/>
      <point x="770" y="1190"/>
      <point x="770" y="741" type="curve" smooth="yes"/>
      <point x="770" y="270"/>
      <point x="894" y="-17"/>
    </contour>
  </outline>
</glyph>
<glyph name="X.dec_ro" format="2">
  <advance width="1435"/>
  <outline>
    <contour>
      <point x="441" y="745" type="curve" smooth="yes"/>
      <point x="1010" y="745" type="line" smooth="yes"/>
      <point x="1018" y="745"/>
      <point x="1021" y="753"/>
      <point x="1021" y="764" type="curve" smooth="yes"/>
      <point x="1021" y="775"/>
      <point x="1018" y="780"/>
      <point x="1010" y="780" type="curve" smooth="yes"/>
      <point x="441" y="780" type="line" smooth="yes"/>
      <point x="434" y="780"/>
      <point x="430" y="775"/>
      <point x="430" y="764" type="curve" smooth="yes"/>
      <point x="430" y="753"/>
      <point x="434" y="745"/>
    </contour>
    <component base="X.dec"/>
  </outline>
</glyph>
<glyph name="Y.cur" format="2">
  <advance width="1240"/>
  <anchor x="1275" y="0" name="bottom"/>
  <anchor x="698" y="1424" name="top"/>
  <outline>
    <contour>
      <point x="845" y="-1020" type="curve" smooth="yes"/>
      <point x="989" y="-1020"/>
      <point x="1065" y="-879"/>
      <point x="1065" y="-600" type="curve" smooth="yes"/>
      <point x="1065" y="1499" type="line" smooth="yes"/>
      <point x="1065" y="1510"/>
      <point x="1060" y="1515"/>
      <point x="1046" y="1515" type="curve" smooth="yes"/>
      <point x="1033" y="1515"/>
      <point x="1028" y="1510"/>
      <point x="1028" y="1499" type="curve" smooth="yes"/>
      <point x="1028" y="845" type="line"/>
      <point x="975" y="390"/>
      <point x="813" y="123"/>
      <point x="589" y="123" type="curve" smooth="yes"/>
      <point x="473" y="123"/>
      <point x="416" y="200"/>
      <point x="416" y="364" type="curve" smooth="yes"/>
      <point x="416" y="1328" type="line" smooth="yes"/>
      <point x="416" y="1458"/>
      <point x="378" y="1513"/>
      <point x="306" y="1513" type="curve" smooth="yes"/>
      <point x="209" y="1513"/>
      <point x="119" y="1410"/>
      <point x="48" y="1219" type="curve" smooth="yes"/>
      <point x="43" y="1205"/>
      <point x="43" y="1196"/>
      <point x="54" y="1191" type="curve" smooth="yes"/>
      <point x="65" y="1186"/>
      <point x="74" y="1189"/>
      <point x="79" y="1201" type="curve" smooth="yes"/>
      <point x="153" y="1388"/>
      <point x="225" y="1476"/>
      <point x="303" y="1476" type="curve" smooth="yes"/>
      <point x="354" y="1476"/>
      <point x="379" y="1436"/>
      <point x="379" y="1329" type="curve" smooth="yes"/>
      <point x="379" y="364" type="line" smooth="yes"/>
      <point x="379" y="176"/>
      <point x="446" y="88"/>
      <point x="586" y="88" type="curve" smooth="yes"/>
      <point x="798" y="88"/>
      <point x="965" y="311"/>
      <point x="1028" y="664" type="curve"/>
      <point x="1028" y="-600" type="line" smooth="yes"/>
      <point x="1028" y="-855"/>
      <point x="964" y="-985"/>
      <point x="845" y="-985" type="curve" smooth="yes"/>
      <point x="766" y="-985"/>
      <point x="723" y="-920"/>
      <point x="723" y="-814" type="curve" smooth="yes"/>
      <point x="723" y="-611"/>
      <point x="816" y="-425"/>
      <point x="1038" y="-185" type="curve" smooth="yes"/>
      <point x="1106" y="-111"/>
      <point x="1226" y="-5"/>
      <point x="1358" y="96" type="curve" smooth="yes"/>
      <point x="1370" y="105"/>
      <point x="1371" y="114"/>
      <point x="1364" y="124" type="curve" smooth="yes"/>
      <point x="1356" y="134"/>
      <point x="1348" y="134"/>
      <point x="1339" y="128" type="curve" smooth="yes"/>
      <point x="1220" y="34"/>
      <point x="1106" y="-66"/>
      <point x="1038" y="-136" type="curve" smooth="yes"/>
      <point x="786" y="-396"/>
      <point x="681" y="-596"/>
      <point x="681" y="-814" type="curve" smooth="yes"/>
      <point x="681" y="-942"/>
      <point x="740" y="-1020"/>
    </contour>
  </outline>
</glyph>
<glyph name="Y.cur.ini" format="2">
  <advance width="1215"/>
  <anchor x="1275" y="0" name="bottom"/>
  <anchor x="1215" y="0" name="cnct"/>
  <anchor x="698" y="1424" name="top"/>
  <outline>
    <contour>
      <point x="586" y="88" type="curve" smooth="yes"/>
      <point x="798" y="88"/>
      <point x="965" y="311"/>
      <point x="1028" y="664" type="curve"/>
      <point x="1028" y="-600" type="line" smooth="yes"/>
      <point x="1028" y="-855"/>
      <point x="964" y="-985"/>
      <point x="845" y="-985" type="curve" smooth="yes"/>
      <point x="766" y="-985"/>
      <point x="723" y="-920"/>
      <point x="723" y="-814" type="curve" smooth="yes"/>
      <point x="723" y="-789"/>
      <point x="681" y="-789"/>
      <point x="681" y="-814" type="curve" smooth="yes"/>
      <point x="681" y="-942"/>
      <point x="740" y="-1020"/>
      <point x="845" y="-1020" type="curve" smooth="yes"/>
      <point x="989" y="-1020"/>
      <point x="1065" y="-879"/>
      <point x="1065" y="-600" type="curve" smooth="yes"/>
      <point x="1065" y="1499" type="line" smooth="yes"/>
      <point x="1065" y="1510"/>
      <point x="1060" y="1515"/>
      <point x="1046" y="1515" type="curve" smooth="yes"/>
      <point x="1033" y="1515"/>
      <point x="1028" y="1510"/>
      <point x="1028" y="1499" type="curve" smooth="yes"/>
      <point x="1028" y="845" type="line"/>
      <point x="975" y="390"/>
      <point x="813" y="123"/>
      <point x="589" y="123" type="curve" smooth="yes"/>
      <point x="473" y="123"/>
      <point x="416" y="200"/>
      <point x="416" y="364" type="curve" smooth="yes"/>
      <point x="416" y="1328" type="line" smooth="yes"/>
      <point x="416" y="1458"/>
      <point x="378" y="1513"/>
      <point x="306" y="1513" type="curve" smooth="yes"/>
      <point x="209" y="1513"/>
      <point x="119" y="1410"/>
      <point x="48" y="1219" type="curve" smooth="yes"/>
      <point x="43" y="1205"/>
      <point x="43" y="1196"/>
      <point x="54" y="1191" type="curve" smooth="yes"/>
      <point x="65" y="1186"/>
      <point x="74" y="1189"/>
      <point x="79" y="1201" type="curve" smooth="yes"/>
      <point x="153" y="1388"/>
      <point x="225" y="1476"/>
      <point x="303" y="1476" type="curve" smooth="yes"/>
      <point x="354" y="1476"/>
      <point x="379" y="1436"/>
      <point x="379" y="1329" type="curve" smooth="yes"/>
      <point x="379" y="364" type="line" smooth="yes"/>
      <point x="379" y="176"/>
      <point x="446" y="88"/>
    </contour>
  </outline>
</glyph>
<glyph name="Y_locl" format="2">
  <advance width="1064"/>
  <anchor x="511" y="0" name="bottom"/>
  <anchor x="574" y="1424" name="top"/>
  <outline>
    <contour>
      <point x="329" y="0" type="curve" smooth="yes"/>
      <point x="1043" y="1484" type="line" smooth="yes"/>
      <point x="1048" y="1495"/>
      <point x="1049" y="1503"/>
      <point x="1034" y="1509" type="curve" smooth="yes"/>
      <point x="1021" y="1514"/>
      <point x="1018" y="1513"/>
      <point x="1011" y="1500" type="curve" smooth="yes"/>
      <point x="591" y="623" type="line"/>
      <point x="96" y="1499" type="line" smooth="yes"/>
      <point x="88" y="1514"/>
      <point x="83" y="1515"/>
      <point x="69" y="1506" type="curve" smooth="yes"/>
      <point x="58" y="1499"/>
      <point x="60" y="1491"/>
      <point x="66" y="1480" type="curve" smooth="yes"/>
      <point x="573" y="584" type="line"/>
      <point x="298" y="15" type="line" smooth="yes"/>
      <point x="293" y="5"/>
      <point x="291" y="-2"/>
      <point x="305" y="-10" type="curve" smooth="yes"/>
      <point x="316" y="-16"/>
      <point x="321" y="-15"/>
    </contour>
  </outline>
</glyph>
<glyph name="Z.dec_locl.ini" format="2">
  <advance width="1100"/>
  <anchor x="675" y="0" name="bottom"/>
  <anchor x="675" y="750" name="center"/>
  <anchor x="1100" y="0" name="cnct"/>
  <anchor x="675" y="1424" name="top"/>
  <outline>
    <contour>
      <point x="858" y="-17" type="curve" smooth="yes"/>
      <point x="883" y="-17"/>
      <point x="888" y="16"/>
      <point x="863" y="16" type="curve" smooth="yes"/>
      <point x="709" y="16"/>
      <point x="571" y="124"/>
      <point x="388" y="124" type="curve" smooth="yes"/>
      <point x="323" y="124"/>
      <point x="249" y="100"/>
      <point x="186" y="59" type="curve"/>
      <point x="668" y="745" type="line"/>
      <point x="1009" y="745" type="line" smooth="yes"/>
      <point x="1015" y="745"/>
      <point x="1020" y="754"/>
      <point x="1020" y="764" type="curve" smooth="yes"/>
      <point x="1020" y="774"/>
      <point x="1016" y="780"/>
      <point x="1009" y="780" type="curve" smooth="yes"/>
      <point x="691" y="780" type="line"/>
      <point x="1166" y="1458" type="line" smooth="yes"/>
      <point x="1174" y="1468"/>
      <point x="1173" y="1478"/>
      <point x="1163" y="1488" type="curve" smooth="yes"/>
      <point x="1155" y="1495"/>
      <point x="1146" y="1496"/>
      <point x="1136" y="1490" type="curve" smooth="yes"/>
      <point x="1066" y="1444"/>
      <point x="1000" y="1420"/>
      <point x="930" y="1420" type="curve" smooth="yes"/>
      <point x="803" y="1420"/>
      <point x="718" y="1511"/>
      <point x="578" y="1511" type="curve" smooth="yes"/>
      <point x="431" y="1511"/>
      <point x="299" y="1445"/>
      <point x="175" y="1314" type="curve" smooth="yes"/>
      <point x="169" y="1306"/>
      <point x="156" y="1299"/>
      <point x="170" y="1285" type="curve" smooth="yes"/>
      <point x="181" y="1274"/>
      <point x="185" y="1271"/>
      <point x="200" y="1288" type="curve" smooth="yes"/>
      <point x="310" y="1411"/>
      <point x="434" y="1475"/>
      <point x="578" y="1475" type="curve" smooth="yes"/>
      <point x="705" y="1475"/>
      <point x="786" y="1384"/>
      <point x="930" y="1384" type="curve" smooth="yes"/>
      <point x="993" y="1384"/>
      <point x="1049" y="1400"/>
      <point x="1103" y="1431" type="curve"/>
      <point x="646" y="780" type="line"/>
      <point x="309" y="780" type="line" smooth="yes"/>
      <point x="301" y="780"/>
      <point x="298" y="773"/>
      <point x="298" y="763" type="curve" smooth="yes"/>
      <point x="298" y="753"/>
      <point x="301" y="745"/>
      <point x="309" y="745" type="curve" smooth="yes"/>
      <point x="621" y="745" type="line"/>
      <point x="111" y="18" type="line" smooth="yes"/>
      <point x="108" y="13"/>
      <point x="105" y="1"/>
      <point x="114" y="-9" type="curve" smooth="yes"/>
      <point x="120" y="-15"/>
      <point x="129" y="-19"/>
      <point x="136" y="-14" type="curve" smooth="yes"/>
      <point x="235" y="55"/>
      <point x="303" y="88"/>
      <point x="388" y="88" type="curve" smooth="yes"/>
      <point x="565" y="88"/>
      <point x="686" y="-17"/>
    </contour>
  </outline>
</glyph>
<glyph name="a.mod.ini" format="2">
  <advance width="622"/>
  <anchor x="301" y="0" name="bottom"/>
  <anchor x="622" y="0" name="cnct"/>
  <anchor x="520" y="0" name="ogonek"/>
  <anchor x="310" y="500" name="top"/>
  <outline>
    <contour>
      <point x="228" y="-17" type="curve" smooth="yes"/>
      <point x="341" y="-17"/>
      <point x="421" y="83"/>
      <point x="462" y="341" type="curve"/>
      <point x="442" y="404" type="line"/>
      <point x="412" y="124"/>
      <point x="327" y="18"/>
      <point x="233" y="18" type="curve" smooth="yes"/>
      <point x="147" y="18"/>
      <point x="115" y="115"/>
      <point x="115" y="224" type="curve" smooth="yes"/>
      <point x="115" y="393"/>
      <point x="185" y="485"/>
      <point x="305" y="485" type="curve" smooth="yes"/>
      <point x="343" y="485"/>
      <point x="393" y="475"/>
      <point x="448" y="436" type="curve"/>
      <point x="448" y="474" type="line"/>
      <point x="398" y="505"/>
      <point x="357" y="519"/>
      <point x="308" y="519" type="curve" smooth="yes"/>
      <point x="150" y="519"/>
      <point x="75" y="398"/>
      <point x="75" y="223" type="curve" smooth="yes"/>
      <point x="75" y="71"/>
      <point x="132" y="-17"/>
    </contour>
    <contour>
      <point x="520" y="-17" type="curve" smooth="yes"/>
      <point x="540" y="-17"/>
      <point x="540" y="18"/>
      <point x="520" y="18" type="curve" smooth="yes"/>
      <point x="488" y="18"/>
      <point x="478" y="40"/>
      <point x="478" y="84" type="curve" smooth="yes"/>
      <point x="478" y="500" type="line"/>
      <point x="478" y="511"/>
      <point x="473" y="515"/>
      <point x="461" y="515" type="curve" smooth="yes"/>
      <point x="448" y="515"/>
      <point x="442" y="511"/>
      <point x="442" y="500" type="curve" smooth="yes"/>
      <point x="442" y="83" type="line" smooth="yes"/>
      <point x="442" y="11"/>
      <point x="466" y="-17"/>
    </contour>
  </outline>
</glyph>
<glyph name="ae.ful.med" format="2">
  <advance width="788"/>
  <anchor x="788" y="0" name="cnct"/>
  <anchor x="450" y="500" name="top"/>
  <outline>
    <contour>
      <point x="216" y="-17" type="curve" smooth="yes"/>
      <point x="316" y="-17"/>
      <point x="376" y="76"/>
      <point x="436" y="213" type="curve"/>
      <point x="420" y="251" type="line"/>
      <point x="346" y="96"/>
      <point x="300" y="18"/>
      <point x="221" y="18" type="curve" smooth="yes"/>
      <point x="160" y="18"/>
      <point x="128" y="100"/>
      <point x="128" y="218" type="curve" smooth="yes"/>
      <point x="128" y="371"/>
      <point x="195" y="485"/>
      <point x="328" y="485" type="curve" smooth="yes"/>
      <point x="384" y="485"/>
      <point x="436" y="470"/>
      <point x="473" y="445" type="curve"/>
      <point x="493" y="475" type="line"/>
      <point x="433" y="506"/>
      <point x="384" y="519"/>
      <point x="328" y="519" type="curve" smooth="yes"/>
      <point x="163" y="519"/>
      <point x="88" y="376"/>
      <point x="88" y="214" type="curve" smooth="yes"/>
      <point x="88" y="70"/>
      <point x="139" y="-17"/>
    </contour>
    <contour>
      <point x="576" y="519" type="curve" smooth="yes"/>
      <point x="551" y="519"/>
      <point x="548" y="485"/>
      <point x="573" y="485" type="curve" smooth="yes"/>
      <point x="615" y="485"/>
      <point x="640" y="463"/>
      <point x="640" y="414" type="curve" smooth="yes"/>
      <point x="640" y="313"/>
      <point x="520" y="243"/>
      <point x="434" y="245" type="curve"/>
      <point x="450" y="215" type="line"/>
      <point x="553" y="221"/>
      <point x="680" y="304"/>
      <point x="680" y="418" type="curve" smooth="yes"/>
      <point x="680" y="481"/>
      <point x="640" y="519"/>
    </contour>
  </outline>
</glyph>
